<?xml version="1.0" encoding="UTF-8"?>
<svg xmlns="http://www.w3.org/2000/svg" version="1.1" viewBox="0 0 1080 1080">
  <defs>
    <style>
      .cls-1 {
        fill: #fff;
      }
    </style>
  </defs>
  <!-- Generator: Adobe Illustrator 28.6.0, SVG Export Plug-In . SVG Version: 1.2.0 Build 709)  -->
  <g>
    <g id="_레이어_1" data-name="레이어_1">
      <g>
        <path class="cls-1" d="M932,141.7c-51,5.2-85,10-120.5,16.9-43.4,8.5-88.3,20.4-124,32.9-10.4,3.7-20.5,7.1-22.2,7.7-2.6.9-15.4,15.4-58.5,66.2-30.4,35.7-56.3,66.2-57.5,67.6-2.1,2.2-1.9,1.4,1.3-7.5,2-5.5,9.8-27.5,17.5-48.9s13.8-39.1,13.5-39.3c-.3-.3-6.3,2.7-13.5,6.6-154.9,84.7-262.3,219.1-311.1,389.3-2.8,10-9,34.8-9,36.4s1.9-2.2,4.1-5.7c16.3-25.2,43.3-57.1,78.8-93.2,105.2-106.9,231.2-190.3,320.5-212.3,14.1-3.4,34.2-6.8,37.2-6.2s-2.9,3.1-9.7,7.3c-35,21.3-92.4,61.6-138.9,97.4-62.6,48.2-109.8,89.7-167.1,147-69.8,69.9-112.1,120.5-161.4,193.6-45.3,66.8-76.4,129.3-69.3,138.8,1.3,1.7,2.9.1,19.9-19.5,19.4-22.4,54.9-64.2,103.6-121.9l29.2-34.6,13.3-1.2c133.6-12,274.7-78.7,398.7-188.5,19.7-17.4,57.6-55.6,74.3-74.6,13.4-15.4,33-39.2,32.5-39.6-.1-.1-21.3-.8-47.2-1.4-25.8-.7-49.2-1.5-51.9-1.9-4.8-.6-3.4-1.2,67.1-27.4,39.6-14.8,72.4-27.2,73-27.5,1.4-1,17.5-28,26.6-44.7,23.4-43.1,41.8-92,50.2-133.8,4.3-21.2,5.6-33.2,6.2-56.5.5-18.6.3-22.2-.8-22-.8,0-3,.3-4.9.5Z"/>
        <path class="cls-1" d="M911.2,796.4c-7.3,4.6-7.6,5.1-1.2,2.6,3-1.3,6.3-2.5,7.2-2.7.9-.3,1.4-1.1,1.1-1.9-.7-1.9-.9-1.8-7.1,2Z"/>
        <path class="cls-1" d="M522.5,801.5c-40.2,2.8-83,10.4-116.5,20.7-66.7,20.6-136,51.8-181.3,81.5-5.4,3.6-9.6,7-9.4,7.6.6,1.6.5,1.6,16.3-5.4,68.1-30.1,149-55.9,212.9-67.7,38.6-7.2,62.5-9.6,96-9.7,26.1,0,35.1.9,45.1,4.6,13.5,5,13.1,11.7-2,34.6-3.6,5.6-7.7,12.5-9.1,15.5-8.8,18.9,5.2,29,42,30.4l15,.6,39-16.2c21.5-8.9,39.2-16.4,39.5-16.7s-.8-.3-2.4.1c-7.9,1.9-37,5.6-52.1,6.7-16.2,1.1-40.1.6-47.2-.9l-3.3-.7,6.9-10.2c11.1-16.6,14.6-27.9,12.1-39.9-3.9-18.9-20-30.9-46-34.2-13.9-1.8-35.3-2.1-55.5-.7Z"/>
        <path class="cls-1" d="M805.7,841.9c-48.8,20.3-89,37-89.3,37.3-1.7,1.8,25.4-5.9,48.1-13.6,31.9-10.8,56-20.9,89.5-37.8,24-12,43.7-22.8,41.5-22.7-.5.1-40.9,16.6-89.8,36.8Z"/>
      </g>
    </g>
  </g>
</svg>