<svg width="24" height="24" viewBox="0 0 24 24" fill="none" xmlns="http://www.w3.org/2000/svg">
<path fill-rule="evenodd" clip-rule="evenodd" d="M8 14.25C6.74022 14.25 5.53204 14.7504 4.64124 15.6412C3.75044 16.532 3.25 17.7402 3.25 19V21.5C3.25 21.9142 3.58579 22.25 4 22.25H20C20.4142 22.25 20.75 21.9142 20.75 21.5V19C20.75 17.7402 20.2496 16.532 19.3588 15.6412C18.468 14.7504 17.2598 14.25 16 14.25H8Z" fill="#DEDEDE"/>
<path fill-rule="evenodd" clip-rule="evenodd" d="M12 2.25C9.37665 2.25 7.25 4.37665 7.25 7C7.25 9.62335 9.37665 11.75 12 11.75C14.6234 11.75 16.75 9.62335 16.75 7C16.75 4.37665 14.6234 2.25 12 2.25Z" fill="#DEDEDE"/>
</svg>
