<svg xmlns="http://www.w3.org/2000/svg" xmlns:xlink="http://www.w3.org/1999/xlink" width="500" zoomAndPan="magnify" viewBox="0 0 375 225" height="300" preserveAspectRatio="xMidYMid meet" version="1.0"><defs><g/></defs><rect x="-37.5" width="450" fill="#ffffff" y="-22.5" height="270" fill-opacity="1"/><rect x="-37.5" width="450" fill="#ffffff" y="-22.5" height="270" fill-opacity="1"/><g fill="#000000" fill-opacity="1"><g transform="translate(47.86075, 152.970715)"><g><path d="M 32.84375 -51.234375 C 31.882812 -49.191406 31.425781 -47.023438 31.46875 -44.734375 C 31.59375 -41.285156 33.113281 -38.644531 36.03125 -36.8125 C 38.070312 -35.601562 40.253906 -34.757812 42.578125 -34.28125 C 47.097656 -33.257812 51.648438 -32.765625 56.234375 -32.796875 C 59.878906 -32.742188 63.515625 -32.820312 67.140625 -33.03125 C 68.304688 -33.113281 69.460938 -33.207031 70.609375 -33.3125 C 74.515625 -33.78125 78.328125 -34.890625 82.046875 -36.640625 C 86.203125 -38.628906 90.546875 -40.070312 95.078125 -40.96875 C 95.128906 -40.96875 95.15625 -40.96875 95.15625 -40.96875 C 95.820312 -41.09375 96.484375 -41.195312 97.140625 -41.28125 C 97.578125 -41.332031 97.988281 -41.359375 98.375 -41.359375 C 99 -41.367188 99.539062 -41.25 100 -41 C 100.457031 -40.75 100.707031 -40.445312 100.75 -40.09375 C 100.8125 -39.625 100.71875 -39.234375 100.46875 -38.921875 C 100.21875 -38.609375 99.90625 -38.347656 99.53125 -38.140625 C 98.5625 -37.492188 97.570312 -36.992188 96.5625 -36.640625 C 93.90625 -35.691406 91.25 -34.835938 88.59375 -34.078125 C 86.570312 -33.453125 84.550781 -32.972656 82.53125 -32.640625 C 80.769531 -32.421875 79.078125 -31.988281 77.453125 -31.34375 C 75.835938 -30.707031 74.25 -30.019531 72.6875 -29.28125 C 64.84375 -25.476562 57.175781 -21.367188 49.6875 -16.953125 C 42.195312 -12.535156 34.96875 -7.65625 28 -2.3125 C 25.382812 -0.382812 22.851562 1.660156 20.40625 3.828125 C 17.96875 5.992188 15.660156 8.296875 13.484375 10.734375 C 12.535156 11.828125 11.6875 12.921875 10.9375 14.015625 C 10.34375 14.804688 9.863281 15.664062 9.5 16.59375 C 8.695312 18.425781 8.609375 19.921875 9.234375 21.078125 C 9.859375 22.234375 11.148438 22.910156 13.109375 23.109375 C 14.753906 23.234375 16.410156 23.222656 18.078125 23.078125 C 18.472656 23.023438 18.882812 22.945312 19.3125 22.84375 C 22.9375 22.132812 26.503906 21.207031 30.015625 20.0625 C 33.523438 18.914062 36.984375 17.648438 40.390625 16.265625 C 49.953125 12.296875 59.304688 7.976562 68.453125 3.3125 C 69.929688 2.507812 71.28125 1.523438 72.5 0.359375 C 81.769531 -7.679688 91.753906 -14.765625 102.453125 -20.890625 C 106.921875 -23.410156 111.550781 -25.640625 116.34375 -27.578125 C 118.363281 -28.472656 120.46875 -29.054688 122.65625 -29.328125 C 123 -29.429688 123.3125 -29.46875 123.59375 -29.4375 C 124.394531 -29.53125 125.226562 -29.492188 126.09375 -29.328125 C 126.675781 -29.148438 126.863281 -28.738281 126.65625 -28.09375 C 126.320312 -27.332031 125.769531 -26.726562 125 -26.28125 C 118.175781 -21.832031 111.285156 -17.472656 104.328125 -13.203125 C 97.367188 -8.929688 90.3125 -4.859375 83.15625 -0.984375 C 82.207031 -0.492188 81.242188 0.0195312 80.265625 0.5625 C 78.191406 1.695312 76.082031 2.800781 73.9375 3.875 C 72.570312 4.570312 71.328125 5.445312 70.203125 6.5 C 66.578125 9.789062 63.078125 13.179688 59.703125 16.671875 C 56.335938 20.171875 53.144531 23.875 50.125 27.78125 C 50.09375 27.820312 50.039062 27.90625 49.96875 28.03125 C 49.757812 28.332031 49.519531 28.59375 49.25 28.8125 C 48.976562 29.039062 48.660156 29.15625 48.296875 29.15625 C 48.179688 29.175781 48.082031 29.191406 48 29.203125 C 47.8125 29.265625 47.613281 29.285156 47.40625 29.265625 C 47.207031 29.296875 47 29.285156 46.78125 29.234375 C 46.570312 29.191406 46.40625 29.125 46.28125 29.03125 C 46.1875 28.914062 46.125 28.738281 46.09375 28.5 C 46.0625 28.269531 46.054688 28.070312 46.078125 27.90625 C 46.390625 27.226562 46.765625 26.617188 47.203125 26.078125 C 51.304688 21.003906 55.722656 16.175781 60.453125 11.59375 C 60.628906 11.425781 60.851562 11.296875 61.125 11.203125 C 61.207031 11.160156 61.304688 11.132812 61.421875 11.125 C 60.992188 10.9375 60.613281 10.84375 60.28125 10.84375 C 59.800781 10.9375 59.335938 11.113281 58.890625 11.375 C 58.847656 11.375 58.78125 11.398438 58.6875 11.453125 C 57.863281 11.785156 57.054688 12.148438 56.265625 12.546875 C 52.867188 14.109375 49.484375 15.601562 46.109375 17.03125 C 44.253906 17.769531 41.691406 18.738281 38.421875 19.9375 C 35.148438 21.132812 31.582031 22.273438 27.71875 23.359375 C 23.851562 24.453125 20.160156 25.210938 16.640625 25.640625 C 13.128906 26.066406 10.1875 25.898438 7.8125 25.140625 C 4.457031 23.773438 3.191406 21.335938 4.015625 17.828125 C 4.472656 16.222656 5.21875 14.738281 6.25 13.375 C 7.96875 10.832031 9.96875 8.5 12.25 6.375 C 15.5625 3.125 19.066406 0.0703125 22.765625 -2.78125 C 26.472656 -5.644531 30.269531 -8.378906 34.15625 -10.984375 C 43.625 -17.390625 53.46875 -23.144531 63.6875 -28.25 C 64.5625 -28.632812 65.410156 -29.078125 66.234375 -29.578125 C 66.234375 -29.578125 66.25 -29.597656 66.28125 -29.640625 C 66.320312 -29.648438 66.359375 -29.734375 66.390625 -29.890625 C 66.421875 -29.984375 66.460938 -30.082031 66.515625 -30.1875 C 65.460938 -30.363281 64.4375 -30.390625 63.4375 -30.265625 C 63.007812 -30.210938 62.554688 -30.179688 62.078125 -30.171875 C 61.210938 -30.160156 60.316406 -30.144531 59.390625 -30.125 C 58.753906 -30.132812 58.132812 -30.128906 57.53125 -30.109375 C 51.9375 -30.023438 46.382812 -30.46875 40.875 -31.4375 C 38.113281 -31.894531 35.503906 -32.765625 33.046875 -34.046875 C 27.609375 -37.066406 25.535156 -41.632812 26.828125 -47.75 C 27.503906 -50.78125 28.734375 -53.566406 30.515625 -56.109375 C 32.734375 -59.347656 35.234375 -62.347656 38.015625 -65.109375 C 47.710938 -74.890625 58.226562 -83.394531 69.5625 -90.625 C 80.894531 -97.863281 93.101562 -103.722656 106.1875 -108.203125 C 112.507812 -110.328125 118.984375 -111.789062 125.609375 -112.59375 C 126.085938 -112.644531 126.546875 -112.695312 126.984375 -112.75 C 130.640625 -113.144531 134.25 -113.109375 137.8125 -112.640625 C 141.375 -112.171875 144.898438 -111.378906 148.390625 -110.265625 C 150.140625 -109.742188 151.726562 -108.925781 153.15625 -107.8125 C 154.007812 -107.238281 154.585938 -106.457031 154.890625 -105.46875 C 154.992188 -105.132812 154.941406 -104.820312 154.734375 -104.53125 C 154.535156 -104.25 154.257812 -104.085938 153.90625 -104.046875 C 153.707031 -104.023438 153.523438 -104.003906 153.359375 -103.984375 C 153.242188 -103.960938 153.144531 -103.945312 153.0625 -103.9375 C 152.300781 -103.800781 151.648438 -103.96875 151.109375 -104.4375 C 149.585938 -105.894531 147.882812 -106.953125 146 -107.609375 C 144.125 -108.273438 142.203125 -108.832031 140.234375 -109.28125 C 140.085938 -109.3125 139.9375 -109.335938 139.78125 -109.359375 C 134.757812 -110.503906 129.796875 -110.753906 124.890625 -110.109375 C 122.273438 -109.785156 119.675781 -109.28125 117.09375 -108.59375 C 107.289062 -106.0625 97.972656 -102.554688 89.140625 -98.078125 C 80.304688 -93.597656 71.835938 -88.410156 63.734375 -82.515625 C 59.160156 -79.203125 54.765625 -75.679688 50.546875 -71.953125 C 46.328125 -68.234375 42.359375 -64.222656 38.640625 -59.921875 C 36.285156 -57.296875 34.351562 -54.398438 32.84375 -51.234375 Z M 116.4375 -25.0625 L 116.65625 -24.96875 Z M 88.390625 -8.15625 C 87.359375 -7.457031 87.421875 -7.394531 88.578125 -7.96875 C 89.742188 -8.550781 91.515625 -9.503906 93.890625 -10.828125 C 96.265625 -12.148438 98.820312 -13.59375 101.5625 -15.15625 C 104.300781 -16.71875 106.734375 -18.101562 108.859375 -19.3125 C 110.984375 -20.53125 112.335938 -21.351562 112.921875 -21.78125 C 113.773438 -22.320312 114.597656 -22.882812 115.390625 -23.46875 C 115.492188 -23.53125 115.585938 -23.585938 115.671875 -23.640625 C 115.847656 -23.753906 115.945312 -23.898438 115.96875 -24.078125 C 116 -24.253906 116.007812 -24.40625 116 -24.53125 C 115.675781 -24.363281 115.351562 -24.203125 115.03125 -24.046875 C 114.851562 -24.023438 114.6875 -23.984375 114.53125 -23.921875 C 108.394531 -21.054688 102.507812 -17.769531 96.875 -14.0625 C 94.707031 -12.632812 92.585938 -11.164062 90.515625 -9.65625 C 89.804688 -9.132812 89.097656 -8.632812 88.390625 -8.15625 Z M 61.40625 11.0625 C 61.40625 11.0625 61.421875 11.0625 61.453125 11.0625 C 61.453125 11.0625 61.4375 11.0625 61.40625 11.0625 Z M 61.390625 10.90625 C 61.472656 10.9375 61.523438 10.953125 61.546875 10.953125 C 61.566406 10.953125 61.570312 10.941406 61.5625 10.921875 C 61.5625 10.898438 61.550781 10.875 61.53125 10.84375 C 61.507812 10.820312 61.488281 10.828125 61.46875 10.859375 C 61.445312 10.890625 61.421875 10.90625 61.390625 10.90625 Z M 61.390625 10.90625 "/></g></g><g transform="translate(177.201969, 137.376652)"><g><path d="M 23.796875 -20.1875 C 23.347656 -19.925781 22.875 -19.695312 22.375 -19.5 C 22.25 -19.414062 22.132812 -19.347656 22.03125 -19.296875 C 21.539062 -19.046875 21.046875 -18.800781 20.546875 -18.5625 C 19.128906 -17.90625 17.679688 -17.210938 16.203125 -16.484375 C 15.085938 -16.023438 14.273438 -15.207031 13.765625 -14.03125 C 12.921875 -12.1875 11.757812 -10.691406 10.28125 -9.546875 C 8.800781 -8.398438 7.257812 -7.523438 5.65625 -6.921875 C 4.050781 -6.316406 2.617188 -5.890625 1.359375 -5.640625 C 0.109375 -5.398438 -0.695312 -5.285156 -1.0625 -5.296875 C -1.101562 -5.285156 -1.160156 -5.273438 -1.234375 -5.265625 C -1.703125 -4.867188 -2.140625 -4.160156 -2.546875 -3.140625 C -2.960938 -2.128906 -3.3125 -1.222656 -3.59375 -0.421875 C -3.664062 -0.222656 -3.71875 -0.0390625 -3.75 0.125 C -5.375 4.664062 -6.972656 9.210938 -8.546875 13.765625 C -9.460938 16.296875 -10.375 18.816406 -11.28125 21.328125 C -11.550781 22.222656 -11.90625 23.097656 -12.34375 23.953125 C -12.75 24.597656 -13.328125 24.789062 -14.078125 24.53125 C -14.609375 24.226562 -14.789062 23.753906 -14.625 23.109375 C -14.457031 22.472656 -14.269531 21.816406 -14.0625 21.140625 C -11.394531 11.867188 -8.492188 2.675781 -5.359375 -6.4375 C -4.378906 -9.257812 -3.484375 -12.128906 -2.671875 -15.046875 C -2.304688 -16.390625 -1.921875 -17.765625 -1.515625 -19.171875 C -1.492188 -19.296875 -1.429688 -19.445312 -1.328125 -19.625 C -1.148438 -20.363281 -0.898438 -21.097656 -0.578125 -21.828125 C -0.429688 -22.085938 -0.128906 -22.28125 0.328125 -22.40625 C 0.796875 -22.53125 1.210938 -22.515625 1.578125 -22.359375 C 2.054688 -22.117188 2.328125 -21.71875 2.390625 -21.15625 C 2.429688 -20.882812 2.414062 -20.582031 2.34375 -20.25 C 2.28125 -20 2.25 -19.753906 2.25 -19.515625 C 2.257812 -19.273438 2.367188 -19.050781 2.578125 -18.84375 C 2.929688 -18.84375 3.226562 -18.925781 3.46875 -19.09375 C 3.707031 -19.257812 3.9375 -19.457031 4.15625 -19.6875 C 4.375 -19.90625 4.640625 -20.078125 4.953125 -20.203125 C 5.128906 -20.335938 5.3125 -20.460938 5.5 -20.578125 C 6.476562 -21.179688 7.457031 -21.71875 8.4375 -22.1875 C 9.707031 -22.757812 11.023438 -22.816406 12.390625 -22.359375 C 13.003906 -22.078125 13.476562 -21.703125 13.8125 -21.234375 C 14.15625 -20.773438 14.4375 -20.28125 14.65625 -19.75 C 14.863281 -19.320312 15.285156 -19.132812 15.921875 -19.1875 C 16.566406 -19.25 17.273438 -19.414062 18.046875 -19.6875 C 18.816406 -19.96875 19.515625 -20.25 20.140625 -20.53125 C 20.660156 -20.75 21.035156 -20.894531 21.265625 -20.96875 C 21.898438 -21.195312 22.554688 -21.316406 23.234375 -21.328125 C 23.429688 -21.359375 23.613281 -21.347656 23.78125 -21.296875 C 23.957031 -21.253906 24.0625 -21.085938 24.09375 -20.796875 C 24.101562 -20.691406 24.082031 -20.578125 24.03125 -20.453125 C 23.988281 -20.328125 23.910156 -20.238281 23.796875 -20.1875 Z M 10.421875 -16.375 C 10.828125 -16.71875 11.035156 -17.21875 11.046875 -17.875 C 11.066406 -18.53125 10.921875 -19.15625 10.609375 -19.75 C 10.472656 -19.925781 10.304688 -20.039062 10.109375 -20.09375 C 9.921875 -20.144531 9.734375 -20.160156 9.546875 -20.140625 C 9.160156 -20.023438 8.789062 -19.859375 8.4375 -19.640625 C 4.6875 -17.148438 1.796875 -13.898438 -0.234375 -9.890625 C -0.597656 -8.972656 -0.492188 -8.597656 0.078125 -8.765625 C 0.660156 -8.941406 1.507812 -9.414062 2.625 -10.1875 C 3.738281 -10.96875 4.882812 -11.851562 6.0625 -12.84375 C 7.238281 -13.832031 8.242188 -14.671875 9.078125 -15.359375 C 9.835938 -15.984375 10.285156 -16.320312 10.421875 -16.375 Z M 10.421875 -16.375 "/></g></g><g transform="translate(201.152842, 134.489008)"><g><path d="M 11.265625 -15.25 C 10.273438 -13.738281 9.054688 -12.3125 7.609375 -10.96875 C 6.171875 -9.632812 4.476562 -8.644531 2.53125 -8 C 0.582031 -7.351562 -0.984375 -7.3125 -2.171875 -7.875 C -3.359375 -8.4375 -3.757812 -9.953125 -3.375 -12.421875 C -2.8125 -14.992188 -1.90625 -17.484375 -0.65625 -19.890625 C -0.351562 -20.410156 0.101562 -20.804688 0.71875 -21.078125 C 1.175781 -21.242188 1.601562 -21.210938 2 -20.984375 C 2.394531 -20.765625 2.570312 -20.445312 2.53125 -20.03125 C 2.300781 -19.207031 2.035156 -18.378906 1.734375 -17.546875 C 1.441406 -16.722656 1.25 -16.179688 1.15625 -15.921875 C 0.550781 -14.441406 0.1875 -12.929688 0.0625 -11.390625 C 0.175781 -10.515625 1.34375 -10.597656 3.5625 -11.640625 C 5.789062 -12.679688 7.878906 -14.34375 9.828125 -16.625 C 11.773438 -18.914062 12.75 -19.640625 12.75 -18.796875 C 12.75 -17.953125 12.253906 -16.769531 11.265625 -15.25 Z M 4.28125 -25.453125 C 4.1875 -25.347656 3.976562 -25.210938 3.65625 -25.046875 C 3.332031 -24.890625 2.984375 -24.757812 2.609375 -24.65625 C 2.234375 -24.5625 1.925781 -24.585938 1.6875 -24.734375 C 1.457031 -24.878906 1.40625 -25.222656 1.53125 -25.765625 C 1.78125 -26.710938 2.050781 -27.550781 2.34375 -28.28125 C 2.632812 -29.007812 3.039062 -29.820312 3.5625 -30.71875 C 3.894531 -31.144531 4.289062 -31.398438 4.75 -31.484375 C 5.207031 -31.566406 5.597656 -31.488281 5.921875 -31.25 C 6.253906 -31.019531 6.382812 -30.660156 6.3125 -30.171875 C 6.050781 -28.398438 5.375 -26.828125 4.28125 -25.453125 Z M 4.28125 -25.453125 "/></g></g><g transform="translate(213.826982, 132.960947)"><g><path d="M 26.609375 -20.875 C 26.765625 -20.9375 26.953125 -20.957031 27.171875 -20.9375 C 27.390625 -20.925781 27.566406 -20.851562 27.703125 -20.71875 C 27.859375 -20.488281 27.878906 -20.25 27.765625 -20 C 27.648438 -19.75 27.460938 -19.539062 27.203125 -19.375 C 25.367188 -18.175781 23.523438 -16.953125 21.671875 -15.703125 C 19.503906 -14.222656 17.316406 -12.75 15.109375 -11.28125 C 14.796875 -11.113281 14.484375 -10.914062 14.171875 -10.6875 C 13.679688 -10.34375 13.195312 -10.015625 12.71875 -9.703125 C 11.59375 -8.984375 10.910156 -7.984375 10.671875 -6.703125 C 9.972656 -3.628906 9.226562 -0.570312 8.4375 2.46875 C 7.425781 6.53125 6.03125 10.445312 4.25 14.21875 C 3.257812 16.382812 1.976562 18.351562 0.40625 20.125 C -1.457031 22.351562 -3.710938 23.890625 -6.359375 24.734375 C -10.722656 26.179688 -15.082031 26.40625 -19.4375 25.40625 C -21.207031 25.019531 -22.789062 24.226562 -24.1875 23.03125 C -26.070312 21.425781 -26.382812 19.503906 -25.125 17.265625 C -24.550781 16.316406 -23.898438 15.421875 -23.171875 14.578125 C -21.535156 12.679688 -19.71875 10.941406 -17.71875 9.359375 C -10.632812 3.503906 -3.285156 -1.972656 4.328125 -7.078125 C 4.367188 -7.085938 4.390625 -7.09375 4.390625 -7.09375 C 5.179688 -7.632812 5.957031 -8.1875 6.71875 -8.75 C 6.832031 -8.875 6.988281 -9.128906 7.1875 -9.515625 C 7.382812 -9.898438 7.519531 -10.28125 7.59375 -10.65625 C 7.675781 -11.03125 7.613281 -11.285156 7.40625 -11.421875 C 7.195312 -11.566406 6.757812 -11.429688 6.09375 -11.015625 C 5.820312 -10.867188 5.570312 -10.71875 5.34375 -10.5625 C 4.75 -10.1875 4.160156 -9.84375 3.578125 -9.53125 C -0.0351562 -8.1875 -2.066406 -9.394531 -2.515625 -13.15625 C -2.691406 -15.414062 -2.253906 -17.523438 -1.203125 -19.484375 C -0.148438 -21.441406 1.296875 -23.050781 3.140625 -24.3125 C 4.984375 -25.582031 7.066406 -26.238281 9.390625 -26.28125 C 9.628906 -26.300781 9.867188 -26.300781 10.109375 -26.28125 C 10.742188 -26.269531 11.382812 -26.300781 12.03125 -26.375 C 12.675781 -26.457031 13.3125 -26.675781 13.9375 -27.03125 C 14.632812 -27.394531 15.1875 -27.375 15.59375 -26.96875 C 16 -26.570312 16.125 -26.003906 15.96875 -25.265625 C 15.507812 -23.835938 15.054688 -22.394531 14.609375 -20.9375 C 14.273438 -20.039062 13.972656 -19.113281 13.703125 -18.15625 C 13.378906 -17.15625 13.070312 -16.132812 12.78125 -15.09375 C 12.351562 -13.71875 12.347656 -13.023438 12.765625 -13.015625 C 13.179688 -13.003906 13.851562 -13.3125 14.78125 -13.9375 C 14.914062 -14 15.0625 -14.0625 15.21875 -14.125 C 16.925781 -15.21875 18.65625 -16.296875 20.40625 -17.359375 C 21.625 -18.097656 22.835938 -18.847656 24.046875 -19.609375 C 24.859375 -20.109375 25.710938 -20.53125 26.609375 -20.875 Z M 5.578125 -0.640625 C 6.023438 -2.628906 6.160156 -3.914062 5.984375 -4.5 C 5.816406 -5.082031 5.382812 -5.1875 4.6875 -4.8125 C 3.988281 -4.445312 3.09375 -3.816406 2 -2.921875 C 1.28125 -2.347656 0.5 -1.765625 -0.34375 -1.171875 C -5.46875 2.441406 -10.421875 6.253906 -15.203125 10.265625 C -17.335938 11.890625 -19.191406 13.757812 -20.765625 15.875 C -22.429688 18.144531 -22.148438 19.945312 -19.921875 21.28125 C -18.609375 22.09375 -17.203125 22.597656 -15.703125 22.796875 C -14.203125 23.003906 -12.570312 23.003906 -10.8125 22.796875 C -8.726562 22.691406 -6.863281 22.078125 -5.21875 20.953125 C -3.582031 19.835938 -2.125 18.285156 -0.84375 16.296875 C -0.09375 14.984375 0.613281 13.644531 1.28125 12.28125 C 3.1875 8.09375 4.617188 3.785156 5.578125 -0.640625 Z M 2.0625 -11.890625 C 2.65625 -11.710938 3.445312 -12.015625 4.4375 -12.796875 C 5.4375 -13.578125 6.429688 -14.601562 7.421875 -15.875 C 8.410156 -17.144531 9.160156 -18.414062 9.671875 -19.6875 C 10.191406 -20.957031 10.238281 -21.988281 9.8125 -22.78125 C 9.695312 -23.007812 9.53125 -23.207031 9.3125 -23.375 C 8.914062 -23.75 8.503906 -23.898438 8.078125 -23.828125 C 7.660156 -23.765625 7.226562 -23.632812 6.78125 -23.4375 C 5.269531 -22.613281 4 -21.363281 2.96875 -19.6875 C 1.9375 -18.019531 1.3125 -16.410156 1.09375 -14.859375 C 0.875 -13.316406 1.195312 -12.328125 2.0625 -11.890625 Z M 2.0625 -11.890625 "/></g></g><g transform="translate(241.580097, 129.614884)"><g><path d="M 13.1875 -21.84375 C 13.175781 -20.320312 12.59375 -19.257812 11.4375 -18.65625 C 10.28125 -18.050781 9.8125 -18.597656 10.03125 -20.296875 C 10.257812 -21.992188 9.46875 -22.320312 7.65625 -21.28125 C 5.851562 -20.238281 4.410156 -19.023438 3.328125 -17.640625 C 1.640625 -15.453125 0.203125 -13.144531 -0.984375 -10.71875 C -1.117188 -10.5 -1.222656 -10.328125 -1.296875 -10.203125 C -1.648438 -9.515625 -2.007812 -8.863281 -2.375 -8.25 C -2.601562 -7.820312 -2.90625 -7.535156 -3.28125 -7.390625 C -3.65625 -7.242188 -4.035156 -7.179688 -4.421875 -7.203125 C -4.796875 -7.203125 -5.097656 -7.3125 -5.328125 -7.53125 C -5.554688 -7.75 -5.613281 -8.03125 -5.5 -8.375 C -5.332031 -8.988281 -5.113281 -9.613281 -4.84375 -10.25 C -3.34375 -14.113281 -1.800781 -17.984375 -0.21875 -21.859375 C -0.1875 -21.910156 -0.171875 -21.957031 -0.171875 -22 C 0.0351562 -22.601562 0.300781 -23.164062 0.625 -23.6875 C 1.007812 -24.21875 1.488281 -24.472656 2.0625 -24.453125 C 2.632812 -24.429688 3.054688 -24.140625 3.328125 -23.578125 C 3.660156 -22.847656 3.914062 -22.441406 4.09375 -22.359375 C 4.28125 -22.285156 4.660156 -22.40625 5.234375 -22.71875 C 6.472656 -23.363281 7.695312 -23.851562 8.90625 -24.1875 C 10.125 -24.519531 11.144531 -24.59375 11.96875 -24.40625 C 12.800781 -24.21875 13.207031 -23.363281 13.1875 -21.84375 Z M 13.1875 -21.84375 "/></g></g><g transform="translate(257.828994, 127.655831)"><g><path d="M 21.578125 -19.40625 C 22.128906 -19.175781 22.253906 -18.46875 21.953125 -17.28125 C 21.410156 -16.375 20.828125 -15.519531 20.203125 -14.71875 C 19.578125 -13.925781 18.875 -13.195312 18.09375 -12.53125 C 18.03125 -12.519531 18.003906 -12.492188 18.015625 -12.453125 C 17.492188 -12.003906 16.941406 -11.601562 16.359375 -11.25 C 11.398438 -8.75 8.625 -9.515625 8.03125 -13.546875 C 6.144531 -11.484375 4.867188 -10.203125 4.203125 -9.703125 C 2.617188 -8.472656 0.820312 -7.789062 -1.1875 -7.65625 C -2.664062 -7.570312 -3.71875 -7.90625 -4.34375 -8.65625 C -4.976562 -9.40625 -5.066406 -10.507812 -4.609375 -11.96875 C -3.921875 -14.28125 -2.796875 -16.394531 -1.234375 -18.3125 C 0.585938 -20.457031 2.679688 -22.253906 5.046875 -23.703125 C 6.316406 -24.546875 7.691406 -24.984375 9.171875 -25.015625 C 10.648438 -25.097656 11.644531 -24.363281 12.15625 -22.8125 C 12.332031 -22.363281 12.257812 -21.9375 11.9375 -21.53125 C 11.519531 -21.03125 10.984375 -20.863281 10.328125 -21.03125 C 10.285156 -21.019531 10.222656 -21.019531 10.140625 -21.03125 C 10.054688 -21.050781 9.992188 -21.078125 9.953125 -21.109375 C 9.222656 -21.898438 8.546875 -22.1875 7.921875 -21.96875 C 7.304688 -21.75 6.660156 -21.382812 5.984375 -20.875 C 2.878906 -18.507812 0.734375 -15.488281 -0.453125 -11.8125 C -0.523438 -11.644531 -0.5625 -11.46875 -0.5625 -11.28125 C -0.5625 -11.101562 -0.488281 -10.960938 -0.34375 -10.859375 C 0.0390625 -10.785156 0.460938 -10.867188 0.921875 -11.109375 C 1.390625 -11.347656 1.835938 -11.675781 2.265625 -12.09375 C 2.703125 -12.507812 3.066406 -12.859375 3.359375 -13.140625 C 3.390625 -13.203125 3.40625 -13.234375 3.40625 -13.234375 C 4.832031 -14.742188 6.222656 -16.285156 7.578125 -17.859375 C 8.160156 -18.660156 8.941406 -19.160156 9.921875 -19.359375 C 11.347656 -19.535156 12.023438 -18.972656 11.953125 -17.671875 C 11.878906 -17.179688 11.796875 -16.679688 11.703125 -16.171875 C 11.390625 -14.046875 11.507812 -12.832031 12.0625 -12.53125 C 12.625 -12.238281 13.421875 -12.335938 14.453125 -12.828125 C 15.492188 -13.316406 16.484375 -14.128906 17.421875 -15.265625 C 18.367188 -16.398438 19.160156 -17.429688 19.796875 -18.359375 C 20.429688 -19.285156 21.023438 -19.632812 21.578125 -19.40625 Z M 21.578125 -19.40625 "/></g></g><g transform="translate(279.375031, 125.058127)"><g><path d="M 31.984375 -20.359375 C 32.691406 -20.941406 33.273438 -21.132812 33.734375 -20.9375 C 34.191406 -20.75 34.113281 -20.0625 33.5 -18.875 C 32.695312 -17.476562 31.15625 -15.90625 28.875 -14.15625 C 26.59375 -12.40625 24.492188 -11.507812 22.578125 -11.46875 C 20.671875 -11.4375 19.957031 -12.765625 20.4375 -15.453125 C 20.914062 -18.148438 21.164062 -19.65625 21.1875 -19.96875 C 21.21875 -20.289062 21.132812 -20.460938 20.9375 -20.484375 C 20.75 -20.515625 20.351562 -20.25 19.75 -19.6875 C 17.957031 -18.113281 16.222656 -16.472656 14.546875 -14.765625 C 13.804688 -14.066406 13.09375 -13.335938 12.40625 -12.578125 C 11.976562 -12.078125 11.53125 -11.582031 11.0625 -11.09375 C 11.0625 -11.09375 11.035156 -11.070312 10.984375 -11.03125 C 10.503906 -10.382812 9.859375 -9.921875 9.046875 -9.640625 C 8.703125 -9.472656 8.320312 -9.378906 7.90625 -9.359375 C 7.488281 -9.347656 7.117188 -9.472656 6.796875 -9.734375 C 6.453125 -10.015625 6.296875 -10.335938 6.328125 -10.703125 C 6.359375 -11.066406 6.5625 -11.628906 6.9375 -12.390625 C 7.3125 -13.160156 7.722656 -14.007812 8.171875 -14.9375 C 8.617188 -15.863281 8.863281 -16.429688 8.90625 -16.640625 C 8.945312 -16.847656 8.890625 -17.035156 8.734375 -17.203125 C 8.554688 -17.367188 8.378906 -17.40625 8.203125 -17.3125 C 8.035156 -17.226562 7.40625 -16.6875 6.3125 -15.6875 C 5.21875 -14.6875 3.738281 -13.289062 1.875 -11.5 C 1.007812 -10.664062 0.164062 -9.816406 -0.65625 -8.953125 C -0.863281 -8.679688 -1.097656 -8.429688 -1.359375 -8.203125 C -1.953125 -7.566406 -2.648438 -7.175781 -3.453125 -7.03125 C -4.023438 -6.914062 -4.472656 -6.992188 -4.796875 -7.265625 C -5.117188 -7.535156 -5.210938 -7.941406 -5.078125 -8.484375 C -4.992188 -8.898438 -4.867188 -9.273438 -4.703125 -9.609375 C -4.617188 -9.773438 -4.566406 -9.941406 -4.546875 -10.109375 C -3.253906 -13.773438 -1.984375 -17.453125 -0.734375 -21.140625 C -0.703125 -21.222656 -0.671875 -21.347656 -0.640625 -21.515625 C -0.503906 -21.910156 -0.351562 -22.289062 -0.1875 -22.65625 C 0.257812 -23.28125 0.851562 -23.539062 1.59375 -23.4375 C 2.4375 -23.300781 2.804688 -22.863281 2.703125 -22.125 C 2.453125 -20.988281 2.203125 -19.867188 1.953125 -18.765625 C 1.816406 -18.265625 1.675781 -17.765625 1.53125 -17.265625 C 1.320312 -16.378906 1.285156 -15.820312 1.421875 -15.59375 C 1.566406 -15.375 2.085938 -15.609375 2.984375 -16.296875 C 3.578125 -16.796875 4.164062 -17.300781 4.75 -17.8125 C 5.4375 -18.425781 6.113281 -18.988281 6.78125 -19.5 C 7.800781 -20.3125 8.859375 -21.03125 9.953125 -21.65625 C 10.492188 -21.945312 11.050781 -22.1875 11.625 -22.375 C 12.207031 -22.570312 12.785156 -22.507812 13.359375 -22.1875 C 13.773438 -21.90625 13.976562 -21.550781 13.96875 -21.125 C 13.96875 -20.707031 13.910156 -20.304688 13.796875 -19.921875 C 13.566406 -19.171875 13.492188 -18.703125 13.578125 -18.515625 C 13.660156 -18.328125 13.832031 -18.304688 14.09375 -18.453125 C 14.351562 -18.609375 14.8125 -18.945312 15.46875 -19.46875 C 16.132812 -19.988281 16.851562 -20.554688 17.625 -21.171875 C 18.582031 -21.984375 19.597656 -22.753906 20.671875 -23.484375 C 21.554688 -24.234375 22.523438 -24.738281 23.578125 -25 C 25.066406 -25.289062 25.753906 -24.765625 25.640625 -23.421875 C 25.535156 -22.078125 25.195312 -20.453125 24.625 -18.546875 C 24.0625 -16.640625 24.113281 -15.519531 24.78125 -15.1875 C 25.445312 -14.851562 26.75 -15.578125 28.6875 -17.359375 C 30.632812 -19.148438 31.734375 -20.148438 31.984375 -20.359375 Z M 31.984375 -20.359375 "/></g></g></g></svg>