<svg width="336" height="161" viewBox="0 0 336 161" fill="none" xmlns="http://www.w3.org/2000/svg">
<g filter="url(#filter0_d_1142_2219)">
<g clip-path="url(#clip0_1142_2219)">
<rect x="12" y="9" width="312" height="120" rx="16" fill="white"/>
<line x1="12" y1="9.5" x2="324" y2="9.50003" stroke="#F2F2F2"/>
<line x1="12" y1="33.5" x2="324" y2="33.5" stroke="#F2F2F2"/>
<line x1="12" y1="57.5" x2="324" y2="57.5" stroke="#F2F2F2"/>
<line x1="12" y1="81.5" x2="324" y2="81.5" stroke="#F2F2F2"/>
<line x1="12" y1="105.5" x2="324" y2="105.5" stroke="#F2F2F2"/>
<path d="M38.548 42.86C38.548 40.606 40.214 39.78 42.286 39.78C44.358 39.78 46.038 40.606 46.038 42.86C46.038 45.086 44.358 45.898 42.286 45.898C40.214 45.898 38.548 45.086 38.548 42.86ZM39.542 42.874C39.542 44.54 40.788 45.142 42.286 45.142C43.812 45.142 45.058 44.54 45.058 42.874C45.058 41.152 43.812 40.536 42.286 40.536C40.788 40.536 39.542 41.152 39.542 42.874ZM36.392 49.202C36.182 48.978 36.406 48.628 36.658 48.754C36.896 48.866 37.47 48.866 38.212 48.866H41.936V47.788C41.936 47.228 41.796 47.088 41.11 46.92C40.844 46.85 40.928 46.36 41.264 46.402L42.692 46.556C42.972 46.584 42.944 46.766 42.944 46.864C42.944 46.99 42.902 47.172 42.902 47.55V48.866H47.592C47.844 48.866 47.956 48.81 48.082 48.81C48.25 48.81 48.32 48.908 48.32 49.076C48.32 49.356 47.998 49.636 47.592 49.636H38.212C37.778 49.636 37.484 49.706 37.26 49.706C37.022 49.706 36.714 49.552 36.392 49.202ZM57.0335 40.564V43.182H58.9795V40.536C58.9795 39.878 58.6995 39.696 57.9855 39.514C57.7195 39.444 57.8595 38.954 58.1535 38.996L59.7075 39.22C60.0015 39.262 59.9735 39.43 59.9735 39.528C59.9735 39.64 59.9175 39.878 59.9175 40.27V47.088C59.9175 47.634 59.7215 48.124 59.3155 48.124C59.1335 48.124 58.9795 47.914 58.9795 47.424V43.938H57.0335V45.87C57.0335 46.416 56.8375 46.906 56.4455 46.906C56.2635 46.906 56.1095 46.696 56.1095 46.206V45.772C54.4575 46.248 52.7355 46.598 50.9015 46.598C50.2855 46.598 49.9635 46.192 49.9635 45.632V44.092C49.9635 43.616 49.8235 43.462 49.2215 43.378C48.9135 43.336 49.0395 42.832 49.2635 42.832H53.2675V40.886H51.3635C50.9295 40.886 50.6355 40.956 50.4115 40.956C50.1735 40.956 49.8655 40.802 49.5435 40.452C49.3335 40.228 49.5575 39.878 49.8095 40.004C50.0475 40.116 50.6215 40.116 51.3635 40.116H52.9035C53.3655 40.102 53.5195 40.032 53.7015 40.032C53.9395 40.032 54.2615 40.284 54.2615 40.466C54.2615 40.592 54.2195 40.774 54.2195 41.152V43.042C54.2195 43.28 53.9395 43.602 53.6315 43.602H50.9155V45.436C50.9155 45.646 51.0135 45.758 51.2235 45.758C52.8615 45.758 54.4855 45.534 56.1095 45.184V40.816C56.1095 40.186 55.8575 40.004 55.1715 39.822C54.9195 39.752 55.0455 39.276 55.3395 39.318L56.8235 39.514C57.1175 39.556 57.0895 39.724 57.0895 39.822C57.0895 39.934 57.0335 40.172 57.0335 40.564ZM57.0335 47.844C56.8375 48.32 56.5995 48.782 56.3195 49.216C57.7335 50.014 58.9935 50.672 60.1415 51.19C60.3235 51.344 60.5615 51.75 60.5615 52.072C60.5615 52.296 60.3235 52.506 60.0715 52.31C59.2175 51.68 57.8175 50.854 55.8715 49.818C54.9615 50.882 53.6315 51.778 51.6995 52.422C51.4055 52.52 51.0975 52.1 51.3635 51.988C53.3375 51.148 54.8075 49.944 55.7455 48.418C55.8295 48.04 55.5775 47.76 54.9895 47.592C54.7375 47.522 54.8495 47.018 55.1855 47.088L56.8095 47.452C57.0895 47.508 57.0755 47.746 57.0335 47.844ZM64.0109 50.028C64.0109 48.264 65.6069 47.606 67.5529 47.606C69.4849 47.606 71.0949 48.264 71.0949 50.028C71.0949 51.792 69.4849 52.436 67.5529 52.436C65.6069 52.436 64.0109 51.792 64.0109 50.028ZM70.5769 44.022H67.9729V45.758H72.8029C73.0549 45.758 73.1669 45.702 73.2929 45.702C73.4609 45.702 73.5309 45.8 73.5309 45.968C73.5309 46.248 73.2089 46.528 72.8029 46.528H63.4229C62.9889 46.528 62.6949 46.598 62.4709 46.598C62.2329 46.598 61.9249 46.444 61.6029 46.094C61.3929 45.87 61.6169 45.52 61.8689 45.646C62.1069 45.758 62.6809 45.758 63.4229 45.758H67.0069V44.022H64.9349C64.3189 44.022 63.9969 43.616 63.9969 43.056V40.984C63.9969 40.508 63.8569 40.354 63.2549 40.27C62.9469 40.228 63.0729 39.724 63.2969 39.724H70.3949C70.6469 39.724 70.7589 39.668 70.8849 39.668C70.9969 39.668 71.1229 39.808 71.1229 39.934C71.1229 40.172 70.7029 40.494 70.3949 40.494H64.9629V42.93C64.9629 43.14 65.0609 43.252 65.2709 43.252H70.5769C70.8289 43.252 70.9409 43.196 71.0669 43.196C71.1789 43.196 71.3049 43.336 71.3049 43.462C71.3049 43.7 70.8849 44.022 70.5769 44.022ZM65.0189 50.042C65.0189 51.246 66.1669 51.68 67.5529 51.68C68.9809 51.68 70.1009 51.246 70.1009 50.042C70.1009 48.81 68.9809 48.362 67.5529 48.362C66.1669 48.362 65.0189 48.81 65.0189 50.042ZM74.6004 43.238C74.6004 40.998 76.0144 40.186 77.7504 40.186C79.4864 40.186 80.9144 40.998 80.9144 43.238C80.9144 45.45 79.4864 46.262 77.7504 46.262C76.0144 46.262 74.6004 45.45 74.6004 43.238ZM75.6084 43.252C75.6084 44.918 76.5744 45.506 77.7504 45.506C78.9264 45.506 79.9204 44.918 79.9204 43.252C79.9204 41.53 78.9264 40.942 77.7504 40.942C76.5744 40.942 75.6084 41.53 75.6084 43.252ZM84.1064 40.27V43.126H85.5764C85.8424 43.126 85.9404 43.07 86.0664 43.07C86.1784 43.07 86.3044 43.21 86.3044 43.336C86.3044 43.56 85.8844 43.896 85.5764 43.896H84.1064V47.676C84.1064 48.222 83.9244 48.74 83.4904 48.74C83.2804 48.74 83.1404 48.53 83.1404 48.026V40.536C83.1404 39.878 82.8604 39.696 82.1464 39.514C81.8804 39.444 82.0204 38.954 82.3144 38.996L83.8964 39.22C84.1904 39.262 84.1624 39.43 84.1624 39.528C84.1624 39.64 84.1064 39.878 84.1064 40.27ZM77.4284 51.134V49.314C77.4284 48.698 77.2324 48.586 76.5184 48.404C76.2524 48.334 76.3364 47.844 76.6724 47.886L78.1844 48.054C78.4644 48.096 78.4364 48.264 78.4364 48.362C78.4364 48.488 78.3944 48.67 78.3944 49.048V51.008C78.3944 51.218 78.4924 51.33 78.7024 51.33H83.9664C84.2324 51.33 84.4004 51.26 84.5264 51.26C84.6384 51.26 84.7644 51.4 84.7644 51.526C84.7644 51.764 84.3024 52.1 83.9664 52.1H78.3664C77.7504 52.1 77.4284 51.694 77.4284 51.134ZM93.1457 51.288V48.908C93.1457 48.418 93.0897 48.292 92.5437 48.194C92.2357 48.152 92.3617 47.648 92.5857 47.648H96.1417V45.156H92.5577C92.1237 45.156 91.8297 45.226 91.6057 45.226C91.3677 45.226 91.0597 45.072 90.7377 44.722C90.5277 44.498 90.7517 44.148 91.0037 44.274C91.2417 44.386 91.8157 44.386 92.5577 44.386H94.0277C94.4197 43.14 94.6857 41.824 94.8677 40.494H93.6917C93.2577 40.494 92.9637 40.564 92.7397 40.564C92.5017 40.564 92.1937 40.41 91.8717 40.06C91.6617 39.836 91.8857 39.486 92.1377 39.612C92.3757 39.724 92.9497 39.724 93.6917 39.724H94.4617C95.0497 39.724 95.2597 39.64 95.4557 39.64C95.6937 39.64 96.0017 39.892 96.0017 40.074C96.0017 40.2 95.9877 40.354 95.9737 40.62C95.7217 41.964 95.3017 43.224 94.6857 44.386H99.4597C99.7537 43.14 99.9497 41.824 100.034 40.494H98.2417C97.8077 40.494 97.5137 40.564 97.2897 40.564C97.0517 40.564 96.7437 40.41 96.4217 40.06C96.2117 39.836 96.4357 39.486 96.6877 39.612C96.9257 39.724 97.4997 39.724 98.2417 39.724H99.6277C100.216 39.724 100.426 39.64 100.622 39.64C100.86 39.64 101.168 39.892 101.168 40.074C101.168 40.2 101.154 40.34 101.14 40.62C101 41.922 100.636 43.182 100.104 44.386H101.938C102.19 44.386 102.302 44.33 102.428 44.33C102.596 44.33 102.666 44.428 102.666 44.596C102.666 44.876 102.344 45.156 101.938 45.156H97.1077V47.648H98.7317C99.3337 47.648 99.5017 47.564 99.7117 47.564C99.9497 47.564 100.272 47.816 100.272 47.998C100.272 48.124 100.23 48.306 100.23 48.684V51.666V51.694C100.23 51.932 99.9637 52.254 99.6417 52.254H94.0837C93.4677 52.254 93.1457 51.848 93.1457 51.288ZM94.4197 51.484H99.2637V48.418H94.1117V51.162C94.1117 51.372 94.2097 51.484 94.4197 51.484ZM105.555 41.488C105.555 39.766 107.193 39.136 109.237 39.136C111.295 39.136 112.947 39.766 112.947 41.488C112.947 43.21 111.295 43.826 109.237 43.826C107.193 43.826 105.555 43.21 105.555 41.488ZM112.443 46.892C112.681 46.892 113.003 47.144 113.003 47.326C113.003 47.452 112.961 47.634 112.961 48.012V49.384V49.412C112.961 49.636 112.765 49.958 112.443 49.958H106.717V51.162C106.717 51.372 106.815 51.484 107.025 51.484H112.737C113.003 51.484 113.171 51.414 113.297 51.414C113.409 51.414 113.535 51.554 113.535 51.68C113.535 51.904 113.073 52.24 112.737 52.24H106.689C106.073 52.24 105.751 51.834 105.751 51.274V50.378C105.751 49.944 105.709 49.804 105.149 49.734C104.841 49.692 104.953 49.202 105.191 49.202H111.995V47.732H107.109C106.675 47.732 106.381 47.802 106.157 47.802C105.919 47.802 105.611 47.648 105.289 47.298C105.065 47.074 105.303 46.752 105.555 46.864C105.793 46.976 106.367 46.976 107.109 46.976H111.463C112.065 46.976 112.233 46.892 112.443 46.892ZM106.549 41.502C106.549 42.664 107.781 43.07 109.237 43.07C110.735 43.07 111.967 42.664 111.967 41.502C111.967 40.312 110.735 39.892 109.237 39.892C107.781 39.892 106.549 40.312 106.549 41.502ZM103.343 45.184C103.133 44.96 103.357 44.61 103.609 44.736C103.847 44.848 104.421 44.848 105.163 44.848H114.543C114.795 44.848 114.907 44.792 115.033 44.792C115.201 44.792 115.271 44.89 115.271 45.058C115.271 45.338 114.949 45.618 114.543 45.618H105.163C104.729 45.618 104.435 45.688 104.211 45.688C103.973 45.688 103.665 45.534 103.343 45.184ZM129.7 41.516C129.504 43.994 129.042 46.29 128.342 48.446H131.072C131.324 48.446 131.436 48.39 131.562 48.39C131.73 48.39 131.8 48.488 131.8 48.656C131.8 48.936 131.478 49.216 131.072 49.216H121.692C121.258 49.216 120.964 49.286 120.74 49.286C120.502 49.286 120.194 49.132 119.872 48.782C119.662 48.558 119.886 48.208 120.138 48.334C120.376 48.446 120.95 48.446 121.692 48.446H127.726C128.174 46.15 128.44 43.742 128.566 41.25H123.274C122.84 41.25 122.546 41.32 122.322 41.32C122.084 41.32 121.776 41.166 121.454 40.816C121.244 40.592 121.468 40.242 121.72 40.368C121.958 40.48 122.532 40.48 123.274 40.48H128.16C128.748 40.48 128.986 40.396 129.182 40.396C129.42 40.396 129.742 40.648 129.742 40.83C129.742 40.956 129.714 41.138 129.7 41.516ZM138.484 44.876H134.886V47.41C134.886 47.62 134.984 47.732 135.194 47.732C137.574 47.732 139.758 47.508 142.11 46.906V40.536C142.11 39.878 141.83 39.696 141.116 39.514C140.85 39.444 140.99 38.954 141.284 38.996L142.866 39.22C143.16 39.262 143.132 39.43 143.132 39.528C143.132 39.64 143.076 39.878 143.076 40.27V50.728C143.076 51.274 142.894 51.792 142.46 51.792C142.25 51.792 142.11 51.582 142.11 51.078V47.494C139.716 48.208 137.406 48.53 134.858 48.572C134.242 48.586 133.92 48.166 133.92 47.606V45.366C133.92 44.89 133.78 44.736 133.178 44.652C132.87 44.61 132.996 44.106 133.22 44.106H138.106V41.446H135.32C134.886 41.446 134.592 41.516 134.368 41.516C134.13 41.516 133.822 41.362 133.5 41.012C133.29 40.788 133.514 40.438 133.766 40.564C134.004 40.676 134.578 40.676 135.32 40.676H137.574C138.162 40.676 138.358 40.592 138.554 40.592C138.792 40.592 139.114 40.844 139.114 41.026C139.114 41.152 139.072 41.334 139.072 41.712V44.288V44.316C139.072 44.554 138.792 44.876 138.484 44.876ZM154.099 44.302H148.359C147.743 44.302 147.421 43.896 147.421 43.336V41.18C147.421 40.62 147.267 40.494 146.553 40.312C146.287 40.242 146.371 39.752 146.707 39.794L148.177 39.948C148.457 39.976 148.429 40.158 148.429 40.256C148.429 40.382 148.387 40.564 148.387 40.942V43.21C148.387 43.42 148.485 43.532 148.695 43.532H154.099C154.351 43.532 154.463 43.476 154.589 43.476C154.701 43.476 154.827 43.616 154.827 43.742C154.827 43.98 154.407 44.302 154.099 44.302ZM145.083 46.458C144.873 46.234 145.097 45.884 145.349 46.01C145.587 46.122 146.161 46.122 146.903 46.122H156.283C156.535 46.122 156.647 46.066 156.773 46.066C156.941 46.066 157.011 46.164 157.011 46.332C157.011 46.612 156.689 46.892 156.283 46.892H146.903C146.469 46.892 146.175 46.962 145.951 46.962C145.713 46.962 145.405 46.808 145.083 46.458ZM147.729 51.134V49.65C147.729 49.034 147.533 48.922 146.819 48.74C146.553 48.67 146.637 48.18 146.973 48.222L148.485 48.39C148.765 48.432 148.737 48.6 148.737 48.698C148.737 48.824 148.695 49.006 148.695 49.384V51.008C148.695 51.218 148.793 51.33 149.003 51.33H154.407C154.673 51.33 154.841 51.26 154.967 51.26C155.079 51.26 155.205 51.4 155.205 51.526C155.205 51.764 154.743 52.1 154.407 52.1H148.667C148.051 52.1 147.729 51.694 147.729 51.134ZM172.981 44.708H171.511V50.728C171.511 51.274 171.329 51.792 170.895 51.792C170.685 51.792 170.545 51.582 170.545 51.078V40.536C170.545 39.878 170.265 39.696 169.551 39.514C169.285 39.444 169.425 38.954 169.719 38.996L171.301 39.22C171.595 39.262 171.567 39.43 171.567 39.528C171.567 39.64 171.511 39.878 171.511 40.27V43.938H172.981C173.247 43.938 173.345 43.882 173.471 43.882C173.583 43.882 173.709 44.022 173.709 44.148C173.709 44.372 173.289 44.708 172.981 44.708ZM168.697 47.62C168.655 47.83 168.389 48.012 168.179 47.788C167.297 46.752 166.107 45.632 164.973 44.666C164.245 46.024 163.279 47.2 162.061 48.138C161.837 48.334 161.473 47.998 161.655 47.774C163.391 45.982 164.609 43.826 165.155 41.474C165.155 41.04 164.875 40.844 164.259 40.62C164.007 40.508 164.119 40.046 164.455 40.116L166.079 40.494C166.359 40.55 166.317 40.788 166.303 40.886C166.079 41.978 165.757 43.014 165.323 43.952C166.289 44.862 167.409 45.842 168.431 46.64C168.585 46.808 168.739 47.284 168.697 47.62ZM183.444 52.24H178.096C177.48 52.24 177.158 51.834 177.158 51.274V49.076C177.158 48.586 177.102 48.46 176.556 48.362C176.248 48.32 176.374 47.816 176.598 47.816H182.702C183.164 47.802 183.318 47.732 183.514 47.732C183.752 47.732 184.074 47.984 184.074 48.166C184.074 48.292 184.032 48.474 184.032 48.852V51.68C184.032 51.918 183.766 52.24 183.444 52.24ZM184.116 40.27V42.902H185.586C185.852 42.902 185.95 42.846 186.076 42.846C186.188 42.846 186.314 42.986 186.314 43.112C186.314 43.336 185.894 43.672 185.586 43.672H184.116V46.038C184.116 46.584 183.934 47.102 183.5 47.102C183.29 47.102 183.15 46.892 183.15 46.388V45.24C180.518 45.996 178.236 46.374 176.108 46.402C175.492 46.416 175.17 45.996 175.17 45.436V44.036C175.17 43.56 175.03 43.406 174.428 43.322C174.12 43.28 174.246 42.776 174.47 42.776H179.664V40.956H176.57C176.136 40.956 175.842 41.026 175.618 41.026C175.38 41.026 175.072 40.872 174.75 40.522C174.54 40.298 174.764 39.948 175.016 40.074C175.254 40.186 175.828 40.186 176.57 40.186H179.132C179.72 40.186 179.916 40.102 180.112 40.102C180.35 40.102 180.672 40.354 180.672 40.536C180.672 40.662 180.63 40.844 180.63 41.222V42.986C180.63 43.224 180.35 43.546 180.042 43.546H176.136V45.24C176.136 45.45 176.234 45.562 176.444 45.562C178.404 45.604 180.504 45.31 183.15 44.652V40.536C183.15 39.878 182.87 39.696 182.156 39.514C181.89 39.444 182.03 38.954 182.324 38.996L183.906 39.22C184.2 39.262 184.172 39.43 184.172 39.528C184.172 39.64 184.116 39.878 184.116 40.27ZM178.124 51.148C178.124 51.358 178.222 51.47 178.432 51.47H183.066V48.586H178.124V51.148ZM189.036 42.118C189.036 40.2 190.674 39.5 192.718 39.5C194.776 39.5 196.428 40.2 196.428 42.118C196.428 44.022 194.776 44.708 192.718 44.708C190.674 44.708 189.036 44.022 189.036 42.118ZM190.03 42.132C190.03 43.476 191.262 43.952 192.718 43.952C194.216 43.952 195.448 43.476 195.448 42.132C195.448 40.746 194.216 40.256 192.718 40.256C191.262 40.256 190.03 40.746 190.03 42.132ZM186.824 46.486C186.614 46.262 186.838 45.912 187.09 46.038C187.328 46.15 187.902 46.15 188.644 46.15H198.024C198.276 46.15 198.388 46.094 198.514 46.094C198.682 46.094 198.752 46.192 198.752 46.36C198.752 46.64 198.43 46.92 198.024 46.92H188.644C188.21 46.92 187.916 46.99 187.692 46.99C187.454 46.99 187.146 46.836 186.824 46.486ZM189.47 51.134V49.594C189.47 48.978 189.274 48.866 188.56 48.684C188.294 48.614 188.378 48.124 188.714 48.166L190.226 48.334C190.506 48.376 190.478 48.544 190.478 48.642C190.478 48.768 190.436 48.95 190.436 49.328V51.008C190.436 51.218 190.534 51.33 190.744 51.33H196.148C196.414 51.33 196.582 51.26 196.708 51.26C196.82 51.26 196.946 51.4 196.946 51.526C196.946 51.764 196.484 52.1 196.148 52.1H190.408C189.792 52.1 189.47 51.694 189.47 51.134ZM209.289 47.816H204.991C204.375 47.816 204.053 47.41 204.053 46.85V42.216C204.053 41.726 203.997 41.6 203.451 41.502C203.143 41.46 203.269 40.956 203.493 40.956H208.547C209.009 40.942 209.163 40.872 209.359 40.872C209.597 40.872 209.919 41.124 209.919 41.306C209.919 41.432 209.877 41.614 209.877 41.992V47.256C209.877 47.494 209.611 47.816 209.289 47.816ZM205.019 46.724C205.019 46.934 205.117 47.046 205.327 47.046H208.911V41.726H205.019V46.724ZM214.721 44.848H213.251V50.728C213.251 51.274 213.069 51.792 212.635 51.792C212.425 51.792 212.285 51.582 212.285 51.078V40.536C212.285 39.878 212.005 39.696 211.291 39.514C211.025 39.444 211.165 38.954 211.459 38.996L213.041 39.22C213.335 39.262 213.307 39.43 213.307 39.528C213.307 39.64 213.251 39.878 213.251 40.27V44.078H214.721C214.987 44.078 215.085 44.022 215.211 44.022C215.323 44.022 215.449 44.162 215.449 44.288C215.449 44.512 215.029 44.848 214.721 44.848ZM225.884 52.24H220.396C219.78 52.24 219.458 51.834 219.458 51.274V49.076C219.458 48.586 219.402 48.46 218.856 48.362C218.548 48.32 218.674 47.816 218.898 47.816H224.974C225.576 47.816 225.744 47.732 225.954 47.732C226.192 47.732 226.514 47.984 226.514 48.166C226.514 48.292 226.472 48.474 226.472 48.852V51.652V51.68C226.472 51.918 226.206 52.24 225.884 52.24ZM220.424 51.148C220.424 51.358 220.522 51.47 220.732 51.47H225.506V48.586H220.424V51.148ZM223.77 46.43C223.742 46.626 223.476 46.808 223.252 46.598C222.58 45.996 221.67 45.324 220.55 44.554C219.542 45.408 218.296 46.122 216.84 46.696C216.574 46.808 216.266 46.388 216.518 46.262C218.772 45.156 220.438 43.756 221.488 42.02H218.786C218.352 42.02 218.058 42.09 217.834 42.09C217.596 42.09 217.288 41.936 216.966 41.586C216.756 41.362 216.98 41.012 217.232 41.138C217.47 41.25 218.044 41.25 218.786 41.25H221.18C221.768 41.25 221.992 41.166 222.188 41.166C222.426 41.166 222.748 41.446 222.748 41.6C222.748 41.754 222.622 42.02 222.482 42.272C222.104 42.916 221.656 43.504 221.11 44.05C221.95 44.638 222.748 45.142 223.518 45.562C223.672 45.73 223.798 46.108 223.77 46.43ZM226.556 40.27V46.038C226.556 46.584 226.374 47.102 225.94 47.102C225.73 47.102 225.59 46.892 225.59 46.388V40.536C225.59 39.878 225.31 39.696 224.596 39.514C224.33 39.444 224.47 38.954 224.764 38.996L226.346 39.22C226.64 39.262 226.612 39.43 226.612 39.528C226.612 39.64 226.556 39.878 226.556 40.27ZM219.99 40.326C219.304 40.326 218.786 40.34 218.198 39.794C217.974 39.584 218.198 39.206 218.464 39.318C218.702 39.43 219.052 39.5 219.99 39.5H221.474C221.586 39.5 221.698 39.668 221.698 39.822C221.698 40.06 221.152 40.326 219.99 40.326ZM236.46 40.564V43.924H238.546V40.536C238.546 39.878 238.266 39.696 237.552 39.514C237.286 39.444 237.426 38.954 237.72 38.996L239.274 39.22C239.568 39.262 239.54 39.43 239.54 39.528C239.54 39.64 239.484 39.878 239.484 40.27V50.742C239.484 51.288 239.288 51.778 238.882 51.778C238.7 51.778 238.546 51.568 238.546 51.078V44.68H236.46V50.196C236.46 50.742 236.264 51.232 235.872 51.232C235.69 51.232 235.536 51.022 235.536 50.532V47.228C233.856 47.788 232.26 48.04 230.412 48.04C229.796 48.04 229.474 47.634 229.474 47.074V42.328C229.474 41.866 229.46 41.656 228.746 41.474C228.494 41.404 228.564 40.928 228.9 40.97L230.216 41.11C230.496 41.152 230.468 41.32 230.468 41.418C230.468 41.544 230.426 41.726 230.426 42.104V46.878C230.426 47.088 230.524 47.2 230.734 47.2C232.47 47.2 233.926 47.074 235.536 46.64V40.816C235.536 40.186 235.284 40.004 234.598 39.822C234.346 39.752 234.472 39.276 234.766 39.318L236.25 39.514C236.544 39.556 236.516 39.724 236.516 39.822C236.516 39.934 236.46 40.172 236.46 40.564ZM254.921 41.516C254.725 43.994 254.263 46.29 253.563 48.446H256.293C256.545 48.446 256.657 48.39 256.783 48.39C256.951 48.39 257.021 48.488 257.021 48.656C257.021 48.936 256.699 49.216 256.293 49.216H246.913C246.479 49.216 246.185 49.286 245.961 49.286C245.723 49.286 245.415 49.132 245.093 48.782C244.883 48.558 245.107 48.208 245.359 48.334C245.597 48.446 246.171 48.446 246.913 48.446H252.947C253.395 46.15 253.661 43.742 253.787 41.25H248.495C248.061 41.25 247.767 41.32 247.543 41.32C247.305 41.32 246.997 41.166 246.675 40.816C246.465 40.592 246.689 40.242 246.941 40.368C247.179 40.48 247.753 40.48 248.495 40.48H253.381C253.969 40.48 254.207 40.396 254.403 40.396C254.641 40.396 254.963 40.648 254.963 40.83C254.963 40.956 254.935 41.138 254.921 41.516ZM264.03 51.288V48.908C264.03 48.418 263.974 48.292 263.428 48.194C263.12 48.152 263.246 47.648 263.47 47.648H267.026V45.156H263.442C263.008 45.156 262.714 45.226 262.49 45.226C262.252 45.226 261.944 45.072 261.622 44.722C261.412 44.498 261.636 44.148 261.888 44.274C262.126 44.386 262.7 44.386 263.442 44.386H264.912C265.304 43.14 265.57 41.824 265.752 40.494H264.576C264.142 40.494 263.848 40.564 263.624 40.564C263.386 40.564 263.078 40.41 262.756 40.06C262.546 39.836 262.77 39.486 263.022 39.612C263.26 39.724 263.834 39.724 264.576 39.724H265.346C265.934 39.724 266.144 39.64 266.34 39.64C266.578 39.64 266.886 39.892 266.886 40.074C266.886 40.2 266.872 40.354 266.858 40.62C266.606 41.964 266.186 43.224 265.57 44.386H270.344C270.638 43.14 270.834 41.824 270.918 40.494H269.126C268.692 40.494 268.398 40.564 268.174 40.564C267.936 40.564 267.628 40.41 267.306 40.06C267.096 39.836 267.32 39.486 267.572 39.612C267.81 39.724 268.384 39.724 269.126 39.724H270.512C271.1 39.724 271.31 39.64 271.506 39.64C271.744 39.64 272.052 39.892 272.052 40.074C272.052 40.2 272.038 40.34 272.024 40.62C271.884 41.922 271.52 43.182 270.988 44.386H272.822C273.074 44.386 273.186 44.33 273.312 44.33C273.48 44.33 273.55 44.428 273.55 44.596C273.55 44.876 273.228 45.156 272.822 45.156H267.992V47.648H269.616C270.218 47.648 270.386 47.564 270.596 47.564C270.834 47.564 271.156 47.816 271.156 47.998C271.156 48.124 271.114 48.306 271.114 48.684V51.666V51.694C271.114 51.932 270.848 52.254 270.526 52.254H264.968C264.352 52.254 264.03 51.848 264.03 51.288ZM265.304 51.484H270.148V48.418H264.996V51.162C264.996 51.372 265.094 51.484 265.304 51.484ZM276.44 41.488C276.44 39.766 278.078 39.136 280.122 39.136C282.18 39.136 283.832 39.766 283.832 41.488C283.832 43.21 282.18 43.826 280.122 43.826C278.078 43.826 276.44 43.21 276.44 41.488ZM283.328 46.892C283.566 46.892 283.888 47.144 283.888 47.326C283.888 47.452 283.846 47.634 283.846 48.012V49.384V49.412C283.846 49.636 283.65 49.958 283.328 49.958H277.602V51.162C277.602 51.372 277.7 51.484 277.91 51.484H283.622C283.888 51.484 284.056 51.414 284.182 51.414C284.294 51.414 284.42 51.554 284.42 51.68C284.42 51.904 283.958 52.24 283.622 52.24H277.574C276.958 52.24 276.636 51.834 276.636 51.274V50.378C276.636 49.944 276.594 49.804 276.034 49.734C275.726 49.692 275.838 49.202 276.076 49.202H282.88V47.732H277.994C277.56 47.732 277.266 47.802 277.042 47.802C276.804 47.802 276.496 47.648 276.174 47.298C275.95 47.074 276.188 46.752 276.44 46.864C276.678 46.976 277.252 46.976 277.994 46.976H282.348C282.95 46.976 283.118 46.892 283.328 46.892ZM277.434 41.502C277.434 42.664 278.666 43.07 280.122 43.07C281.62 43.07 282.852 42.664 282.852 41.502C282.852 40.312 281.62 39.892 280.122 39.892C278.666 39.892 277.434 40.312 277.434 41.502ZM274.228 45.184C274.018 44.96 274.242 44.61 274.494 44.736C274.732 44.848 275.306 44.848 276.048 44.848H285.428C285.68 44.848 285.792 44.792 285.918 44.792C286.086 44.792 286.156 44.89 286.156 45.058C286.156 45.338 285.834 45.618 285.428 45.618H276.048C275.614 45.618 275.32 45.688 275.096 45.688C274.858 45.688 274.55 45.534 274.228 45.184ZM46.29 64.27V66.412H47.76C48.026 66.412 48.124 66.356 48.25 66.356C48.362 66.356 48.488 66.496 48.488 66.622C48.488 66.846 48.068 67.182 47.76 67.182H46.29V69.114C46.29 69.66 46.108 70.178 45.674 70.178C45.464 70.178 45.324 69.968 45.324 69.464V68.12C42.692 68.876 40.298 69.254 38.17 69.282C37.554 69.296 37.232 68.876 37.232 68.316V65.418C37.232 64.928 37.092 64.802 36.49 64.704C36.182 64.662 36.308 64.158 36.532 64.158H42.272C42.538 64.158 42.636 64.102 42.762 64.102C42.874 64.102 43 64.242 43 64.368C43 64.592 42.58 64.928 42.272 64.928H38.198V68.12C38.198 68.33 38.296 68.442 38.506 68.442C40.466 68.484 42.678 68.19 45.324 67.532V64.536C45.324 63.878 45.044 63.696 44.33 63.514C44.064 63.444 44.204 62.954 44.498 62.996L46.08 63.22C46.374 63.262 46.346 63.43 46.346 63.528C46.346 63.64 46.29 63.878 46.29 64.27ZM45.702 76.24H43.504C42.888 76.24 42.566 75.834 42.566 75.274V71.9C42.566 71.452 42.482 71.326 42.104 71.256C41.796 71.214 41.908 70.78 42.146 70.78H44.806C45.408 70.78 45.562 70.696 45.772 70.696C46.01 70.696 46.332 70.948 46.332 71.13C46.332 71.256 46.29 71.438 46.29 71.816V75.68C46.29 75.918 46.024 76.24 45.702 76.24ZM41.068 70.696C41.306 70.696 41.628 70.948 41.628 71.13C41.628 71.256 41.586 71.438 41.586 71.816V73.314C41.586 73.552 41.39 73.86 41.068 73.86H39.192V75.162C39.192 75.372 39.29 75.484 39.5 75.484C40.214 75.484 40.942 75.456 41.6 75.386C41.866 75.344 41.922 75.302 42.048 75.288C42.16 75.288 42.3 75.414 42.3 75.54C42.314 75.778 41.978 76.016 41.656 76.072C41.012 76.184 40.186 76.24 39.192 76.24C38.576 76.24 38.254 75.834 38.254 75.274V74.238C38.254 73.832 38.226 73.664 37.722 73.594C37.414 73.552 37.526 73.104 37.764 73.104H40.648V71.536H39.612C39.178 71.536 38.884 71.592 38.66 71.592C38.422 71.592 38.114 71.452 37.792 71.102C37.568 70.878 37.806 70.556 38.058 70.668C38.296 70.78 38.87 70.78 39.612 70.78H40.284C40.746 70.766 40.872 70.696 41.068 70.696ZM43.504 75.148C43.504 75.358 43.602 75.47 43.812 75.47H45.352V71.55H43.504V75.148ZM49.3895 68.344C49.3895 65.698 50.8315 64.704 52.5955 64.704C54.3455 64.704 55.8015 65.698 55.8015 68.344C55.8015 70.99 54.3455 71.956 52.5955 71.956C50.8315 71.956 49.3895 70.99 49.3895 68.344ZM50.3975 68.358C50.3975 70.458 51.4055 71.2 52.5955 71.2C53.8135 71.2 54.7935 70.458 54.7935 68.358C54.7935 66.23 53.8135 65.46 52.5955 65.46C51.4055 65.46 50.3975 66.23 50.3975 68.358ZM60.3655 68.848H58.8955V74.728C58.8955 75.274 58.7135 75.792 58.2795 75.792C58.0695 75.792 57.9295 75.582 57.9295 75.078V64.536C57.9295 63.878 57.6495 63.696 56.9355 63.514C56.6695 63.444 56.8095 62.954 57.1035 62.996L58.6855 63.22C58.9795 63.262 58.9515 63.43 58.9515 63.528C58.9515 63.64 58.8955 63.878 58.8955 64.27V68.078H60.3655C60.6315 68.078 60.7295 68.022 60.8555 68.022C60.9675 68.022 61.0935 68.162 61.0935 68.288C61.0935 68.512 60.6735 68.848 60.3655 68.848ZM65.6528 70.654C68.3128 69.394 70.0768 67.56 70.9448 65.138H68.1308C67.6968 65.138 67.4028 65.208 67.1788 65.208C66.9408 65.208 66.6328 65.054 66.3108 64.704C66.1008 64.48 66.3248 64.13 66.5768 64.256C66.8148 64.368 67.3888 64.368 68.1308 64.368H70.5668C71.1548 64.368 71.4068 64.284 71.6028 64.284C71.8408 64.284 72.1628 64.536 72.1628 64.718C72.1628 64.872 72.0508 65.096 71.9528 65.39C71.0288 68.022 69.0408 69.982 65.9468 71.116C65.6668 71.214 65.3868 70.78 65.6528 70.654ZM75.4248 64.27V67.406H76.8948C77.1468 67.406 77.2588 67.35 77.3848 67.35C77.4968 67.35 77.6228 67.49 77.6228 67.616C77.6228 67.854 77.2028 68.176 76.8948 68.176H75.4248V71.536C75.4248 72.082 75.2288 72.6 74.8088 72.6C74.6128 72.6 74.4588 72.39 74.4588 71.886V64.536C74.4588 63.892 74.1648 63.696 73.4648 63.514C73.1988 63.444 73.3248 62.954 73.6328 62.996L75.2148 63.22C75.5088 63.262 75.4808 63.43 75.4808 63.528C75.4808 63.64 75.4248 63.878 75.4248 64.27ZM68.7468 75.134V73.174C68.7468 72.572 68.5508 72.446 67.8368 72.264C67.5708 72.194 67.6548 71.704 67.9908 71.746L69.5028 71.914C69.7828 71.942 69.7548 72.124 69.7548 72.222C69.7548 72.348 69.7128 72.53 69.7128 72.908V75.008C69.7128 75.218 69.8108 75.33 70.0208 75.33H75.2848C75.5508 75.33 75.7188 75.26 75.8448 75.26C75.9568 75.26 76.0828 75.4 76.0828 75.526C76.0828 75.764 75.6068 76.1 75.2848 76.1H69.6848C69.0688 76.1 68.7468 75.694 68.7468 75.134ZM79.9382 70.794C79.9382 71.004 80.0362 71.116 80.2462 71.116C82.2062 71.158 84.4182 70.864 87.0642 70.206V64.536C87.0642 63.878 86.7842 63.696 86.0702 63.514C85.8042 63.444 85.9442 62.954 86.2382 62.996L87.8202 63.22C88.1142 63.262 88.0862 63.43 88.0862 63.528C88.0862 63.64 88.0302 63.878 88.0302 64.27V68.078H89.5002C89.7662 68.078 89.8642 68.022 89.9902 68.022C90.1022 68.022 90.2282 68.162 90.2282 68.288C90.2282 68.512 89.8082 68.848 89.5002 68.848H88.0302V74.728C88.0302 75.274 87.8482 75.792 87.4142 75.792C87.2042 75.792 87.0642 75.582 87.0642 75.078V70.794C84.4322 71.55 82.0382 71.928 79.9102 71.956C79.2942 71.97 78.9722 71.55 78.9722 70.99V66.216C78.9722 65.726 78.8322 65.6 78.2302 65.502C77.9222 65.46 78.0482 64.956 78.2722 64.956H84.0122C84.2782 64.956 84.3762 64.9 84.5022 64.9C84.6142 64.9 84.7402 65.04 84.7402 65.166C84.7402 65.39 84.3202 65.726 84.0122 65.726H79.9382V70.794ZM92.0537 74.644C91.6057 74.644 91.2557 74.294 91.2557 73.874C91.2557 73.426 91.6197 73.09 92.0537 73.09C92.4877 73.09 92.8657 73.412 92.8657 73.874C92.8657 74.308 92.5157 74.644 92.0537 74.644Z" fill="#373737"/>
<path d="M216.914 93.94H213.302C213.106 93.94 213.008 93.842 213.008 93.646V93.394C213.008 93.198 213.106 93.1 213.302 93.1H216.914C217.11 93.1 217.208 93.198 217.208 93.394V93.646C217.208 93.842 217.11 93.94 216.914 93.94ZM225.758 97.846C225.758 95.942 227.326 95.242 229.244 95.242C231.148 95.242 232.73 95.942 232.73 97.846C232.73 99.75 231.148 100.436 229.244 100.436C227.326 100.436 225.758 99.75 225.758 97.846ZM223.182 91.028C223.182 88.956 224.596 88.186 226.332 88.186C228.068 88.186 229.496 88.956 229.496 91.028C229.496 93.086 228.068 93.828 226.332 93.828C224.596 93.828 223.182 93.086 223.182 91.028ZM226.766 97.86C226.766 99.19 227.9 99.68 229.244 99.68C230.63 99.68 231.736 99.19 231.736 97.86C231.736 96.502 230.63 95.998 229.244 95.998C227.9 95.998 226.766 96.502 226.766 97.86ZM224.19 91.042C224.19 92.554 225.156 93.072 226.332 93.072C227.508 93.072 228.502 92.554 228.502 91.042C228.502 89.474 227.508 88.942 226.332 88.942C225.156 88.942 224.19 89.474 224.19 91.042ZM232.688 88.27V90.762H234.158C234.424 90.762 234.522 90.706 234.648 90.706C234.76 90.706 234.886 90.846 234.886 90.972C234.886 91.196 234.466 91.532 234.158 91.532H232.688V94.094C232.688 94.64 232.506 95.158 232.072 95.158C231.862 95.158 231.722 94.948 231.722 94.444V88.536C231.722 87.878 231.442 87.696 230.728 87.514C230.462 87.444 230.602 86.954 230.896 86.996L232.478 87.22C232.772 87.262 232.744 87.43 232.744 87.528C232.744 87.64 232.688 87.878 232.688 88.27ZM237.72 92.988V89.488C237.72 89.012 237.58 88.858 236.978 88.774C236.67 88.732 236.796 88.228 237.02 88.228H244.258C244.51 88.228 244.622 88.172 244.748 88.172C244.86 88.172 244.986 88.312 244.986 88.438C244.986 88.676 244.566 88.998 244.258 88.998H238.686V92.862C238.686 93.072 238.784 93.184 238.994 93.184H244.44C244.692 93.184 244.804 93.128 244.93 93.128C245.042 93.128 245.168 93.268 245.168 93.394C245.168 93.632 244.748 93.954 244.44 93.954H238.658C238.042 93.954 237.72 93.548 237.72 92.988ZM235.396 97.062C235.186 96.838 235.41 96.488 235.662 96.614C235.9 96.726 236.474 96.726 237.216 96.726H246.596C246.848 96.726 246.96 96.67 247.086 96.67C247.254 96.67 247.324 96.768 247.324 96.936C247.324 97.216 247.002 97.496 246.596 97.496H237.216C236.782 97.496 236.488 97.566 236.264 97.566C236.026 97.566 235.718 97.412 235.396 97.062ZM252.635 88.886C252.873 88.886 253.195 89.138 253.195 89.32C253.195 89.446 253.153 89.628 253.153 90.006V92.47V92.498C253.153 92.736 252.873 93.058 252.565 93.058H249.919V95.606C249.919 95.816 250.017 95.928 250.227 95.928C251.417 95.928 252.621 95.872 253.811 95.69C254.077 95.648 254.133 95.606 254.259 95.592C254.371 95.592 254.511 95.718 254.511 95.844C254.525 96.082 254.189 96.306 253.867 96.376C252.663 96.614 251.347 96.74 249.891 96.768C249.275 96.782 248.967 96.362 248.967 95.802V93.548C248.967 93.072 248.827 92.918 248.225 92.834C247.917 92.792 248.043 92.288 248.267 92.288H252.201V89.74H250.367C249.933 89.74 249.639 89.81 249.415 89.81C249.177 89.81 248.869 89.656 248.547 89.306C248.337 89.082 248.561 88.732 248.813 88.858C249.051 88.97 249.625 88.97 250.367 88.97H251.837C252.299 88.956 252.453 88.886 252.635 88.886ZM253.559 92.4C253.335 92.176 253.573 91.854 253.825 91.966C254.035 92.064 254.357 92.078 255.141 92.078H255.393V88.816C255.393 88.186 255.141 88.004 254.455 87.822C254.203 87.752 254.329 87.276 254.623 87.318L256.107 87.514C256.401 87.556 256.373 87.724 256.373 87.822C256.373 87.934 256.317 88.172 256.317 88.564V98.196C256.317 98.742 256.121 99.232 255.729 99.232C255.547 99.232 255.393 99.022 255.393 98.532V92.834H255.141C254.707 92.834 254.623 92.904 254.413 92.904C254.231 92.904 253.881 92.722 253.559 92.4ZM258.921 88.27V98.742C258.921 99.288 258.725 99.778 258.319 99.778C258.137 99.778 257.983 99.568 257.983 99.078V88.536C257.983 87.878 257.703 87.696 256.989 87.514C256.723 87.444 256.863 86.954 257.157 86.996L258.711 87.22C259.005 87.262 258.977 87.43 258.977 87.528C258.977 87.64 258.921 87.878 258.921 88.27ZM270.467 93.142H266.169C265.553 93.142 265.231 92.736 265.231 92.176V89.418C265.231 88.928 265.175 88.802 264.629 88.704C264.321 88.662 264.447 88.158 264.671 88.158H269.725C270.187 88.144 270.341 88.074 270.537 88.074C270.775 88.074 271.097 88.326 271.097 88.508C271.097 88.634 271.055 88.816 271.055 89.194V92.582C271.055 92.82 270.789 93.142 270.467 93.142ZM273.827 94.64C274.065 94.64 274.387 94.892 274.387 95.074C274.387 95.2 274.345 95.382 274.345 95.76V97.286C274.345 97.51 274.149 97.832 273.827 97.832H268.381V99.162C268.381 99.372 268.479 99.484 268.689 99.484H274.149C274.415 99.484 274.583 99.414 274.709 99.414C274.821 99.414 274.947 99.554 274.947 99.68C274.947 99.904 274.485 100.24 274.149 100.24H268.353C267.737 100.24 267.415 99.834 267.415 99.274V98.252C267.415 97.818 267.373 97.678 266.813 97.608C266.505 97.566 266.617 97.076 266.855 97.076H273.379V95.48H268.703C268.269 95.48 267.975 95.55 267.751 95.55C267.513 95.55 267.205 95.396 266.883 95.046C266.659 94.822 266.897 94.5 267.149 94.612C267.387 94.724 267.961 94.724 268.703 94.724H273.015C273.477 94.71 273.631 94.64 273.827 94.64ZM266.197 92.05C266.197 92.26 266.295 92.372 266.505 92.372H270.089V88.928H266.197V92.05ZM274.429 88.27V90.412H275.899C276.165 90.412 276.263 90.356 276.389 90.356C276.501 90.356 276.627 90.496 276.627 90.622C276.627 90.846 276.207 91.182 275.899 91.182H274.429V93.058C274.429 93.604 274.247 94.122 273.813 94.122C273.603 94.122 273.463 93.912 273.463 93.408V88.536C273.463 87.878 273.183 87.696 272.469 87.514C272.203 87.444 272.343 86.954 272.637 86.996L274.219 87.22C274.513 87.262 274.485 87.43 274.485 87.528C274.485 87.64 274.429 87.878 274.429 88.27ZM286.138 87.99C286.376 87.99 286.698 88.242 286.698 88.424C286.698 88.55 286.656 88.732 286.656 89.11V91.07V91.098C286.656 91.336 286.376 91.658 286.068 91.658H280.384V93.394C280.384 93.604 280.482 93.716 280.692 93.716H286.432C286.684 93.716 286.796 93.66 286.922 93.66C287.034 93.66 287.16 93.814 287.16 93.94C287.16 94.178 286.74 94.486 286.432 94.486H280.356C279.74 94.486 279.418 94.08 279.418 93.52V92.078C279.418 91.644 279.376 91.504 278.816 91.434C278.508 91.392 278.634 90.888 278.858 90.888H285.69V88.844H280.846C280.412 88.844 280.118 88.914 279.894 88.914C279.656 88.914 279.348 88.76 279.026 88.41C278.816 88.186 279.04 87.836 279.292 87.962C279.53 88.074 280.104 88.074 280.846 88.074H285.326C285.788 88.06 285.956 87.99 286.138 87.99ZM277.136 97.342C276.926 97.118 277.15 96.768 277.402 96.894C277.64 97.006 278.214 97.006 278.956 97.006H282.68V96.264C282.68 95.704 282.54 95.564 281.854 95.396C281.588 95.326 281.672 94.836 282.008 94.878L283.436 95.032C283.716 95.06 283.688 95.242 283.688 95.34C283.688 95.466 283.646 95.648 283.646 96.026V97.006H288.336C288.588 97.006 288.7 96.95 288.826 96.95C288.994 96.95 289.064 97.048 289.064 97.216C289.064 97.496 288.742 97.776 288.336 97.776H278.956C278.522 97.776 278.228 97.846 278.004 97.846C277.766 97.846 277.458 97.692 277.136 97.342ZM298.439 93.94H294.827C294.631 93.94 294.533 93.842 294.533 93.646V93.394C294.533 93.198 294.631 93.1 294.827 93.1H298.439C298.635 93.1 298.733 93.198 298.733 93.394V93.646C298.733 93.842 298.635 93.94 298.439 93.94Z" fill="#ABB8CE"/>
</g>
<rect x="12.5" y="9.5" width="311" height="119" rx="15.5" stroke="#F2F2F2"/>
</g>
<path d="M127.545 151.27H126.187L125.557 153.706C125.501 153.902 125.375 154 125.179 154H124.843C124.647 154 124.577 153.902 124.633 153.706L125.263 151.27H123.303L122.673 153.706C122.617 153.902 122.491 154 122.295 154H121.959C121.763 154 121.693 153.902 121.749 153.706L122.379 151.27H121.245C121.049 151.27 120.937 151.172 120.993 150.99L121.077 150.71C121.133 150.542 121.203 150.5 121.399 150.5H122.575L123.107 148.414H121.791C121.595 148.414 121.483 148.316 121.539 148.134L121.623 147.854C121.679 147.686 121.749 147.644 121.945 147.644H123.303L123.947 145.194C124.003 144.998 124.129 144.9 124.325 144.9H124.661C124.857 144.9 124.927 144.998 124.871 145.194L124.227 147.644H126.187L126.831 145.194C126.887 144.998 127.013 144.9 127.209 144.9H127.545C127.741 144.9 127.811 144.998 127.755 145.194L127.111 147.644H128.245C128.441 147.644 128.553 147.742 128.497 147.924L128.413 148.204C128.357 148.372 128.287 148.414 128.091 148.414H126.915L126.383 150.5H127.699C127.895 150.5 128.007 150.598 127.951 150.78L127.867 151.06C127.811 151.228 127.741 151.27 127.545 151.27ZM124.031 148.414L123.499 150.5H125.459L125.991 148.414H124.031ZM130.739 146.174C130.739 145.614 130.585 145.488 129.871 145.306C129.605 145.236 129.689 144.746 130.025 144.788L131.495 144.942C131.775 144.984 131.747 145.152 131.747 145.25C131.747 145.376 131.705 145.558 131.705 145.936V150.766C131.705 150.976 131.803 151.088 132.013 151.088C133.973 151.13 136.045 150.836 138.691 150.178V144.536C138.691 143.878 138.411 143.696 137.697 143.514C137.431 143.444 137.571 142.954 137.865 142.996L139.447 143.22C139.741 143.262 139.713 143.43 139.713 143.528C139.713 143.64 139.657 143.878 139.657 144.27V147.798H141.127C141.393 147.798 141.491 147.742 141.617 147.742C141.729 147.742 141.855 147.882 141.855 148.008C141.855 148.232 141.435 148.568 141.127 148.568H139.657V154.728C139.657 155.274 139.475 155.792 139.041 155.792C138.831 155.792 138.691 155.582 138.691 155.078V150.766C136.045 151.536 133.847 151.886 131.677 151.928C131.061 151.942 130.739 151.522 130.739 150.962V146.174ZM142.757 148.344C142.757 145.698 144.199 144.704 145.963 144.704C147.713 144.704 149.169 145.698 149.169 148.344C149.169 150.99 147.713 151.956 145.963 151.956C144.199 151.956 142.757 150.99 142.757 148.344ZM143.765 148.358C143.765 150.458 144.773 151.2 145.963 151.2C147.181 151.2 148.161 150.458 148.161 148.358C148.161 146.23 147.181 145.46 145.963 145.46C144.773 145.46 143.765 146.23 143.765 148.358ZM153.733 148.848H152.263V154.728C152.263 155.274 152.081 155.792 151.647 155.792C151.437 155.792 151.297 155.582 151.297 155.078V144.536C151.297 143.878 151.017 143.696 150.303 143.514C150.037 143.444 150.177 142.954 150.471 142.996L152.053 143.22C152.347 143.262 152.319 143.43 152.319 143.528C152.319 143.64 152.263 143.878 152.263 144.27V148.078H153.733C153.999 148.078 154.097 148.022 154.223 148.022C154.335 148.022 154.461 148.162 154.461 148.288C154.461 148.512 154.041 148.848 153.733 148.848ZM166.338 149.268H164.868V154.728C164.868 155.274 164.686 155.792 164.252 155.792C164.042 155.792 163.902 155.582 163.902 155.078V144.536C163.902 143.878 163.622 143.696 162.908 143.514C162.642 143.444 162.782 142.954 163.076 142.996L164.658 143.22C164.952 143.262 164.924 143.43 164.924 143.528C164.924 143.64 164.868 143.878 164.868 144.27V148.498H166.338C166.604 148.498 166.702 148.442 166.828 148.442C166.94 148.442 167.066 148.582 167.066 148.708C167.066 148.932 166.646 149.268 166.338 149.268ZM154.984 152.222C157.756 150.71 159.576 148.442 160.542 145.656H157.28C156.846 145.656 156.552 145.726 156.328 145.726C156.09 145.726 155.782 145.572 155.46 145.222C155.25 144.998 155.474 144.648 155.726 144.774C155.964 144.886 156.538 144.886 157.28 144.886H160.164C160.752 144.886 160.976 144.802 161.172 144.802C161.41 144.802 161.732 145.054 161.732 145.236C161.732 145.39 161.62 145.614 161.55 145.908C160.556 148.974 158.442 151.228 155.278 152.684C154.998 152.81 154.718 152.362 154.984 152.222ZM167.968 148.344C167.968 145.698 169.41 144.704 171.174 144.704C172.924 144.704 174.38 145.698 174.38 148.344C174.38 150.99 172.924 151.956 171.174 151.956C169.41 151.956 167.968 150.99 167.968 148.344ZM168.976 148.358C168.976 150.458 169.984 151.2 171.174 151.2C172.392 151.2 173.372 150.458 173.372 148.358C173.372 146.23 172.392 145.46 171.174 145.46C169.984 145.46 168.976 146.23 168.976 148.358ZM178.944 150.934H177.474V154.728C177.474 155.274 177.292 155.792 176.858 155.792C176.648 155.792 176.508 155.582 176.508 155.078V144.536C176.508 143.878 176.228 143.696 175.514 143.514C175.248 143.444 175.388 142.954 175.682 142.996L177.264 143.22C177.558 143.262 177.53 143.43 177.53 143.528C177.53 143.64 177.474 143.878 177.474 144.27V146.664H178.944C179.21 146.664 179.308 146.608 179.434 146.608C179.546 146.608 179.672 146.748 179.672 146.874C179.672 147.098 179.252 147.434 178.944 147.434H177.474V150.164H178.944C179.21 150.164 179.308 150.108 179.434 150.108C179.546 150.108 179.672 150.248 179.672 150.374C179.672 150.598 179.252 150.934 178.944 150.934ZM181.119 148.204C181.119 146.706 182.435 146.132 184.059 146.132C185.697 146.132 187.027 146.706 187.027 148.204C187.027 149.702 185.697 150.262 184.059 150.262C182.435 150.262 181.119 149.702 181.119 148.204ZM189.477 151.144C189.715 151.144 190.037 151.396 190.037 151.578C190.037 151.704 189.995 151.886 189.995 152.264V153.538C189.995 153.762 189.799 154.084 189.477 154.084H184.031V155.162C184.031 155.372 184.129 155.484 184.339 155.484H189.799C190.065 155.484 190.233 155.414 190.359 155.414C190.471 155.414 190.597 155.554 190.597 155.68C190.597 155.904 190.135 156.24 189.799 156.24H184.003C183.387 156.24 183.065 155.834 183.065 155.274V154.504C183.065 154.07 183.023 153.93 182.463 153.86C182.155 153.818 182.267 153.328 182.505 153.328H189.029V151.984H184.353C183.919 151.984 183.625 152.054 183.401 152.054C183.163 152.054 182.855 151.9 182.533 151.55C182.309 151.326 182.547 151.004 182.799 151.116C183.037 151.228 183.611 151.228 184.353 151.228H188.665C189.127 151.214 189.281 151.144 189.477 151.144ZM190.079 144.27V146.916H191.549C191.815 146.916 191.913 146.86 192.039 146.86C192.151 146.86 192.277 147 192.277 147.126C192.277 147.35 191.857 147.686 191.549 147.686H190.079V149.562C190.079 150.108 189.897 150.626 189.463 150.626C189.253 150.626 189.113 150.416 189.113 149.912V144.536C189.113 143.878 188.833 143.696 188.119 143.514C187.853 143.444 187.993 142.954 188.287 142.996L189.869 143.22C190.163 143.262 190.135 143.43 190.135 143.528C190.135 143.64 190.079 143.878 190.079 144.27ZM182.113 148.218C182.113 149.184 183.009 149.506 184.059 149.506C185.151 149.506 186.047 149.184 186.047 148.218C186.047 147.224 185.151 146.902 184.059 146.902C183.009 146.902 182.113 147.224 182.113 148.218ZM187.027 145.572H182.113C181.679 145.572 181.385 145.642 181.161 145.642C180.923 145.642 180.615 145.474 180.293 145.124C180.083 144.9 180.307 144.578 180.559 144.704C180.797 144.816 181.371 144.816 182.113 144.816H187.027C187.279 144.816 187.391 144.76 187.517 144.76C187.629 144.76 187.755 144.886 187.755 145.012C187.755 145.25 187.335 145.572 187.027 145.572ZM184.003 144.102C183.317 144.102 182.631 144.116 182.043 143.57C181.819 143.36 182.043 142.982 182.309 143.094C182.547 143.206 183.065 143.276 184.003 143.276H185.655C185.767 143.276 185.879 143.444 185.879 143.598C185.879 143.836 185.165 144.102 184.003 144.102ZM201.187 144.55V148.204H202.923V144.522C202.923 143.864 202.811 143.696 202.097 143.514C201.831 143.444 201.971 142.954 202.265 142.996L203.637 143.206C203.931 143.248 203.903 143.416 203.903 143.514C203.903 143.626 203.847 143.864 203.847 144.256V154.742C203.847 155.288 203.665 155.778 203.259 155.778C203.077 155.778 202.923 155.568 202.923 155.078V148.96H201.187V154.196C201.187 154.742 201.005 155.232 200.613 155.232C200.431 155.232 200.277 155.022 200.277 154.532V151.298C199.493 151.69 198.625 151.97 197.659 152.11C197.197 152.18 196.903 151.914 196.777 151.55C196.133 151.872 195.377 152.054 194.509 152.11C193.893 152.152 193.571 151.704 193.571 151.144V146.37C193.571 145.88 193.529 145.726 193.053 145.656C192.745 145.614 192.871 145.11 193.095 145.11H195.181C195.447 145.11 195.545 145.054 195.671 145.054C195.783 145.054 195.909 145.194 195.909 145.32C195.909 145.544 195.489 145.88 195.181 145.88H194.495V150.948C194.495 151.158 194.593 151.27 194.803 151.27C195.377 151.27 196.063 151.172 196.721 150.976V146.37C196.721 145.88 196.693 145.726 196.301 145.656C195.993 145.6 196.119 145.11 196.343 145.11H198.765C199.031 145.11 199.129 145.054 199.255 145.054C199.367 145.054 199.493 145.194 199.493 145.32C199.493 145.544 199.073 145.88 198.765 145.88H197.645V150.948C197.645 151.158 197.743 151.284 197.953 151.27C198.695 151.2 199.451 151.004 200.277 150.71V144.802C200.277 144.172 200.193 144.004 199.507 143.822C199.255 143.752 199.381 143.276 199.675 143.318L200.977 143.5C201.271 143.542 201.243 143.71 201.243 143.808C201.243 143.92 201.187 144.158 201.187 144.55Z" fill="#ABB8CE"/>
<path d="M221.334 151.27H219.976L219.346 153.706C219.29 153.902 219.164 154 218.968 154H218.632C218.436 154 218.366 153.902 218.422 153.706L219.052 151.27H217.092L216.462 153.706C216.406 153.902 216.28 154 216.084 154H215.748C215.552 154 215.482 153.902 215.538 153.706L216.168 151.27H215.034C214.838 151.27 214.726 151.172 214.782 150.99L214.866 150.71C214.922 150.542 214.992 150.5 215.188 150.5H216.364L216.896 148.414H215.58C215.384 148.414 215.272 148.316 215.328 148.134L215.412 147.854C215.468 147.686 215.538 147.644 215.734 147.644H217.092L217.736 145.194C217.792 144.998 217.918 144.9 218.114 144.9H218.45C218.646 144.9 218.716 144.998 218.66 145.194L218.016 147.644H219.976L220.62 145.194C220.676 144.998 220.802 144.9 220.998 144.9H221.334C221.53 144.9 221.6 144.998 221.544 145.194L220.9 147.644H222.034C222.23 147.644 222.342 147.742 222.286 147.924L222.202 148.204C222.146 148.372 222.076 148.414 221.88 148.414H220.704L220.172 150.5H221.488C221.684 150.5 221.796 150.598 221.74 150.78L221.656 151.06C221.6 151.228 221.53 151.27 221.334 151.27ZM217.82 148.414L217.288 150.5H219.248L219.78 148.414H217.82ZM225.956 155.288V152.908C225.956 152.418 225.9 152.292 225.354 152.194C225.046 152.152 225.172 151.648 225.396 151.648H228.952V149.156H225.368C224.934 149.156 224.64 149.226 224.416 149.226C224.178 149.226 223.87 149.072 223.548 148.722C223.338 148.498 223.562 148.148 223.814 148.274C224.052 148.386 224.626 148.386 225.368 148.386H226.838C227.23 147.14 227.496 145.824 227.678 144.494H226.502C226.068 144.494 225.774 144.564 225.55 144.564C225.312 144.564 225.004 144.41 224.682 144.06C224.472 143.836 224.696 143.486 224.948 143.612C225.186 143.724 225.76 143.724 226.502 143.724H227.272C227.86 143.724 228.07 143.64 228.266 143.64C228.504 143.64 228.812 143.892 228.812 144.074C228.812 144.2 228.798 144.354 228.784 144.62C228.532 145.964 228.112 147.224 227.496 148.386H232.27C232.564 147.14 232.76 145.824 232.844 144.494H231.052C230.618 144.494 230.324 144.564 230.1 144.564C229.862 144.564 229.554 144.41 229.232 144.06C229.022 143.836 229.246 143.486 229.498 143.612C229.736 143.724 230.31 143.724 231.052 143.724H232.438C233.026 143.724 233.236 143.64 233.432 143.64C233.67 143.64 233.978 143.892 233.978 144.074C233.978 144.2 233.964 144.34 233.95 144.62C233.81 145.922 233.446 147.182 232.914 148.386H234.748C235 148.386 235.112 148.33 235.238 148.33C235.406 148.33 235.476 148.428 235.476 148.596C235.476 148.876 235.154 149.156 234.748 149.156H229.918V151.648H231.542C232.144 151.648 232.312 151.564 232.522 151.564C232.76 151.564 233.082 151.816 233.082 151.998C233.082 152.124 233.04 152.306 233.04 152.684V155.666V155.694C233.04 155.932 232.774 156.254 232.452 156.254H226.894C226.278 156.254 225.956 155.848 225.956 155.288ZM227.23 155.484H232.074V152.418H226.922V155.162C226.922 155.372 227.02 155.484 227.23 155.484ZM238.366 145.488C238.366 143.766 240.004 143.136 242.048 143.136C244.106 143.136 245.758 143.766 245.758 145.488C245.758 147.21 244.106 147.826 242.048 147.826C240.004 147.826 238.366 147.21 238.366 145.488ZM245.254 150.892C245.492 150.892 245.814 151.144 245.814 151.326C245.814 151.452 245.772 151.634 245.772 152.012V153.384V153.412C245.772 153.636 245.576 153.958 245.254 153.958H239.528V155.162C239.528 155.372 239.626 155.484 239.836 155.484H245.548C245.814 155.484 245.982 155.414 246.108 155.414C246.22 155.414 246.346 155.554 246.346 155.68C246.346 155.904 245.884 156.24 245.548 156.24H239.5C238.884 156.24 238.562 155.834 238.562 155.274V154.378C238.562 153.944 238.52 153.804 237.96 153.734C237.652 153.692 237.764 153.202 238.002 153.202H244.806V151.732H239.92C239.486 151.732 239.192 151.802 238.968 151.802C238.73 151.802 238.422 151.648 238.1 151.298C237.876 151.074 238.114 150.752 238.366 150.864C238.604 150.976 239.178 150.976 239.92 150.976H244.274C244.876 150.976 245.044 150.892 245.254 150.892ZM239.36 145.502C239.36 146.664 240.592 147.07 242.048 147.07C243.546 147.07 244.778 146.664 244.778 145.502C244.778 144.312 243.546 143.892 242.048 143.892C240.592 143.892 239.36 144.312 239.36 145.502ZM236.154 149.184C235.944 148.96 236.168 148.61 236.42 148.736C236.658 148.848 237.232 148.848 237.974 148.848H247.354C247.606 148.848 247.718 148.792 247.844 148.792C248.012 148.792 248.082 148.89 248.082 149.058C248.082 149.338 247.76 149.618 247.354 149.618H237.974C237.54 149.618 237.246 149.688 237.022 149.688C236.784 149.688 236.476 149.534 236.154 149.184ZM259.357 144.27V154.728C259.357 155.274 259.175 155.792 258.741 155.792C258.531 155.792 258.391 155.582 258.391 155.078V144.536C258.391 143.878 258.111 143.696 257.397 143.514C257.131 143.444 257.271 142.954 257.565 142.996L259.147 143.22C259.441 143.262 259.413 143.43 259.413 143.528C259.413 143.64 259.357 143.878 259.357 144.27ZM249.571 148.344C249.571 145.698 250.999 144.704 252.735 144.704C254.471 144.704 255.913 145.698 255.913 148.344C255.913 150.99 254.471 151.956 252.735 151.956C250.999 151.956 249.571 150.99 249.571 148.344ZM250.579 148.358C250.579 150.458 251.573 151.2 252.735 151.2C253.911 151.2 254.905 150.458 254.905 148.358C254.905 146.23 253.911 145.46 252.735 145.46C251.573 145.46 250.579 146.23 250.579 148.358ZM270.339 143.514C270.577 143.514 270.899 143.766 270.899 143.948C270.899 144.074 270.857 144.256 270.857 144.634V146.384C270.857 146.608 270.661 146.93 270.339 146.93H264.641V148.4C264.641 148.61 264.739 148.722 264.949 148.722H270.549C270.815 148.722 270.983 148.652 271.109 148.652C271.221 148.652 271.347 148.792 271.347 148.918C271.347 149.142 270.885 149.478 270.549 149.478H264.613C263.997 149.478 263.675 149.072 263.675 148.512V147.35C263.675 146.916 263.633 146.776 263.073 146.706C262.765 146.664 262.877 146.174 263.115 146.174H269.891V144.354H265.103C264.669 144.354 264.375 144.424 264.151 144.424C263.913 144.424 263.605 144.27 263.283 143.92C263.059 143.696 263.297 143.374 263.549 143.486C263.787 143.598 264.361 143.598 265.103 143.598H269.359C269.961 143.598 270.129 143.514 270.339 143.514ZM261.365 151.382C261.155 151.158 261.379 150.808 261.631 150.934C261.869 151.046 262.443 151.046 263.185 151.046H272.565C272.817 151.046 272.929 150.99 273.055 150.99C273.223 150.99 273.293 151.088 273.293 151.256C273.293 151.536 272.971 151.816 272.565 151.816H267.749V155.008C267.749 155.554 267.553 156.072 267.105 156.072C266.825 156.072 266.783 155.68 266.783 155.358V151.816H263.185C262.751 151.816 262.457 151.886 262.233 151.886C261.995 151.886 261.687 151.732 261.365 151.382ZM273.97 152.922C273.76 152.698 273.984 152.348 274.236 152.474C274.474 152.586 275.048 152.586 275.79 152.586H278.534V149.548C278.534 148.988 278.394 148.848 277.708 148.68C277.442 148.61 277.526 148.12 277.862 148.162L279.29 148.316C279.57 148.344 279.542 148.526 279.542 148.624C279.542 148.75 279.5 148.932 279.5 149.31V152.586H285.17C285.422 152.586 285.534 152.53 285.66 152.53C285.828 152.53 285.898 152.628 285.898 152.796C285.898 153.076 285.576 153.356 285.17 153.356H275.79C275.356 153.356 275.062 153.426 274.838 153.426C274.6 153.426 274.292 153.272 273.97 152.922ZM283.798 145.376C283.756 146.762 283.238 149.156 282.496 151.046C282.384 151.34 281.88 151.2 281.936 150.934C282.356 149.002 282.608 147.07 282.664 145.11H277.372C276.938 145.11 276.644 145.18 276.42 145.18C276.182 145.18 275.874 145.026 275.552 144.676C275.342 144.452 275.566 144.102 275.818 144.228C276.056 144.34 276.63 144.34 277.372 144.34H282.258C282.846 144.34 283.084 144.256 283.28 144.256C283.518 144.256 283.84 144.508 283.84 144.69C283.84 144.816 283.812 144.998 283.798 145.376ZM297.104 156.24H290.636C290.202 156.24 289.908 156.31 289.684 156.31C289.446 156.31 289.138 156.156 288.816 155.806C288.606 155.582 288.83 155.232 289.082 155.358C289.32 155.47 289.894 155.47 290.636 155.47H291.21V154.154C291.21 153.594 291.196 153.454 290.622 153.314C290.356 153.244 290.44 152.782 290.776 152.824L291.938 152.95C292.218 152.978 292.19 153.16 292.19 153.258C292.19 153.384 292.148 153.566 292.148 153.944V155.47H295.074V154.07C295.074 153.51 295.06 153.356 294.486 153.216C294.22 153.146 294.304 152.684 294.64 152.726L295.802 152.866C296.082 152.894 296.054 153.076 296.054 153.174C296.054 153.3 296.012 153.482 296.012 153.86V155.47H297.104C297.398 155.47 297.608 155.414 297.734 155.414C297.846 155.414 297.972 155.554 297.972 155.68C297.972 155.918 297.454 156.24 297.104 156.24ZM291.56 144.312C291.364 145.138 291.084 145.894 290.706 146.594C291.686 147.35 292.736 148.05 293.716 148.596C293.884 148.75 294.08 149.198 294.08 149.534C294.08 149.744 293.814 149.968 293.59 149.758C292.75 149.002 291.616 148.134 290.328 147.252C289.628 148.33 288.662 149.24 287.416 149.968C287.15 150.122 286.786 149.786 287.01 149.604C288.662 148.33 289.824 146.776 290.412 144.914C290.412 144.48 290.132 144.284 289.516 144.06C289.264 143.948 289.376 143.486 289.712 143.556L291.336 143.92C291.616 143.976 291.574 144.214 291.56 144.312ZM297.174 144.27V149.702C297.174 150.248 296.978 150.766 296.558 150.766C296.362 150.766 296.208 150.556 296.208 150.052V144.536C296.208 143.892 295.914 143.696 295.214 143.514C294.948 143.444 295.074 142.954 295.382 142.996L296.964 143.22C297.258 143.262 297.23 143.43 297.23 143.528C297.23 143.64 297.174 143.878 297.174 144.27ZM296.684 152.264H291.056C290.622 152.264 290.328 152.334 290.104 152.334C289.866 152.334 289.558 152.18 289.236 151.83C289.026 151.606 289.25 151.256 289.502 151.382C289.74 151.494 290.314 151.494 291.056 151.494H296.684C296.978 151.494 297.188 151.438 297.314 151.438C297.426 151.438 297.552 151.578 297.552 151.704C297.552 151.942 297.034 152.264 296.684 152.264ZM301.393 145.488C301.393 143.766 303.031 143.136 305.075 143.136C307.133 143.136 308.785 143.766 308.785 145.488C308.785 147.21 307.133 147.826 305.075 147.826C303.031 147.826 301.393 147.21 301.393 145.488ZM308.281 150.892C308.519 150.892 308.841 151.144 308.841 151.326C308.841 151.452 308.799 151.634 308.799 152.012V153.384V153.412C308.799 153.636 308.603 153.958 308.281 153.958H302.555V155.162C302.555 155.372 302.653 155.484 302.863 155.484H308.575C308.841 155.484 309.009 155.414 309.135 155.414C309.247 155.414 309.373 155.554 309.373 155.68C309.373 155.904 308.911 156.24 308.575 156.24H302.527C301.911 156.24 301.589 155.834 301.589 155.274V154.378C301.589 153.944 301.547 153.804 300.987 153.734C300.679 153.692 300.791 153.202 301.029 153.202H307.833V151.732H302.947C302.513 151.732 302.219 151.802 301.995 151.802C301.757 151.802 301.449 151.648 301.127 151.298C300.903 151.074 301.141 150.752 301.393 150.864C301.631 150.976 302.205 150.976 302.947 150.976H307.301C307.903 150.976 308.071 150.892 308.281 150.892ZM302.387 145.502C302.387 146.664 303.619 147.07 305.075 147.07C306.573 147.07 307.805 146.664 307.805 145.502C307.805 144.312 306.573 143.892 305.075 143.892C303.619 143.892 302.387 144.312 302.387 145.502ZM299.181 149.184C298.971 148.96 299.195 148.61 299.447 148.736C299.685 148.848 300.259 148.848 301.001 148.848H310.381C310.633 148.848 310.745 148.792 310.871 148.792C311.039 148.792 311.109 148.89 311.109 149.058C311.109 149.338 310.787 149.618 310.381 149.618H301.001C300.567 149.618 300.273 149.688 300.049 149.688C299.811 149.688 299.503 149.534 299.181 149.184ZM320.187 144.55V148.204H321.923V144.522C321.923 143.864 321.811 143.696 321.097 143.514C320.831 143.444 320.971 142.954 321.265 142.996L322.637 143.206C322.931 143.248 322.903 143.416 322.903 143.514C322.903 143.626 322.847 143.864 322.847 144.256V154.742C322.847 155.288 322.665 155.778 322.259 155.778C322.077 155.778 321.923 155.568 321.923 155.078V148.96H320.187V154.196C320.187 154.742 320.005 155.232 319.613 155.232C319.431 155.232 319.277 155.022 319.277 154.532V151.298C318.493 151.69 317.625 151.97 316.659 152.11C316.197 152.18 315.903 151.914 315.777 151.55C315.133 151.872 314.377 152.054 313.509 152.11C312.893 152.152 312.571 151.704 312.571 151.144V146.37C312.571 145.88 312.529 145.726 312.053 145.656C311.745 145.614 311.871 145.11 312.095 145.11H314.181C314.447 145.11 314.545 145.054 314.671 145.054C314.783 145.054 314.909 145.194 314.909 145.32C314.909 145.544 314.489 145.88 314.181 145.88H313.495V150.948C313.495 151.158 313.593 151.27 313.803 151.27C314.377 151.27 315.063 151.172 315.721 150.976V146.37C315.721 145.88 315.693 145.726 315.301 145.656C314.993 145.6 315.119 145.11 315.343 145.11H317.765C318.031 145.11 318.129 145.054 318.255 145.054C318.367 145.054 318.493 145.194 318.493 145.32C318.493 145.544 318.073 145.88 317.765 145.88H316.645V150.948C316.645 151.158 316.743 151.284 316.953 151.27C317.695 151.2 318.451 151.004 319.277 150.71V144.802C319.277 144.172 319.193 144.004 318.507 143.822C318.255 143.752 318.381 143.276 318.675 143.318L319.977 143.5C320.271 143.542 320.243 143.71 320.243 143.808C320.243 143.92 320.187 144.158 320.187 144.55Z" fill="#ABB8CE"/>
<defs>
<filter id="filter0_d_1142_2219" x="0" y="0" width="336" height="144" filterUnits="userSpaceOnUse" color-interpolation-filters="sRGB">
<feFlood flood-opacity="0" result="BackgroundImageFix"/>
<feColorMatrix in="SourceAlpha" type="matrix" values="0 0 0 0 0 0 0 0 0 0 0 0 0 0 0 0 0 0 127 0" result="hardAlpha"/>
<feOffset dy="3"/>
<feGaussianBlur stdDeviation="6"/>
<feComposite in2="hardAlpha" operator="out"/>
<feColorMatrix type="matrix" values="0 0 0 0 0 0 0 0 0 0 0 0 0 0 0 0 0 0 0.04 0"/>
<feBlend mode="normal" in2="BackgroundImageFix" result="effect1_dropShadow_1142_2219"/>
<feBlend mode="normal" in="SourceGraphic" in2="effect1_dropShadow_1142_2219" result="shape"/>
</filter>
<clipPath id="clip0_1142_2219">
<rect x="12" y="9" width="312" height="120" rx="16" fill="white"/>
</clipPath>
</defs>
</svg>
