<svg width="664" height="205" viewBox="0 0 664 205" fill="none" xmlns="http://www.w3.org/2000/svg">
<g filter="url(#filter0_d_862_10799)">
<g clip-path="url(#clip0_862_10799)">
<rect x="12" y="9" width="640" height="148" rx="16" fill="white"/>
<line x1="12" y1="9.5" x2="652" y2="9.50006" stroke="#F2F2F2"/>
<line x1="12" y1="33.5" x2="652" y2="33.5001" stroke="#F2F2F2"/>
<line x1="12" y1="57.5" x2="652" y2="57.5001" stroke="#F2F2F2"/>
<line x1="12" y1="81.5" x2="652" y2="81.5001" stroke="#F2F2F2"/>
<line x1="12" y1="105.5" x2="652" y2="105.5" stroke="#F2F2F2"/>
<line x1="12" y1="129.5" x2="652" y2="129.5" stroke="#F2F2F2"/>
<line x1="12" y1="153.5" x2="652" y2="153.5" stroke="#F2F2F2"/>
<path d="M40.368 48.76C40.368 44.896 43.224 43.48 46.776 43.48C50.328 43.48 53.208 44.896 53.208 48.76C53.208 52.576 50.328 53.968 46.776 53.968C43.224 53.968 40.368 52.576 40.368 48.76ZM42.072 48.784C42.072 51.64 44.208 52.672 46.776 52.672C49.392 52.672 51.528 51.64 51.528 48.784C51.528 45.832 49.392 44.776 46.776 44.776C44.208 44.776 42.072 45.832 42.072 48.784ZM36.672 59.632C36.312 59.248 36.696 58.648 37.128 58.864C37.536 59.056 38.52 59.056 39.792 59.056H46.176V57.208C46.176 56.248 45.936 56.008 44.76 55.72C44.304 55.6 44.448 54.76 45.024 54.832L47.472 55.096C47.952 55.144 47.904 55.456 47.904 55.624C47.904 55.84 47.832 56.152 47.832 56.8V59.056H55.872C56.304 59.056 56.496 58.96 56.712 58.96C57 58.96 57.12 59.128 57.12 59.416C57.12 59.896 56.568 60.376 55.872 60.376H39.792C39.048 60.376 38.544 60.496 38.16 60.496C37.752 60.496 37.224 60.232 36.672 59.632ZM72.0574 44.824V49.312H75.3934V44.776C75.3934 43.648 74.9134 43.336 73.6894 43.024C73.2334 42.904 73.4734 42.064 73.9774 42.136L76.6414 42.52C77.1454 42.592 77.0974 42.88 77.0974 43.048C77.0974 43.24 77.0014 43.648 77.0014 44.32V56.008C77.0014 56.944 76.6654 57.784 75.9694 57.784C75.6574 57.784 75.3934 57.424 75.3934 56.584V50.608H72.0574V53.92C72.0574 54.856 71.7214 55.696 71.0494 55.696C70.7374 55.696 70.4734 55.336 70.4734 54.496V53.752C67.6414 54.568 64.6894 55.168 61.5454 55.168C60.4894 55.168 59.9374 54.472 59.9374 53.512V50.872C59.9374 50.056 59.6974 49.792 58.6654 49.648C58.1374 49.576 58.3534 48.712 58.7374 48.712H65.6014V45.376H62.3374C61.5934 45.376 61.0894 45.496 60.7054 45.496C60.2974 45.496 59.7694 45.232 59.2174 44.632C58.8574 44.248 59.2414 43.648 59.6734 43.864C60.0814 44.056 61.0654 44.056 62.3374 44.056H64.9774C65.7694 44.032 66.0334 43.912 66.3454 43.912C66.7534 43.912 67.3054 44.344 67.3054 44.656C67.3054 44.872 67.2334 45.184 67.2334 45.832V49.072C67.2334 49.48 66.7534 50.032 66.2254 50.032H61.5694V53.176C61.5694 53.536 61.7374 53.728 62.0974 53.728C64.9054 53.728 67.6894 53.344 70.4734 52.744V45.256C70.4734 44.176 70.0414 43.864 68.8654 43.552C68.4334 43.432 68.6494 42.616 69.1534 42.688L71.6974 43.024C72.2014 43.096 72.1534 43.384 72.1534 43.552C72.1534 43.744 72.0574 44.152 72.0574 44.824ZM72.0574 57.304C71.7214 58.12 71.3134 58.912 70.8334 59.656C73.2574 61.024 75.4174 62.152 77.3854 63.04C77.6974 63.304 78.1054 64 78.1054 64.552C78.1054 64.936 77.6974 65.296 77.2654 64.96C75.8014 63.88 73.4014 62.464 70.0654 60.688C68.5054 62.512 66.2254 64.048 62.9134 65.152C62.4094 65.32 61.8814 64.6 62.3374 64.408C65.7214 62.968 68.2414 60.904 69.8494 58.288C69.9934 57.64 69.5614 57.16 68.5534 56.872C68.1214 56.752 68.3134 55.888 68.8894 56.008L71.6734 56.632C72.1534 56.728 72.1294 57.136 72.0574 57.304ZM84.0188 61.048C84.0188 58.024 86.7548 56.896 90.0908 56.896C93.4028 56.896 96.1628 58.024 96.1628 61.048C96.1628 64.072 93.4028 65.176 90.0908 65.176C86.7548 65.176 84.0188 64.072 84.0188 61.048ZM95.2748 50.752H90.8108V53.728H99.0908C99.5228 53.728 99.7148 53.632 99.9308 53.632C100.219 53.632 100.339 53.8 100.339 54.088C100.339 54.568 99.7868 55.048 99.0908 55.048H83.0108C82.2668 55.048 81.7628 55.168 81.3788 55.168C80.9708 55.168 80.4428 54.904 79.8908 54.304C79.5308 53.92 79.9148 53.32 80.3468 53.536C80.7548 53.728 81.7388 53.728 83.0108 53.728H89.1548V50.752H85.6028C84.5468 50.752 83.9948 50.056 83.9948 49.096V45.544C83.9948 44.728 83.7548 44.464 82.7228 44.32C82.1948 44.248 82.4108 43.384 82.7948 43.384H94.9628C95.3948 43.384 95.5868 43.288 95.8028 43.288C95.9948 43.288 96.2108 43.528 96.2108 43.744C96.2108 44.152 95.4908 44.704 94.9628 44.704H85.6508V48.88C85.6508 49.24 85.8188 49.432 86.1788 49.432H95.2748C95.7068 49.432 95.8988 49.336 96.1148 49.336C96.3068 49.336 96.5228 49.576 96.5228 49.792C96.5228 50.2 95.8028 50.752 95.2748 50.752ZM85.7468 61.072C85.7468 63.136 87.7148 63.88 90.0908 63.88C92.5388 63.88 94.4588 63.136 94.4588 61.072C94.4588 58.96 92.5388 58.192 90.0908 58.192C87.7148 58.192 85.7468 58.96 85.7468 61.072ZM102.172 49.408C102.172 45.568 104.596 44.176 107.572 44.176C110.548 44.176 112.996 45.568 112.996 49.408C112.996 53.2 110.548 54.592 107.572 54.592C104.596 54.592 102.172 53.2 102.172 49.408ZM103.9 49.432C103.9 52.288 105.556 53.296 107.572 53.296C109.588 53.296 111.292 52.288 111.292 49.432C111.292 46.48 109.588 45.472 107.572 45.472C105.556 45.472 103.9 46.48 103.9 49.432ZM118.468 44.32V49.216H120.988C121.444 49.216 121.612 49.12 121.828 49.12C122.02 49.12 122.236 49.36 122.236 49.576C122.236 49.96 121.516 50.536 120.988 50.536H118.468V57.016C118.468 57.952 118.156 58.84 117.412 58.84C117.052 58.84 116.812 58.48 116.812 57.616V44.776C116.812 43.648 116.332 43.336 115.108 43.024C114.652 42.904 114.892 42.064 115.396 42.136L118.108 42.52C118.612 42.592 118.564 42.88 118.564 43.048C118.564 43.24 118.468 43.648 118.468 44.32ZM107.02 62.944V59.824C107.02 58.768 106.684 58.576 105.46 58.264C105.004 58.144 105.148 57.304 105.724 57.376L108.316 57.664C108.796 57.736 108.748 58.024 108.748 58.192C108.748 58.408 108.676 58.72 108.676 59.368V62.728C108.676 63.088 108.844 63.28 109.204 63.28H118.228C118.684 63.28 118.972 63.16 119.188 63.16C119.38 63.16 119.596 63.4 119.596 63.616C119.596 64.024 118.804 64.6 118.228 64.6H108.628C107.572 64.6 107.02 63.904 107.02 62.944ZM133.964 63.208V59.128C133.964 58.288 133.868 58.072 132.932 57.904C132.404 57.832 132.62 56.968 133.004 56.968H139.1V52.696H132.956C132.212 52.696 131.708 52.816 131.324 52.816C130.916 52.816 130.388 52.552 129.836 51.952C129.476 51.568 129.86 50.968 130.292 51.184C130.7 51.376 131.684 51.376 132.956 51.376H135.476C136.148 49.24 136.604 46.984 136.916 44.704H134.9C134.156 44.704 133.652 44.824 133.268 44.824C132.86 44.824 132.332 44.56 131.78 43.96C131.42 43.576 131.804 42.976 132.236 43.192C132.644 43.384 133.628 43.384 134.9 43.384H136.22C137.228 43.384 137.588 43.24 137.924 43.24C138.332 43.24 138.86 43.672 138.86 43.984C138.86 44.2 138.836 44.464 138.812 44.92C138.38 47.224 137.66 49.384 136.604 51.376H144.788C145.292 49.24 145.628 46.984 145.772 44.704H142.7C141.956 44.704 141.452 44.824 141.068 44.824C140.66 44.824 140.132 44.56 139.58 43.96C139.22 43.576 139.604 42.976 140.036 43.192C140.444 43.384 141.428 43.384 142.7 43.384H145.076C146.084 43.384 146.444 43.24 146.78 43.24C147.188 43.24 147.716 43.672 147.716 43.984C147.716 44.2 147.692 44.44 147.668 44.92C147.428 47.152 146.804 49.312 145.892 51.376H149.036C149.468 51.376 149.66 51.28 149.876 51.28C150.164 51.28 150.284 51.448 150.284 51.736C150.284 52.216 149.732 52.696 149.036 52.696H140.756V56.968H143.54C144.572 56.968 144.86 56.824 145.22 56.824C145.628 56.824 146.18 57.256 146.18 57.568C146.18 57.784 146.108 58.096 146.108 58.744V63.856V63.904C146.108 64.312 145.652 64.864 145.1 64.864H135.572C134.516 64.864 133.964 64.168 133.964 63.208ZM136.148 63.544H144.452V58.288H135.62V62.992C135.62 63.352 135.788 63.544 136.148 63.544ZM155.237 46.408C155.237 43.456 158.045 42.376 161.549 42.376C165.077 42.376 167.909 43.456 167.909 46.408C167.909 49.36 165.077 50.416 161.549 50.416C158.045 50.416 155.237 49.36 155.237 46.408ZM167.045 55.672C167.453 55.672 168.005 56.104 168.005 56.416C168.005 56.632 167.933 56.944 167.933 57.592V59.944V59.992C167.933 60.376 167.597 60.928 167.045 60.928H157.229V62.992C157.229 63.352 157.397 63.544 157.757 63.544H167.549C168.005 63.544 168.293 63.424 168.509 63.424C168.701 63.424 168.917 63.664 168.917 63.88C168.917 64.264 168.125 64.84 167.549 64.84H157.181C156.125 64.84 155.573 64.144 155.573 63.184V61.648C155.573 60.904 155.501 60.664 154.541 60.544C154.013 60.472 154.205 59.632 154.613 59.632H166.277V57.112H157.901C157.157 57.112 156.653 57.232 156.269 57.232C155.861 57.232 155.333 56.968 154.781 56.368C154.397 55.984 154.805 55.432 155.237 55.624C155.645 55.816 156.629 55.816 157.901 55.816H165.365C166.397 55.816 166.685 55.672 167.045 55.672ZM156.941 46.432C156.941 48.424 159.053 49.12 161.549 49.12C164.117 49.12 166.229 48.424 166.229 46.432C166.229 44.392 164.117 43.672 161.549 43.672C159.053 43.672 156.941 44.392 156.941 46.432ZM151.445 52.744C151.085 52.36 151.469 51.76 151.901 51.976C152.309 52.168 153.293 52.168 154.565 52.168H170.645C171.077 52.168 171.269 52.072 171.485 52.072C171.773 52.072 171.893 52.24 171.893 52.528C171.893 53.008 171.341 53.488 170.645 53.488H154.565C153.821 53.488 153.317 53.608 152.933 53.608C152.525 53.608 151.997 53.344 151.445 52.744ZM196.629 46.456C196.293 50.704 195.501 54.64 194.301 58.336H198.981C199.413 58.336 199.605 58.24 199.821 58.24C200.109 58.24 200.229 58.408 200.229 58.696C200.229 59.176 199.677 59.656 198.981 59.656H182.901C182.157 59.656 181.653 59.776 181.269 59.776C180.861 59.776 180.333 59.512 179.781 58.912C179.421 58.528 179.805 57.928 180.237 58.144C180.645 58.336 181.629 58.336 182.901 58.336H193.245C194.013 54.4 194.469 50.272 194.685 46H185.613C184.869 46 184.365 46.12 183.981 46.12C183.573 46.12 183.045 45.856 182.493 45.256C182.133 44.872 182.517 44.272 182.949 44.488C183.357 44.68 184.341 44.68 185.613 44.68H193.989C194.997 44.68 195.405 44.536 195.741 44.536C196.149 44.536 196.701 44.968 196.701 45.28C196.701 45.496 196.653 45.808 196.629 46.456ZM211.687 52.216H205.519V56.56C205.519 56.92 205.687 57.112 206.047 57.112C210.127 57.112 213.871 56.728 217.903 55.696V44.776C217.903 43.648 217.423 43.336 216.199 43.024C215.743 42.904 215.983 42.064 216.487 42.136L219.199 42.52C219.703 42.592 219.655 42.88 219.655 43.048C219.655 43.24 219.559 43.648 219.559 44.32V62.248C219.559 63.184 219.247 64.072 218.503 64.072C218.143 64.072 217.903 63.712 217.903 62.848V56.704C213.799 57.928 209.839 58.48 205.471 58.552C204.415 58.576 203.863 57.856 203.863 56.896V53.056C203.863 52.24 203.623 51.976 202.591 51.832C202.063 51.76 202.279 50.896 202.663 50.896H211.039V46.336H206.263C205.519 46.336 205.015 46.456 204.631 46.456C204.223 46.456 203.695 46.192 203.143 45.592C202.783 45.208 203.167 44.608 203.599 44.824C204.007 45.016 204.991 45.016 206.263 45.016H210.127C211.135 45.016 211.471 44.872 211.807 44.872C212.215 44.872 212.767 45.304 212.767 45.616C212.767 45.832 212.695 46.144 212.695 46.792V51.208V51.256C212.695 51.664 212.215 52.216 211.687 52.216ZM238.456 51.232H228.616C227.56 51.232 227.008 50.536 227.008 49.576V45.88C227.008 44.92 226.744 44.704 225.52 44.392C225.064 44.272 225.208 43.432 225.784 43.504L228.304 43.768C228.784 43.816 228.736 44.128 228.736 44.296C228.736 44.512 228.664 44.824 228.664 45.472V49.36C228.664 49.72 228.832 49.912 229.192 49.912H238.456C238.888 49.912 239.08 49.816 239.296 49.816C239.488 49.816 239.704 50.056 239.704 50.272C239.704 50.68 238.984 51.232 238.456 51.232ZM223 54.928C222.64 54.544 223.024 53.944 223.456 54.16C223.864 54.352 224.848 54.352 226.12 54.352H242.2C242.632 54.352 242.824 54.256 243.04 54.256C243.328 54.256 243.448 54.424 243.448 54.712C243.448 55.192 242.896 55.672 242.2 55.672H226.12C225.376 55.672 224.872 55.792 224.488 55.792C224.08 55.792 223.552 55.528 223 54.928ZM227.536 62.944V60.4C227.536 59.344 227.2 59.152 225.976 58.84C225.52 58.72 225.664 57.88 226.24 57.952L228.832 58.24C229.312 58.312 229.264 58.6 229.264 58.768C229.264 58.984 229.192 59.296 229.192 59.944V62.728C229.192 63.088 229.36 63.28 229.72 63.28H238.984C239.44 63.28 239.728 63.16 239.944 63.16C240.136 63.16 240.352 63.4 240.352 63.616C240.352 64.024 239.56 64.6 238.984 64.6H229.144C228.088 64.6 227.536 63.904 227.536 62.944ZM270.824 51.928H268.304V62.248C268.304 63.184 267.992 64.072 267.248 64.072C266.888 64.072 266.648 63.712 266.648 62.848V44.776C266.648 43.648 266.168 43.336 264.944 43.024C264.488 42.904 264.728 42.064 265.232 42.136L267.944 42.52C268.448 42.592 268.4 42.88 268.4 43.048C268.4 43.24 268.304 43.648 268.304 44.32V50.608H270.824C271.28 50.608 271.448 50.512 271.664 50.512C271.856 50.512 272.072 50.752 272.072 50.968C272.072 51.352 271.352 51.928 270.824 51.928ZM263.48 56.92C263.408 57.28 262.952 57.592 262.592 57.208C261.08 55.432 259.04 53.512 257.096 51.856C255.848 54.184 254.192 56.2 252.104 57.808C251.72 58.144 251.096 57.568 251.408 57.184C254.384 54.112 256.472 50.416 257.408 46.384C257.408 45.64 256.928 45.304 255.872 44.92C255.44 44.728 255.632 43.936 256.208 44.056L258.992 44.704C259.472 44.8 259.4 45.208 259.376 45.376C258.992 47.248 258.44 49.024 257.696 50.632C259.352 52.192 261.272 53.872 263.024 55.24C263.288 55.528 263.552 56.344 263.48 56.92ZM288.761 64.84H279.593C278.537 64.84 277.985 64.144 277.985 63.184V59.416C277.985 58.576 277.889 58.36 276.953 58.192C276.425 58.12 276.641 57.256 277.025 57.256H287.489C288.281 57.232 288.545 57.112 288.881 57.112C289.289 57.112 289.841 57.544 289.841 57.856C289.841 58.072 289.769 58.384 289.769 59.032V63.88C289.769 64.288 289.313 64.84 288.761 64.84ZM289.913 44.32V48.832H292.433C292.889 48.832 293.057 48.736 293.273 48.736C293.465 48.736 293.681 48.976 293.681 49.192C293.681 49.576 292.961 50.152 292.433 50.152H289.913V54.208C289.913 55.144 289.601 56.032 288.857 56.032C288.497 56.032 288.257 55.672 288.257 54.808V52.84C283.745 54.136 279.833 54.784 276.185 54.832C275.129 54.856 274.577 54.136 274.577 53.176V50.776C274.577 49.96 274.337 49.696 273.305 49.552C272.777 49.48 272.993 48.616 273.377 48.616H282.281V45.496H276.977C276.233 45.496 275.729 45.616 275.345 45.616C274.937 45.616 274.409 45.352 273.857 44.752C273.497 44.368 273.881 43.768 274.313 43.984C274.721 44.176 275.705 44.176 276.977 44.176H281.369C282.377 44.176 282.713 44.032 283.049 44.032C283.457 44.032 284.009 44.464 284.009 44.776C284.009 44.992 283.937 45.304 283.937 45.952V48.976C283.937 49.384 283.457 49.936 282.929 49.936H276.233V52.84C276.233 53.2 276.401 53.392 276.761 53.392C280.121 53.464 283.721 52.96 288.257 51.832V44.776C288.257 43.648 287.777 43.336 286.553 43.024C286.097 42.904 286.337 42.064 286.841 42.136L289.553 42.52C290.057 42.592 290.009 42.88 290.009 43.048C290.009 43.24 289.913 43.648 289.913 44.32ZM279.641 62.968C279.641 63.328 279.809 63.52 280.169 63.52H288.113V58.576H279.641V62.968ZM298.347 47.488C298.347 44.2 301.155 43 304.659 43C308.187 43 311.019 44.2 311.019 47.488C311.019 50.752 308.187 51.928 304.659 51.928C301.155 51.928 298.347 50.752 298.347 47.488ZM300.051 47.512C300.051 49.816 302.163 50.632 304.659 50.632C307.227 50.632 309.339 49.816 309.339 47.512C309.339 45.136 307.227 44.296 304.659 44.296C302.163 44.296 300.051 45.136 300.051 47.512ZM294.555 54.976C294.195 54.592 294.579 53.992 295.011 54.208C295.419 54.4 296.403 54.4 297.675 54.4H313.755C314.187 54.4 314.379 54.304 314.595 54.304C314.883 54.304 315.003 54.472 315.003 54.76C315.003 55.24 314.451 55.72 313.755 55.72H297.675C296.931 55.72 296.427 55.84 296.043 55.84C295.635 55.84 295.107 55.576 294.555 54.976ZM299.091 62.944V60.304C299.091 59.248 298.755 59.056 297.531 58.744C297.075 58.624 297.219 57.784 297.795 57.856L300.387 58.144C300.867 58.216 300.819 58.504 300.819 58.672C300.819 58.888 300.747 59.2 300.747 59.848V62.728C300.747 63.088 300.915 63.28 301.275 63.28H310.539C310.995 63.28 311.283 63.16 311.499 63.16C311.691 63.16 311.907 63.4 311.907 63.616C311.907 64.024 311.115 64.6 310.539 64.6H300.699C299.643 64.6 299.091 63.904 299.091 62.944ZM333.067 57.256H325.699C324.643 57.256 324.091 56.56 324.091 55.6V47.656C324.091 46.816 323.995 46.6 323.059 46.432C322.531 46.36 322.747 45.496 323.131 45.496H331.795C332.587 45.472 332.851 45.352 333.187 45.352C333.595 45.352 334.147 45.784 334.147 46.096C334.147 46.312 334.075 46.624 334.075 47.272V56.296C334.075 56.704 333.619 57.256 333.067 57.256ZM325.747 55.384C325.747 55.744 325.915 55.936 326.275 55.936H332.419V46.816H325.747V55.384ZM342.379 52.168H339.859V62.248C339.859 63.184 339.547 64.072 338.803 64.072C338.443 64.072 338.203 63.712 338.203 62.848V44.776C338.203 43.648 337.723 43.336 336.499 43.024C336.043 42.904 336.283 42.064 336.787 42.136L339.499 42.52C340.003 42.592 339.955 42.88 339.955 43.048C339.955 43.24 339.859 43.648 339.859 44.32V50.848H342.379C342.835 50.848 343.003 50.752 343.219 50.752C343.411 50.752 343.627 50.992 343.627 51.208C343.627 51.592 342.907 52.168 342.379 52.168ZM361.516 64.84H352.108C351.052 64.84 350.5 64.144 350.5 63.184V59.416C350.5 58.576 350.404 58.36 349.468 58.192C348.94 58.12 349.156 57.256 349.54 57.256H359.956C360.988 57.256 361.276 57.112 361.636 57.112C362.044 57.112 362.596 57.544 362.596 57.856C362.596 58.072 362.524 58.384 362.524 59.032V63.832V63.88C362.524 64.288 362.068 64.84 361.516 64.84ZM352.156 62.968C352.156 63.328 352.324 63.52 352.684 63.52H360.868V58.576H352.156V62.968ZM357.892 54.88C357.844 55.216 357.388 55.528 357.004 55.168C355.852 54.136 354.292 52.984 352.372 51.664C350.644 53.128 348.508 54.352 346.012 55.336C345.556 55.528 345.028 54.808 345.46 54.592C349.324 52.696 352.18 50.296 353.98 47.32H349.348C348.604 47.32 348.1 47.44 347.716 47.44C347.308 47.44 346.78 47.176 346.228 46.576C345.868 46.192 346.252 45.592 346.684 45.808C347.092 46 348.076 46 349.348 46H353.452C354.46 46 354.844 45.856 355.18 45.856C355.588 45.856 356.14 46.336 356.14 46.6C356.14 46.864 355.924 47.32 355.684 47.752C355.036 48.856 354.268 49.864 353.332 50.8C354.772 51.808 356.14 52.672 357.46 53.392C357.724 53.68 357.94 54.328 357.892 54.88ZM362.668 44.32V54.208C362.668 55.144 362.356 56.032 361.612 56.032C361.252 56.032 361.012 55.672 361.012 54.808V44.776C361.012 43.648 360.532 43.336 359.308 43.024C358.852 42.904 359.092 42.064 359.596 42.136L362.308 42.52C362.812 42.592 362.764 42.88 362.764 43.048C362.764 43.24 362.668 43.648 362.668 44.32ZM351.412 44.416C350.236 44.416 349.348 44.44 348.34 43.504C347.956 43.144 348.34 42.496 348.796 42.688C349.204 42.88 349.804 43 351.412 43H353.956C354.148 43 354.34 43.288 354.34 43.552C354.34 43.96 353.404 44.416 351.412 44.416ZM379.646 44.824V50.584H383.222V44.776C383.222 43.648 382.742 43.336 381.518 43.024C381.062 42.904 381.302 42.064 381.806 42.136L384.47 42.52C384.974 42.592 384.926 42.88 384.926 43.048C384.926 43.24 384.83 43.648 384.83 44.32V62.272C384.83 63.208 384.494 64.048 383.798 64.048C383.486 64.048 383.222 63.688 383.222 62.848V51.88H379.646V61.336C379.646 62.272 379.31 63.112 378.638 63.112C378.326 63.112 378.062 62.752 378.062 61.912V56.248C375.182 57.208 372.446 57.64 369.278 57.64C368.222 57.64 367.67 56.944 367.67 55.984V47.848C367.67 47.056 367.646 46.696 366.422 46.384C365.99 46.264 366.11 45.448 366.686 45.52L368.942 45.76C369.422 45.832 369.374 46.12 369.374 46.288C369.374 46.504 369.302 46.816 369.302 47.464V55.648C369.302 56.008 369.47 56.2 369.83 56.2C372.806 56.2 375.302 55.984 378.062 55.24V45.256C378.062 44.176 377.63 43.864 376.454 43.552C376.022 43.432 376.238 42.616 376.742 42.688L379.286 43.024C379.79 43.096 379.742 43.384 379.742 43.552C379.742 43.744 379.646 44.152 379.646 44.824ZM411.293 46.456C410.957 50.704 410.165 54.64 408.965 58.336H413.645C414.077 58.336 414.269 58.24 414.485 58.24C414.773 58.24 414.893 58.408 414.893 58.696C414.893 59.176 414.341 59.656 413.645 59.656H397.565C396.821 59.656 396.317 59.776 395.933 59.776C395.525 59.776 394.997 59.512 394.445 58.912C394.085 58.528 394.469 57.928 394.901 58.144C395.309 58.336 396.293 58.336 397.565 58.336H407.909C408.677 54.4 409.133 50.272 409.349 46H400.277C399.533 46 399.029 46.12 398.645 46.12C398.237 46.12 397.709 45.856 397.157 45.256C396.797 44.872 397.181 44.272 397.613 44.488C398.021 44.68 399.005 44.68 400.277 44.68H408.653C409.661 44.68 410.069 44.536 410.405 44.536C410.813 44.536 411.365 44.968 411.365 45.28C411.365 45.496 411.317 45.808 411.293 46.456ZM426.909 63.208V59.128C426.909 58.288 426.813 58.072 425.877 57.904C425.349 57.832 425.565 56.968 425.949 56.968H432.045V52.696H425.901C425.157 52.696 424.653 52.816 424.269 52.816C423.861 52.816 423.333 52.552 422.781 51.952C422.421 51.568 422.805 50.968 423.237 51.184C423.645 51.376 424.629 51.376 425.901 51.376H428.421C429.093 49.24 429.549 46.984 429.861 44.704H427.845C427.101 44.704 426.597 44.824 426.213 44.824C425.805 44.824 425.277 44.56 424.725 43.96C424.365 43.576 424.749 42.976 425.181 43.192C425.589 43.384 426.573 43.384 427.845 43.384H429.165C430.173 43.384 430.533 43.24 430.869 43.24C431.277 43.24 431.805 43.672 431.805 43.984C431.805 44.2 431.781 44.464 431.757 44.92C431.325 47.224 430.605 49.384 429.549 51.376H437.733C438.237 49.24 438.573 46.984 438.717 44.704H435.645C434.901 44.704 434.397 44.824 434.013 44.824C433.605 44.824 433.077 44.56 432.525 43.96C432.165 43.576 432.549 42.976 432.981 43.192C433.389 43.384 434.373 43.384 435.645 43.384H438.021C439.029 43.384 439.389 43.24 439.725 43.24C440.133 43.24 440.661 43.672 440.661 43.984C440.661 44.2 440.637 44.44 440.613 44.92C440.373 47.152 439.749 49.312 438.837 51.376H441.981C442.413 51.376 442.605 51.28 442.821 51.28C443.109 51.28 443.229 51.448 443.229 51.736C443.229 52.216 442.677 52.696 441.981 52.696H433.701V56.968H436.485C437.517 56.968 437.805 56.824 438.165 56.824C438.573 56.824 439.125 57.256 439.125 57.568C439.125 57.784 439.053 58.096 439.053 58.744V63.856V63.904C439.053 64.312 438.597 64.864 438.045 64.864H428.517C427.461 64.864 426.909 64.168 426.909 63.208ZM429.093 63.544H437.397V58.288H428.565V62.992C428.565 63.352 428.733 63.544 429.093 63.544ZM448.183 46.408C448.183 43.456 450.991 42.376 454.495 42.376C458.023 42.376 460.855 43.456 460.855 46.408C460.855 49.36 458.023 50.416 454.495 50.416C450.991 50.416 448.183 49.36 448.183 46.408ZM459.991 55.672C460.399 55.672 460.951 56.104 460.951 56.416C460.951 56.632 460.879 56.944 460.879 57.592V59.944V59.992C460.879 60.376 460.543 60.928 459.991 60.928H450.175V62.992C450.175 63.352 450.343 63.544 450.703 63.544H460.495C460.951 63.544 461.239 63.424 461.455 63.424C461.647 63.424 461.863 63.664 461.863 63.88C461.863 64.264 461.071 64.84 460.495 64.84H450.127C449.071 64.84 448.519 64.144 448.519 63.184V61.648C448.519 60.904 448.447 60.664 447.487 60.544C446.959 60.472 447.151 59.632 447.559 59.632H459.223V57.112H450.847C450.103 57.112 449.599 57.232 449.215 57.232C448.807 57.232 448.279 56.968 447.727 56.368C447.343 55.984 447.751 55.432 448.183 55.624C448.591 55.816 449.575 55.816 450.847 55.816H458.311C459.343 55.816 459.631 55.672 459.991 55.672ZM449.887 46.432C449.887 48.424 451.999 49.12 454.495 49.12C457.063 49.12 459.175 48.424 459.175 46.432C459.175 44.392 457.063 43.672 454.495 43.672C451.999 43.672 449.887 44.392 449.887 46.432ZM444.391 52.744C444.031 52.36 444.415 51.76 444.847 51.976C445.255 52.168 446.239 52.168 447.511 52.168H463.591C464.023 52.168 464.215 52.072 464.431 52.072C464.719 52.072 464.839 52.24 464.839 52.528C464.839 53.008 464.287 53.488 463.591 53.488H447.511C446.767 53.488 446.263 53.608 445.879 53.608C445.471 53.608 444.943 53.344 444.391 52.744ZM489.695 44.32V47.992H492.215C492.671 47.992 492.839 47.896 493.055 47.896C493.247 47.896 493.463 48.136 493.463 48.352C493.463 48.736 492.743 49.312 492.215 49.312H489.695V52.624C489.695 53.56 489.383 54.448 488.639 54.448C488.279 54.448 488.039 54.088 488.039 53.224V50.92C483.527 52.216 479.423 52.864 475.775 52.912C474.719 52.936 474.167 52.216 474.167 51.256V46.288C474.167 45.448 473.927 45.232 472.895 45.064C472.367 44.992 472.583 44.128 472.967 44.128H482.807C483.263 44.128 483.431 44.032 483.647 44.032C483.839 44.032 484.055 44.272 484.055 44.488C484.055 44.872 483.335 45.448 482.807 45.448H475.823V50.92C475.823 51.28 475.991 51.472 476.351 51.472C479.711 51.544 483.503 51.04 488.039 49.912V44.776C488.039 43.648 487.559 43.336 486.335 43.024C485.879 42.904 486.119 42.064 486.623 42.136L489.335 42.52C489.839 42.592 489.791 42.88 489.791 43.048C489.791 43.24 489.695 43.648 489.695 44.32ZM488.687 64.84H484.919C483.863 64.84 483.311 64.144 483.311 63.184V57.4C483.311 56.632 483.167 56.416 482.519 56.296C481.991 56.224 482.183 55.48 482.591 55.48H487.151C488.183 55.48 488.447 55.336 488.807 55.336C489.215 55.336 489.767 55.768 489.767 56.08C489.767 56.296 489.695 56.608 489.695 57.256V63.88C489.695 64.288 489.239 64.84 488.687 64.84ZM480.743 55.336C481.151 55.336 481.703 55.768 481.703 56.08C481.703 56.296 481.631 56.608 481.631 57.256V59.824C481.631 60.232 481.295 60.76 480.743 60.76H477.527V62.992C477.527 63.352 477.695 63.544 478.055 63.544C479.279 63.544 480.527 63.496 481.655 63.376C482.111 63.304 482.207 63.232 482.423 63.208C482.615 63.208 482.855 63.424 482.855 63.64C482.879 64.048 482.303 64.456 481.751 64.552C480.647 64.744 479.231 64.84 477.527 64.84C476.471 64.84 475.919 64.144 475.919 63.184V61.408C475.919 60.712 475.871 60.424 475.007 60.304C474.479 60.232 474.671 59.464 475.079 59.464H480.023V56.776H478.247C477.503 56.776 476.999 56.872 476.615 56.872C476.207 56.872 475.679 56.632 475.127 56.032C474.743 55.648 475.151 55.096 475.583 55.288C475.991 55.48 476.975 55.48 478.247 55.48H479.399C480.191 55.456 480.407 55.336 480.743 55.336ZM484.919 62.968C484.919 63.328 485.087 63.52 485.447 63.52H488.087V56.8H484.919V62.968ZM495.008 51.304C495.008 46.768 497.48 45.064 500.504 45.064C503.504 45.064 506 46.768 506 51.304C506 55.84 503.504 57.496 500.504 57.496C497.48 57.496 495.008 55.84 495.008 51.304ZM496.736 51.328C496.736 54.928 498.464 56.2 500.504 56.2C502.592 56.2 504.272 54.928 504.272 51.328C504.272 47.68 502.592 46.36 500.504 46.36C498.464 46.36 496.736 47.68 496.736 51.328ZM513.824 52.168H511.304V62.248C511.304 63.184 510.992 64.072 510.248 64.072C509.888 64.072 509.648 63.712 509.648 62.848V44.776C509.648 43.648 509.168 43.336 507.944 43.024C507.488 42.904 507.728 42.064 508.232 42.136L510.944 42.52C511.448 42.592 511.4 42.88 511.4 43.048C511.4 43.24 511.304 43.648 511.304 44.32V50.848H513.824C514.28 50.848 514.448 50.752 514.664 50.752C514.856 50.752 515.072 50.992 515.072 51.208C515.072 51.592 514.352 52.168 513.824 52.168ZM522.888 55.264C527.448 53.104 530.472 49.96 531.96 45.808H527.136C526.392 45.808 525.888 45.928 525.504 45.928C525.096 45.928 524.568 45.664 524.016 45.064C523.656 44.68 524.04 44.08 524.472 44.296C524.88 44.488 525.864 44.488 527.136 44.488H531.312C532.32 44.488 532.752 44.344 533.088 44.344C533.496 44.344 534.048 44.776 534.048 45.088C534.048 45.352 533.856 45.736 533.688 46.24C532.104 50.752 528.696 54.112 523.392 56.056C522.912 56.224 522.432 55.48 522.888 55.264ZM539.64 44.32V49.696H542.16C542.592 49.696 542.784 49.6 543 49.6C543.192 49.6 543.408 49.84 543.408 50.056C543.408 50.464 542.688 51.016 542.16 51.016H539.64V56.776C539.64 57.712 539.304 58.6 538.584 58.6C538.248 58.6 537.984 58.24 537.984 57.376V44.776C537.984 43.672 537.48 43.336 536.28 43.024C535.824 42.904 536.04 42.064 536.568 42.136L539.28 42.52C539.784 42.592 539.736 42.88 539.736 43.048C539.736 43.24 539.64 43.648 539.64 44.32ZM528.192 62.944V59.584C528.192 58.552 527.856 58.336 526.632 58.024C526.176 57.904 526.32 57.064 526.896 57.136L529.488 57.424C529.968 57.472 529.92 57.784 529.92 57.952C529.92 58.168 529.848 58.48 529.848 59.128V62.728C529.848 63.088 530.016 63.28 530.376 63.28H539.4C539.856 63.28 540.144 63.16 540.36 63.16C540.552 63.16 540.768 63.4 540.768 63.616C540.768 64.024 539.952 64.6 539.4 64.6H529.8C528.744 64.6 528.192 63.904 528.192 62.944ZM547.377 55.504C547.377 55.864 547.545 56.056 547.905 56.056C551.265 56.128 555.057 55.624 559.593 54.496V44.776C559.593 43.648 559.113 43.336 557.889 43.024C557.433 42.904 557.673 42.064 558.177 42.136L560.889 42.52C561.393 42.592 561.345 42.88 561.345 43.048C561.345 43.24 561.249 43.648 561.249 44.32V50.848H563.769C564.225 50.848 564.393 50.752 564.609 50.752C564.801 50.752 565.017 50.992 565.017 51.208C565.017 51.592 564.297 52.168 563.769 52.168H561.249V62.248C561.249 63.184 560.937 64.072 560.193 64.072C559.833 64.072 559.593 63.712 559.593 62.848V55.504C555.081 56.8 550.977 57.448 547.329 57.496C546.273 57.52 545.721 56.8 545.721 55.84V47.656C545.721 46.816 545.481 46.6 544.449 46.432C543.921 46.36 544.137 45.496 544.521 45.496H554.361C554.817 45.496 554.985 45.4 555.201 45.4C555.393 45.4 555.609 45.64 555.609 45.856C555.609 46.24 554.889 46.816 554.361 46.816H547.377V55.504ZM568.147 62.104C567.379 62.104 566.779 61.504 566.779 60.784C566.779 60.016 567.403 59.44 568.147 59.44C568.891 59.44 569.539 59.992 569.539 60.784C569.539 61.528 568.939 62.104 568.147 62.104Z" fill="#373737"/>
<path d="M485.567 114.04H479.375C479.039 114.04 478.871 113.872 478.871 113.536V113.104C478.871 112.768 479.039 112.6 479.375 112.6H485.567C485.903 112.6 486.071 112.768 486.071 113.104V113.536C486.071 113.872 485.903 114.04 485.567 114.04ZM500.729 120.736C500.729 117.472 503.417 116.272 506.705 116.272C509.969 116.272 512.681 117.472 512.681 120.736C512.681 124 509.969 125.176 506.705 125.176C503.417 125.176 500.729 124 500.729 120.736ZM496.313 109.048C496.313 105.496 498.737 104.176 501.713 104.176C504.689 104.176 507.137 105.496 507.137 109.048C507.137 112.576 504.689 113.848 501.713 113.848C498.737 113.848 496.313 112.576 496.313 109.048ZM502.457 120.76C502.457 123.04 504.401 123.88 506.705 123.88C509.081 123.88 510.977 123.04 510.977 120.76C510.977 118.432 509.081 117.568 506.705 117.568C504.401 117.568 502.457 118.432 502.457 120.76ZM498.041 109.072C498.041 111.664 499.697 112.552 501.713 112.552C503.729 112.552 505.433 111.664 505.433 109.072C505.433 106.384 503.729 105.472 501.713 105.472C499.697 105.472 498.041 106.384 498.041 109.072ZM512.609 104.32V108.592H515.129C515.585 108.592 515.753 108.496 515.969 108.496C516.161 108.496 516.377 108.736 516.377 108.952C516.377 109.336 515.657 109.912 515.129 109.912H512.609V114.304C512.609 115.24 512.297 116.128 511.553 116.128C511.193 116.128 510.953 115.768 510.953 114.904V104.776C510.953 103.648 510.473 103.336 509.249 103.024C508.793 102.904 509.033 102.064 509.537 102.136L512.249 102.52C512.753 102.592 512.705 102.88 512.705 103.048C512.705 103.24 512.609 103.648 512.609 104.32ZM521.234 112.408V106.408C521.234 105.592 520.994 105.328 519.962 105.184C519.434 105.112 519.65 104.248 520.034 104.248H532.442C532.874 104.248 533.066 104.152 533.282 104.152C533.474 104.152 533.69 104.392 533.69 104.608C533.69 105.016 532.97 105.568 532.442 105.568H522.89V112.192C522.89 112.552 523.058 112.744 523.418 112.744H532.754C533.186 112.744 533.378 112.648 533.594 112.648C533.786 112.648 534.002 112.888 534.002 113.104C534.002 113.512 533.282 114.064 532.754 114.064H522.842C521.786 114.064 521.234 113.368 521.234 112.408ZM517.25 119.392C516.89 119.008 517.274 118.408 517.706 118.624C518.114 118.816 519.098 118.816 520.37 118.816H536.45C536.882 118.816 537.074 118.72 537.29 118.72C537.578 118.72 537.698 118.888 537.698 119.176C537.698 119.656 537.146 120.136 536.45 120.136H520.37C519.626 120.136 519.122 120.256 518.738 120.256C518.33 120.256 517.802 119.992 517.25 119.392ZM546.804 105.376C547.212 105.376 547.764 105.808 547.764 106.12C547.764 106.336 547.692 106.648 547.692 107.296V111.52V111.568C547.692 111.976 547.212 112.528 546.684 112.528H542.148V116.896C542.148 117.256 542.316 117.448 542.676 117.448C544.716 117.448 546.78 117.352 548.82 117.04C549.276 116.968 549.372 116.896 549.588 116.872C549.78 116.872 550.02 117.088 550.02 117.304C550.044 117.712 549.468 118.096 548.916 118.216C546.852 118.624 544.596 118.84 542.1 118.888C541.044 118.912 540.516 118.192 540.516 117.232V113.368C540.516 112.552 540.276 112.288 539.244 112.144C538.716 112.072 538.932 111.208 539.316 111.208H546.06V106.84H542.916C542.172 106.84 541.668 106.96 541.284 106.96C540.876 106.96 540.348 106.696 539.796 106.096C539.436 105.712 539.82 105.112 540.252 105.328C540.66 105.52 541.644 105.52 542.916 105.52H545.436C546.228 105.496 546.492 105.376 546.804 105.376ZM548.388 111.4C548.004 111.016 548.412 110.464 548.844 110.656C549.204 110.824 549.756 110.848 551.1 110.848H551.532V105.256C551.532 104.176 551.1 103.864 549.924 103.552C549.492 103.432 549.708 102.616 550.212 102.688L552.756 103.024C553.26 103.096 553.212 103.384 553.212 103.552C553.212 103.744 553.116 104.152 553.116 104.824V121.336C553.116 122.272 552.78 123.112 552.108 123.112C551.796 123.112 551.532 122.752 551.532 121.912V112.144H551.1C550.356 112.144 550.212 112.264 549.852 112.264C549.54 112.264 548.94 111.952 548.388 111.4ZM557.58 104.32V122.272C557.58 123.208 557.244 124.048 556.548 124.048C556.236 124.048 555.972 123.688 555.972 122.848V104.776C555.972 103.648 555.492 103.336 554.268 103.024C553.812 102.904 554.052 102.064 554.556 102.136L557.22 102.52C557.724 102.592 557.676 102.88 557.676 103.048C557.676 103.24 557.58 103.648 557.58 104.32ZM577.371 112.672H570.003C568.947 112.672 568.395 111.976 568.395 111.016V106.288C568.395 105.448 568.299 105.232 567.363 105.064C566.835 104.992 567.051 104.128 567.435 104.128H576.099C576.891 104.104 577.155 103.984 577.491 103.984C577.899 103.984 578.451 104.416 578.451 104.728C578.451 104.944 578.379 105.256 578.379 105.904V111.712C578.379 112.12 577.923 112.672 577.371 112.672ZM583.131 115.24C583.539 115.24 584.091 115.672 584.091 115.984C584.091 116.2 584.019 116.512 584.019 117.16V119.776C584.019 120.16 583.683 120.712 583.131 120.712H573.795V122.992C573.795 123.352 573.963 123.544 574.323 123.544H583.683C584.139 123.544 584.427 123.424 584.643 123.424C584.835 123.424 585.051 123.664 585.051 123.88C585.051 124.264 584.259 124.84 583.683 124.84H573.747C572.691 124.84 572.139 124.144 572.139 123.184V121.432C572.139 120.688 572.067 120.448 571.107 120.328C570.579 120.256 570.771 119.416 571.179 119.416H582.363V116.68H574.347C573.603 116.68 573.099 116.8 572.715 116.8C572.307 116.8 571.779 116.536 571.227 115.936C570.843 115.552 571.251 115 571.683 115.192C572.091 115.384 573.075 115.384 574.347 115.384H581.739C582.531 115.36 582.795 115.24 583.131 115.24ZM570.051 110.8C570.051 111.16 570.219 111.352 570.579 111.352H576.723V105.448H570.051V110.8ZM584.163 104.32V107.992H586.683C587.139 107.992 587.307 107.896 587.523 107.896C587.715 107.896 587.931 108.136 587.931 108.352C587.931 108.736 587.211 109.312 586.683 109.312H584.163V112.528C584.163 113.464 583.851 114.352 583.107 114.352C582.747 114.352 582.507 113.992 582.507 113.128V104.776C582.507 103.648 582.027 103.336 580.803 103.024C580.347 102.904 580.587 102.064 581.091 102.136L583.803 102.52C584.307 102.592 584.259 102.88 584.259 103.048C584.259 103.24 584.163 103.648 584.163 104.32ZM604.237 103.84C604.645 103.84 605.197 104.272 605.197 104.584C605.197 104.8 605.125 105.112 605.125 105.76V109.12V109.168C605.125 109.576 604.645 110.128 604.117 110.128H594.373V113.104C594.373 113.464 594.541 113.656 594.901 113.656H604.741C605.173 113.656 605.365 113.56 605.581 113.56C605.773 113.56 605.989 113.824 605.989 114.04C605.989 114.448 605.269 114.976 604.741 114.976H594.325C593.269 114.976 592.717 114.28 592.717 113.32V110.848C592.717 110.104 592.645 109.864 591.685 109.744C591.157 109.672 591.373 108.808 591.757 108.808H603.469V105.304H595.165C594.421 105.304 593.917 105.424 593.533 105.424C593.125 105.424 592.597 105.16 592.045 104.56C591.685 104.176 592.069 103.576 592.501 103.792C592.909 103.984 593.893 103.984 595.165 103.984H602.845C603.637 103.96 603.925 103.84 604.237 103.84ZM588.805 119.872C588.445 119.488 588.829 118.888 589.261 119.104C589.669 119.296 590.653 119.296 591.925 119.296H598.309V118.024C598.309 117.064 598.069 116.824 596.893 116.536C596.437 116.416 596.581 115.576 597.157 115.648L599.605 115.912C600.085 115.96 600.037 116.272 600.037 116.44C600.037 116.656 599.965 116.968 599.965 117.616V119.296H608.005C608.437 119.296 608.629 119.2 608.845 119.2C609.133 119.2 609.253 119.368 609.253 119.656C609.253 120.136 608.701 120.616 608.005 120.616H591.925C591.181 120.616 590.677 120.736 590.293 120.736C589.885 120.736 589.357 120.472 588.805 119.872ZM625.325 114.04H619.133C618.797 114.04 618.629 113.872 618.629 113.536V113.104C618.629 112.768 618.797 112.6 619.133 112.6H625.325C625.661 112.6 625.829 112.768 625.829 113.104V113.536C625.829 113.872 625.661 114.04 625.325 114.04Z" fill="#ABB8CE"/>
</g>
<rect x="12.5" y="9.5" width="639" height="147" rx="15.5" stroke="#F2F2F2"/>
</g>
<path d="M314.22 188.32H311.892L310.812 192.496C310.716 192.832 310.5 193 310.164 193H309.588C309.252 193 309.132 192.832 309.228 192.496L310.308 188.32H306.948L305.868 192.496C305.772 192.832 305.556 193 305.22 193H304.644C304.308 193 304.188 192.832 304.284 192.496L305.364 188.32H303.42C303.084 188.32 302.892 188.152 302.988 187.84L303.132 187.36C303.228 187.072 303.348 187 303.684 187H305.7L306.612 183.424H304.356C304.02 183.424 303.828 183.256 303.924 182.944L304.068 182.464C304.164 182.176 304.284 182.104 304.62 182.104H306.948L308.052 177.904C308.148 177.568 308.364 177.4 308.7 177.4H309.276C309.612 177.4 309.732 177.568 309.636 177.904L308.532 182.104H311.892L312.996 177.904C313.092 177.568 313.308 177.4 313.644 177.4H314.22C314.556 177.4 314.676 177.568 314.58 177.904L313.476 182.104H315.42C315.756 182.104 315.948 182.272 315.852 182.584L315.708 183.064C315.612 183.352 315.492 183.424 315.156 183.424H313.14L312.228 187H314.484C314.82 187 315.012 187.168 314.916 187.48L314.772 187.96C314.676 188.248 314.556 188.32 314.22 188.32ZM308.196 183.424L307.284 187H310.644L311.556 183.424H308.196ZM319.696 179.584C319.696 178.624 319.432 178.408 318.208 178.096C317.752 177.976 317.896 177.136 318.472 177.208L320.992 177.472C321.472 177.544 321.424 177.832 321.424 178C321.424 178.216 321.352 178.528 321.352 179.176V187.456C321.352 187.816 321.52 188.008 321.88 188.008C325.24 188.08 328.792 187.576 333.328 186.448V176.776C333.328 175.648 332.848 175.336 331.624 175.024C331.168 174.904 331.408 174.064 331.912 174.136L334.624 174.52C335.128 174.592 335.08 174.88 335.08 175.048C335.08 175.24 334.984 175.648 334.984 176.32V182.368H337.504C337.96 182.368 338.128 182.272 338.344 182.272C338.536 182.272 338.752 182.512 338.752 182.728C338.752 183.112 338.032 183.688 337.504 183.688H334.984V194.248C334.984 195.184 334.672 196.072 333.928 196.072C333.568 196.072 333.328 195.712 333.328 194.848V187.456C328.792 188.776 325.024 189.376 321.304 189.448C320.248 189.472 319.696 188.752 319.696 187.792V179.584ZM340.297 183.304C340.297 178.768 342.769 177.064 345.793 177.064C348.793 177.064 351.289 178.768 351.289 183.304C351.289 187.84 348.793 189.496 345.793 189.496C342.769 189.496 340.297 187.84 340.297 183.304ZM342.025 183.328C342.025 186.928 343.753 188.2 345.793 188.2C347.881 188.2 349.561 186.928 349.561 183.328C349.561 179.68 347.881 178.36 345.793 178.36C343.753 178.36 342.025 179.68 342.025 183.328ZM359.113 184.168H356.593V194.248C356.593 195.184 356.281 196.072 355.537 196.072C355.177 196.072 354.937 195.712 354.937 194.848V176.776C354.937 175.648 354.457 175.336 353.233 175.024C352.777 174.904 353.017 174.064 353.521 174.136L356.233 174.52C356.737 174.592 356.689 174.88 356.689 175.048C356.689 175.24 356.593 175.648 356.593 176.32V182.848H359.113C359.569 182.848 359.737 182.752 359.953 182.752C360.145 182.752 360.361 182.992 360.361 183.208C360.361 183.592 359.641 184.168 359.113 184.168ZM380.723 184.888H378.203V194.248C378.203 195.184 377.891 196.072 377.147 196.072C376.787 196.072 376.547 195.712 376.547 194.848V176.776C376.547 175.648 376.067 175.336 374.843 175.024C374.387 174.904 374.627 174.064 375.131 174.136L377.843 174.52C378.347 174.592 378.299 174.88 378.299 175.048C378.299 175.24 378.203 175.648 378.203 176.32V183.568H380.723C381.179 183.568 381.347 183.472 381.563 183.472C381.755 183.472 381.971 183.712 381.971 183.928C381.971 184.312 381.251 184.888 380.723 184.888ZM361.259 189.952C366.011 187.36 369.131 183.472 370.787 178.696H365.195C364.451 178.696 363.947 178.816 363.562 178.816C363.155 178.816 362.627 178.552 362.075 177.952C361.715 177.568 362.099 176.968 362.531 177.184C362.939 177.376 363.923 177.376 365.195 177.376H370.139C371.147 177.376 371.531 177.232 371.867 177.232C372.275 177.232 372.827 177.664 372.827 177.976C372.827 178.24 372.635 178.624 372.515 179.128C370.811 184.384 367.187 188.248 361.763 190.744C361.283 190.96 360.803 190.192 361.259 189.952ZM383.516 183.304C383.516 178.768 385.988 177.064 389.012 177.064C392.012 177.064 394.508 178.768 394.508 183.304C394.508 187.84 392.012 189.496 389.012 189.496C385.988 189.496 383.516 187.84 383.516 183.304ZM385.244 183.328C385.244 186.928 386.972 188.2 389.012 188.2C391.1 188.2 392.78 186.928 392.78 183.328C392.78 179.68 391.1 178.36 389.012 178.36C386.972 178.36 385.244 179.68 385.244 183.328ZM402.332 187.744H399.812V194.248C399.812 195.184 399.5 196.072 398.756 196.072C398.396 196.072 398.156 195.712 398.156 194.848V176.776C398.156 175.648 397.676 175.336 396.452 175.024C395.996 174.904 396.236 174.064 396.74 174.136L399.452 174.52C399.956 174.592 399.908 174.88 399.908 175.048C399.908 175.24 399.812 175.648 399.812 176.32V180.424H402.332C402.788 180.424 402.956 180.328 403.172 180.328C403.364 180.328 403.58 180.568 403.58 180.784C403.58 181.168 402.86 181.744 402.332 181.744H399.812V186.424H402.332C402.788 186.424 402.956 186.328 403.172 186.328C403.364 186.328 403.58 186.568 403.58 186.784C403.58 187.168 402.86 187.744 402.332 187.744ZM406.061 183.064C406.061 180.496 408.317 179.512 411.101 179.512C413.909 179.512 416.189 180.496 416.189 183.064C416.189 185.632 413.909 186.592 411.101 186.592C408.317 186.592 406.061 185.632 406.061 183.064ZM420.389 188.104C420.797 188.104 421.349 188.536 421.349 188.848C421.349 189.064 421.277 189.376 421.277 190.024V192.208C421.277 192.592 420.941 193.144 420.389 193.144H411.053V194.992C411.053 195.352 411.221 195.544 411.581 195.544H420.941C421.397 195.544 421.685 195.424 421.901 195.424C422.093 195.424 422.309 195.664 422.309 195.88C422.309 196.264 421.517 196.84 420.941 196.84H411.005C409.949 196.84 409.397 196.144 409.397 195.184V193.864C409.397 193.12 409.325 192.88 408.365 192.76C407.837 192.688 408.029 191.848 408.437 191.848H419.621V189.544H411.605C410.861 189.544 410.357 189.664 409.973 189.664C409.565 189.664 409.037 189.4 408.485 188.8C408.101 188.416 408.509 187.864 408.941 188.056C409.349 188.248 410.333 188.248 411.605 188.248H418.997C419.789 188.224 420.053 188.104 420.389 188.104ZM421.421 176.32V180.856H423.941C424.397 180.856 424.565 180.76 424.781 180.76C424.973 180.76 425.189 181 425.189 181.216C425.189 181.6 424.469 182.176 423.941 182.176H421.421V185.392C421.421 186.328 421.109 187.216 420.365 187.216C420.005 187.216 419.765 186.856 419.765 185.992V176.776C419.765 175.648 419.285 175.336 418.061 175.024C417.605 174.904 417.845 174.064 418.349 174.136L421.061 174.52C421.565 174.592 421.517 174.88 421.517 175.048C421.517 175.24 421.421 175.648 421.421 176.32ZM407.765 183.088C407.765 184.744 409.301 185.296 411.101 185.296C412.973 185.296 414.509 184.744 414.509 183.088C414.509 181.384 412.973 180.832 411.101 180.832C409.301 180.832 407.765 181.384 407.765 183.088ZM416.189 178.552H407.765C407.021 178.552 406.517 178.672 406.133 178.672C405.725 178.672 405.197 178.384 404.645 177.784C404.285 177.4 404.669 176.848 405.101 177.064C405.509 177.256 406.493 177.256 407.765 177.256H416.189C416.621 177.256 416.813 177.16 417.029 177.16C417.221 177.16 417.437 177.376 417.437 177.592C417.437 178 416.717 178.552 416.189 178.552ZM411.005 176.032C409.829 176.032 408.653 176.056 407.645 175.12C407.261 174.76 407.645 174.112 408.101 174.304C408.509 174.496 409.397 174.616 411.005 174.616H413.837C414.029 174.616 414.221 174.904 414.221 175.168C414.221 175.576 412.997 176.032 411.005 176.032ZM440.463 176.8V183.064H443.439V176.752C443.439 175.624 443.247 175.336 442.023 175.024C441.567 174.904 441.807 174.064 442.311 174.136L444.663 174.496C445.167 174.568 445.119 174.856 445.119 175.024C445.119 175.216 445.023 175.624 445.023 176.296V194.272C445.023 195.208 444.711 196.048 444.015 196.048C443.703 196.048 443.439 195.688 443.439 194.848V184.36H440.463V193.336C440.463 194.272 440.151 195.112 439.479 195.112C439.167 195.112 438.903 194.752 438.903 193.912V188.368C437.559 189.04 436.071 189.52 434.415 189.76C433.623 189.88 433.119 189.424 432.903 188.8C431.799 189.352 430.503 189.664 429.015 189.76C427.959 189.832 427.407 189.064 427.407 188.104V179.92C427.407 179.08 427.335 178.816 426.519 178.696C425.991 178.624 426.207 177.76 426.591 177.76H430.167C430.623 177.76 430.791 177.664 431.007 177.664C431.199 177.664 431.415 177.904 431.415 178.12C431.415 178.504 430.695 179.08 430.167 179.08H428.991V187.768C428.991 188.128 429.159 188.32 429.519 188.32C430.503 188.32 431.679 188.152 432.807 187.816V179.92C432.807 179.08 432.759 178.816 432.087 178.696C431.559 178.6 431.775 177.76 432.159 177.76H436.311C436.767 177.76 436.935 177.664 437.151 177.664C437.343 177.664 437.559 177.904 437.559 178.12C437.559 178.504 436.839 179.08 436.311 179.08H434.391V187.768C434.391 188.128 434.559 188.344 434.919 188.32C436.191 188.2 437.487 187.864 438.903 187.36V177.232C438.903 176.152 438.759 175.864 437.583 175.552C437.151 175.432 437.367 174.616 437.871 174.688L440.103 175C440.607 175.072 440.559 175.36 440.559 175.528C440.559 175.72 440.463 176.128 440.463 176.8Z" fill="#ABB8CE"/>
<path d="M476.001 188.32H473.673L472.593 192.496C472.497 192.832 472.281 193 471.945 193H471.369C471.033 193 470.913 192.832 471.009 192.496L472.089 188.32H468.729L467.649 192.496C467.553 192.832 467.337 193 467.001 193H466.425C466.089 193 465.969 192.832 466.065 192.496L467.145 188.32H465.201C464.865 188.32 464.673 188.152 464.769 187.84L464.913 187.36C465.009 187.072 465.129 187 465.465 187H467.481L468.393 183.424H466.137C465.801 183.424 465.609 183.256 465.705 182.944L465.849 182.464C465.945 182.176 466.065 182.104 466.401 182.104H468.729L469.833 177.904C469.929 177.568 470.145 177.4 470.481 177.4H471.057C471.393 177.4 471.513 177.568 471.417 177.904L470.313 182.104H473.673L474.777 177.904C474.873 177.568 475.089 177.4 475.425 177.4H476.001C476.337 177.4 476.457 177.568 476.361 177.904L475.257 182.104H477.201C477.537 182.104 477.729 182.272 477.633 182.584L477.489 183.064C477.393 183.352 477.273 183.424 476.937 183.424H474.921L474.009 187H476.265C476.601 187 476.793 187.168 476.697 187.48L476.553 187.96C476.457 188.248 476.337 188.32 476.001 188.32ZM469.977 183.424L469.065 187H472.425L473.337 183.424H469.977ZM483.925 195.208V191.128C483.925 190.288 483.829 190.072 482.893 189.904C482.365 189.832 482.581 188.968 482.965 188.968H489.061V184.696H482.917C482.173 184.696 481.669 184.816 481.285 184.816C480.877 184.816 480.349 184.552 479.797 183.952C479.437 183.568 479.821 182.968 480.253 183.184C480.661 183.376 481.645 183.376 482.917 183.376H485.437C486.109 181.24 486.565 178.984 486.877 176.704H484.861C484.117 176.704 483.613 176.824 483.229 176.824C482.821 176.824 482.293 176.56 481.741 175.96C481.381 175.576 481.765 174.976 482.197 175.192C482.605 175.384 483.589 175.384 484.861 175.384H486.181C487.189 175.384 487.549 175.24 487.885 175.24C488.293 175.24 488.821 175.672 488.821 175.984C488.821 176.2 488.797 176.464 488.773 176.92C488.341 179.224 487.621 181.384 486.565 183.376H494.749C495.253 181.24 495.589 178.984 495.733 176.704H492.661C491.917 176.704 491.413 176.824 491.029 176.824C490.621 176.824 490.093 176.56 489.541 175.96C489.181 175.576 489.565 174.976 489.997 175.192C490.405 175.384 491.389 175.384 492.661 175.384H495.037C496.045 175.384 496.405 175.24 496.741 175.24C497.149 175.24 497.677 175.672 497.677 175.984C497.677 176.2 497.653 176.44 497.629 176.92C497.389 179.152 496.765 181.312 495.853 183.376H498.997C499.429 183.376 499.621 183.28 499.837 183.28C500.125 183.28 500.245 183.448 500.245 183.736C500.245 184.216 499.693 184.696 498.997 184.696H490.717V188.968H493.501C494.533 188.968 494.821 188.824 495.181 188.824C495.589 188.824 496.141 189.256 496.141 189.568C496.141 189.784 496.069 190.096 496.069 190.744V195.856V195.904C496.069 196.312 495.613 196.864 495.061 196.864H485.533C484.477 196.864 483.925 196.168 483.925 195.208ZM486.109 195.544H494.413V190.288H485.581V194.992C485.581 195.352 485.749 195.544 486.109 195.544ZM505.198 178.408C505.198 175.456 508.006 174.376 511.51 174.376C515.038 174.376 517.87 175.456 517.87 178.408C517.87 181.36 515.038 182.416 511.51 182.416C508.006 182.416 505.198 181.36 505.198 178.408ZM517.006 187.672C517.414 187.672 517.966 188.104 517.966 188.416C517.966 188.632 517.894 188.944 517.894 189.592V191.944V191.992C517.894 192.376 517.558 192.928 517.006 192.928H507.19V194.992C507.19 195.352 507.358 195.544 507.718 195.544H517.51C517.966 195.544 518.254 195.424 518.47 195.424C518.662 195.424 518.878 195.664 518.878 195.88C518.878 196.264 518.086 196.84 517.51 196.84H507.142C506.086 196.84 505.534 196.144 505.534 195.184V193.648C505.534 192.904 505.462 192.664 504.502 192.544C503.974 192.472 504.166 191.632 504.574 191.632H516.238V189.112H507.862C507.118 189.112 506.614 189.232 506.23 189.232C505.822 189.232 505.294 188.968 504.742 188.368C504.358 187.984 504.766 187.432 505.198 187.624C505.606 187.816 506.59 187.816 507.862 187.816H515.326C516.358 187.816 516.646 187.672 517.006 187.672ZM506.902 178.432C506.902 180.424 509.014 181.12 511.51 181.12C514.078 181.12 516.19 180.424 516.19 178.432C516.19 176.392 514.078 175.672 511.51 175.672C509.014 175.672 506.902 176.392 506.902 178.432ZM501.406 184.744C501.046 184.36 501.43 183.76 501.862 183.976C502.27 184.168 503.254 184.168 504.526 184.168H520.606C521.038 184.168 521.23 184.072 521.446 184.072C521.734 184.072 521.854 184.24 521.854 184.528C521.854 185.008 521.302 185.488 520.606 185.488H504.526C503.782 185.488 503.278 185.608 502.894 185.608C502.486 185.608 501.958 185.344 501.406 184.744ZM541.184 176.32V194.248C541.184 195.184 540.872 196.072 540.128 196.072C539.768 196.072 539.528 195.712 539.528 194.848V176.776C539.528 175.648 539.048 175.336 537.824 175.024C537.368 174.904 537.608 174.064 538.112 174.136L540.824 174.52C541.328 174.592 541.28 174.88 541.28 175.048C541.28 175.24 541.184 175.648 541.184 176.32ZM524.408 183.304C524.408 178.768 526.856 177.064 529.832 177.064C532.808 177.064 535.28 178.768 535.28 183.304C535.28 187.84 532.808 189.496 529.832 189.496C526.856 189.496 524.408 187.84 524.408 183.304ZM526.136 183.328C526.136 186.928 527.84 188.2 529.832 188.2C531.848 188.2 533.552 186.928 533.552 183.328C533.552 179.68 531.848 178.36 529.832 178.36C527.84 178.36 526.136 179.68 526.136 183.328ZM560.009 175.024C560.417 175.024 560.969 175.456 560.969 175.768C560.969 175.984 560.897 176.296 560.897 176.944V179.944C560.897 180.328 560.561 180.88 560.009 180.88H550.241V183.4C550.241 183.76 550.409 183.952 550.769 183.952H560.369C560.825 183.952 561.113 183.832 561.329 183.832C561.521 183.832 561.737 184.072 561.737 184.288C561.737 184.672 560.945 185.248 560.369 185.248H550.193C549.137 185.248 548.585 184.552 548.585 183.592V181.6C548.585 180.856 548.513 180.616 547.553 180.496C547.025 180.424 547.217 179.584 547.625 179.584H559.241V176.464H551.033C550.289 176.464 549.785 176.584 549.401 176.584C548.993 176.584 548.465 176.32 547.913 175.72C547.529 175.336 547.937 174.784 548.369 174.976C548.777 175.168 549.761 175.168 551.033 175.168H558.329C559.361 175.168 559.649 175.024 560.009 175.024ZM544.625 188.512C544.265 188.128 544.649 187.528 545.081 187.744C545.489 187.936 546.473 187.936 547.745 187.936H563.825C564.257 187.936 564.449 187.84 564.665 187.84C564.953 187.84 565.073 188.008 565.073 188.296C565.073 188.776 564.521 189.256 563.825 189.256H555.569V194.728C555.569 195.664 555.233 196.552 554.465 196.552C553.985 196.552 553.913 195.88 553.913 195.328V189.256H547.745C547.001 189.256 546.497 189.376 546.113 189.376C545.705 189.376 545.177 189.112 544.625 188.512ZM566.235 191.152C565.875 190.768 566.259 190.168 566.691 190.384C567.099 190.576 568.083 190.576 569.355 190.576H574.059V185.368C574.059 184.408 573.819 184.168 572.643 183.88C572.187 183.76 572.331 182.92 572.907 182.992L575.355 183.256C575.835 183.304 575.787 183.616 575.787 183.784C575.787 184 575.715 184.312 575.715 184.96V190.576H585.435C585.867 190.576 586.059 190.48 586.275 190.48C586.563 190.48 586.683 190.648 586.683 190.936C586.683 191.416 586.131 191.896 585.435 191.896H569.355C568.611 191.896 568.107 192.016 567.723 192.016C567.315 192.016 566.787 191.752 566.235 191.152ZM583.083 178.216C583.011 180.592 582.123 184.696 580.851 187.936C580.659 188.44 579.795 188.2 579.891 187.744C580.611 184.432 581.043 181.12 581.139 177.76H572.067C571.323 177.76 570.819 177.88 570.435 177.88C570.027 177.88 569.499 177.616 568.947 177.016C568.587 176.632 568.971 176.032 569.403 176.248C569.811 176.44 570.795 176.44 572.067 176.44H580.443C581.451 176.44 581.859 176.296 582.195 176.296C582.603 176.296 583.155 176.728 583.155 177.04C583.155 177.256 583.107 177.568 583.083 178.216ZM605.892 196.84H594.804C594.06 196.84 593.556 196.96 593.172 196.96C592.764 196.96 592.236 196.696 591.684 196.096C591.324 195.712 591.708 195.112 592.14 195.328C592.548 195.52 593.532 195.52 594.804 195.52H595.788V193.264C595.788 192.304 595.764 192.064 594.78 191.824C594.324 191.704 594.468 190.912 595.044 190.984L597.036 191.2C597.516 191.248 597.468 191.56 597.468 191.728C597.468 191.944 597.396 192.256 597.396 192.904V195.52H602.412V193.12C602.412 192.16 602.388 191.896 601.404 191.656C600.948 191.536 601.092 190.744 601.668 190.816L603.66 191.056C604.14 191.104 604.092 191.416 604.092 191.584C604.092 191.8 604.02 192.112 604.02 192.76V195.52H605.892C606.396 195.52 606.756 195.424 606.972 195.424C607.164 195.424 607.38 195.664 607.38 195.88C607.38 196.288 606.492 196.84 605.892 196.84ZM596.388 176.392C596.052 177.808 595.572 179.104 594.924 180.304C596.604 181.6 598.404 182.8 600.084 183.736C600.372 184 600.708 184.768 600.708 185.344C600.708 185.704 600.252 186.088 599.868 185.728C598.428 184.432 596.484 182.944 594.276 181.432C593.076 183.28 591.42 184.84 589.284 186.088C588.828 186.352 588.204 185.776 588.588 185.464C591.42 183.28 593.412 180.616 594.42 177.424C594.42 176.68 593.94 176.344 592.884 175.96C592.452 175.768 592.644 174.976 593.22 175.096L596.004 175.72C596.484 175.816 596.412 176.224 596.388 176.392ZM606.012 176.32V185.632C606.012 186.568 605.676 187.456 604.956 187.456C604.62 187.456 604.356 187.096 604.356 186.232V176.776C604.356 175.672 603.852 175.336 602.652 175.024C602.196 174.904 602.412 174.064 602.94 174.136L605.652 174.52C606.156 174.592 606.108 174.88 606.108 175.048C606.108 175.24 606.012 175.648 606.012 176.32ZM605.172 190.024H595.524C594.78 190.024 594.276 190.144 593.892 190.144C593.484 190.144 592.956 189.88 592.404 189.28C592.044 188.896 592.428 188.296 592.86 188.512C593.268 188.704 594.252 188.704 595.524 188.704H605.172C605.676 188.704 606.036 188.608 606.252 188.608C606.444 188.608 606.66 188.848 606.66 189.064C606.66 189.472 605.772 190.024 605.172 190.024ZM613.245 178.408C613.245 175.456 616.053 174.376 619.557 174.376C623.085 174.376 625.917 175.456 625.917 178.408C625.917 181.36 623.085 182.416 619.557 182.416C616.053 182.416 613.245 181.36 613.245 178.408ZM625.053 187.672C625.461 187.672 626.013 188.104 626.013 188.416C626.013 188.632 625.941 188.944 625.941 189.592V191.944V191.992C625.941 192.376 625.605 192.928 625.053 192.928H615.237V194.992C615.237 195.352 615.405 195.544 615.765 195.544H625.557C626.013 195.544 626.301 195.424 626.517 195.424C626.709 195.424 626.925 195.664 626.925 195.88C626.925 196.264 626.133 196.84 625.557 196.84H615.189C614.133 196.84 613.581 196.144 613.581 195.184V193.648C613.581 192.904 613.509 192.664 612.549 192.544C612.021 192.472 612.213 191.632 612.621 191.632H624.285V189.112H615.909C615.165 189.112 614.661 189.232 614.277 189.232C613.869 189.232 613.341 188.968 612.789 188.368C612.405 187.984 612.813 187.432 613.245 187.624C613.653 187.816 614.637 187.816 615.909 187.816H623.373C624.405 187.816 624.693 187.672 625.053 187.672ZM614.949 178.432C614.949 180.424 617.061 181.12 619.557 181.12C622.125 181.12 624.237 180.424 624.237 178.432C624.237 176.392 622.125 175.672 619.557 175.672C617.061 175.672 614.949 176.392 614.949 178.432ZM609.453 184.744C609.093 184.36 609.477 183.76 609.909 183.976C610.317 184.168 611.301 184.168 612.573 184.168H628.653C629.085 184.168 629.277 184.072 629.493 184.072C629.781 184.072 629.901 184.24 629.901 184.528C629.901 185.008 629.349 185.488 628.653 185.488H612.573C611.829 185.488 611.325 185.608 610.941 185.608C610.533 185.608 610.005 185.344 609.453 184.744ZM645.463 176.8V183.064H648.439V176.752C648.439 175.624 648.247 175.336 647.023 175.024C646.567 174.904 646.807 174.064 647.311 174.136L649.663 174.496C650.167 174.568 650.119 174.856 650.119 175.024C650.119 175.216 650.023 175.624 650.023 176.296V194.272C650.023 195.208 649.711 196.048 649.015 196.048C648.703 196.048 648.439 195.688 648.439 194.848V184.36H645.463V193.336C645.463 194.272 645.151 195.112 644.479 195.112C644.167 195.112 643.903 194.752 643.903 193.912V188.368C642.559 189.04 641.071 189.52 639.415 189.76C638.623 189.88 638.119 189.424 637.903 188.8C636.799 189.352 635.503 189.664 634.015 189.76C632.959 189.832 632.407 189.064 632.407 188.104V179.92C632.407 179.08 632.335 178.816 631.519 178.696C630.991 178.624 631.207 177.76 631.591 177.76H635.167C635.623 177.76 635.791 177.664 636.007 177.664C636.199 177.664 636.415 177.904 636.415 178.12C636.415 178.504 635.695 179.08 635.167 179.08H633.991V187.768C633.991 188.128 634.159 188.32 634.519 188.32C635.503 188.32 636.679 188.152 637.807 187.816V179.92C637.807 179.08 637.759 178.816 637.087 178.696C636.559 178.6 636.775 177.76 637.159 177.76H641.311C641.767 177.76 641.935 177.664 642.151 177.664C642.343 177.664 642.559 177.904 642.559 178.12C642.559 178.504 641.839 179.08 641.311 179.08H639.391V187.768C639.391 188.128 639.559 188.344 639.919 188.32C641.191 188.2 642.487 187.864 643.903 187.36V177.232C643.903 176.152 643.759 175.864 642.583 175.552C642.151 175.432 642.367 174.616 642.871 174.688L645.103 175C645.607 175.072 645.559 175.36 645.559 175.528C645.559 175.72 645.463 176.128 645.463 176.8Z" fill="#ABB8CE"/>
<defs>
<filter id="filter0_d_862_10799" x="0" y="0" width="664" height="172" filterUnits="userSpaceOnUse" color-interpolation-filters="sRGB">
<feFlood flood-opacity="0" result="BackgroundImageFix"/>
<feColorMatrix in="SourceAlpha" type="matrix" values="0 0 0 0 0 0 0 0 0 0 0 0 0 0 0 0 0 0 127 0" result="hardAlpha"/>
<feOffset dy="3"/>
<feGaussianBlur stdDeviation="6"/>
<feComposite in2="hardAlpha" operator="out"/>
<feColorMatrix type="matrix" values="0 0 0 0 0 0 0 0 0 0 0 0 0 0 0 0 0 0 0.04 0"/>
<feBlend mode="normal" in2="BackgroundImageFix" result="effect1_dropShadow_862_10799"/>
<feBlend mode="normal" in="SourceGraphic" in2="effect1_dropShadow_862_10799" result="shape"/>
</filter>
<clipPath id="clip0_862_10799">
<rect x="12" y="9" width="640" height="148" rx="16" fill="white"/>
</clipPath>
</defs>
</svg>
