<svg width="408" height="189" viewBox="0 0 408 189" fill="none" xmlns="http://www.w3.org/2000/svg">
<g filter="url(#filter0_d_1142_9739)">
<g clip-path="url(#clip0_1142_9739)">
<rect x="12" y="9" width="384" height="146" rx="16" fill="white"/>
<line x1="12" y1="9.5" x2="396" y2="9.50003" stroke="#F2F2F2"/>
<line x1="12" y1="33.5" x2="396" y2="33.5" stroke="#F2F2F2"/>
<line x1="12" y1="57.5" x2="396" y2="57.5" stroke="#F2F2F2"/>
<line x1="12" y1="81.5" x2="396" y2="81.5" stroke="#F2F2F2"/>
<line x1="12" y1="105.5" x2="396" y2="105.5" stroke="#F2F2F2"/>
<line x1="12" y1="129.5" x2="396" y2="129.5" stroke="#F2F2F2"/>
<line x1="12" y1="153.5" x2="396" y2="153.5" stroke="#F2F2F2"/>
<path d="M38.912 43.84C38.912 41.264 40.816 40.32 43.184 40.32C45.552 40.32 47.472 41.264 47.472 43.84C47.472 46.384 45.552 47.312 43.184 47.312C40.816 47.312 38.912 46.384 38.912 43.84ZM40.048 43.856C40.048 45.76 41.472 46.448 43.184 46.448C44.928 46.448 46.352 45.76 46.352 43.856C46.352 41.888 44.928 41.184 43.184 41.184C41.472 41.184 40.048 41.888 40.048 43.856ZM36.448 51.088C36.208 50.832 36.464 50.432 36.752 50.576C37.024 50.704 37.68 50.704 38.528 50.704H42.784V49.472C42.784 48.832 42.624 48.672 41.84 48.48C41.536 48.4 41.632 47.84 42.016 47.888L43.648 48.064C43.968 48.096 43.936 48.304 43.936 48.416C43.936 48.56 43.888 48.768 43.888 49.2V50.704H49.248C49.536 50.704 49.664 50.64 49.808 50.64C50 50.64 50.08 50.752 50.08 50.944C50.08 51.264 49.712 51.584 49.248 51.584H38.528C38.032 51.584 37.696 51.664 37.44 51.664C37.168 51.664 36.816 51.488 36.448 51.088ZM60.0383 41.216V44.208H62.2623V41.184C62.2623 40.432 61.9423 40.224 61.1263 40.016C60.8223 39.936 60.9823 39.376 61.3183 39.424L63.0943 39.68C63.4303 39.728 63.3983 39.92 63.3983 40.032C63.3983 40.16 63.3343 40.432 63.3343 40.88V48.672C63.3343 49.296 63.1103 49.856 62.6463 49.856C62.4383 49.856 62.2623 49.616 62.2623 49.056V45.072H60.0383V47.28C60.0383 47.904 59.8142 48.464 59.3663 48.464C59.1583 48.464 58.9823 48.224 58.9823 47.664V47.168C57.0943 47.712 55.1263 48.112 53.0303 48.112C52.3263 48.112 51.9583 47.648 51.9583 47.008V45.248C51.9583 44.704 51.7983 44.528 51.1103 44.432C50.7583 44.384 50.9023 43.808 51.1583 43.808H55.7343V41.584H53.5583C53.0623 41.584 52.7263 41.664 52.4703 41.664C52.1983 41.664 51.8463 41.488 51.4783 41.088C51.2383 40.832 51.4943 40.432 51.7823 40.576C52.0543 40.704 52.7103 40.704 53.5583 40.704H55.3183C55.8463 40.688 56.0223 40.608 56.2303 40.608C56.5023 40.608 56.8703 40.896 56.8703 41.104C56.8703 41.248 56.8223 41.456 56.8223 41.888V44.048C56.8223 44.32 56.5023 44.688 56.1503 44.688H53.0463V46.784C53.0463 47.024 53.1583 47.152 53.3983 47.152C55.2703 47.152 57.1263 46.896 58.9823 46.496V41.504C58.9823 40.784 58.6943 40.576 57.9103 40.368C57.6223 40.288 57.7663 39.744 58.1023 39.792L59.7983 40.016C60.1343 40.064 60.1023 40.256 60.1023 40.368C60.1023 40.496 60.0383 40.768 60.0383 41.216ZM60.0383 49.536C59.8142 50.08 59.5423 50.608 59.2222 51.104C60.8383 52.016 62.2783 52.768 63.5903 53.36C63.7983 53.536 64.0703 54 64.0703 54.368C64.0703 54.624 63.7983 54.864 63.5103 54.64C62.5343 53.92 60.9343 52.976 58.7103 51.792C57.6703 53.008 56.1503 54.032 53.9423 54.768C53.6063 54.88 53.2543 54.4 53.5583 54.272C55.8143 53.312 57.4943 51.936 58.5663 50.192C58.6623 49.76 58.3743 49.44 57.7023 49.248C57.4143 49.168 57.5423 48.592 57.9263 48.672L59.7823 49.088C60.1023 49.152 60.0863 49.424 60.0383 49.536ZM68.0125 52.032C68.0125 50.016 69.8365 49.264 72.0605 49.264C74.2685 49.264 76.1085 50.016 76.1085 52.032C76.1085 54.048 74.2685 54.784 72.0605 54.784C69.8365 54.784 68.0125 54.048 68.0125 52.032ZM75.5165 45.168H72.5405V47.152H78.0605C78.3485 47.152 78.4765 47.088 78.6205 47.088C78.8125 47.088 78.8925 47.2 78.8925 47.392C78.8925 47.712 78.5245 48.032 78.0605 48.032H67.3405C66.8445 48.032 66.5085 48.112 66.2525 48.112C65.9805 48.112 65.6285 47.936 65.2605 47.536C65.0205 47.28 65.2765 46.88 65.5645 47.024C65.8365 47.152 66.4925 47.152 67.3405 47.152H71.4365V45.168H69.0685C68.3645 45.168 67.9965 44.704 67.9965 44.064V41.696C67.9965 41.152 67.8365 40.976 67.1485 40.88C66.7965 40.832 66.9405 40.256 67.1965 40.256H75.3085C75.5965 40.256 75.7245 40.192 75.8685 40.192C75.9965 40.192 76.1405 40.352 76.1405 40.496C76.1405 40.768 75.6605 41.136 75.3085 41.136H69.1005V43.92C69.1005 44.16 69.2125 44.288 69.4525 44.288H75.5165C75.8045 44.288 75.9325 44.224 76.0765 44.224C76.2045 44.224 76.3485 44.384 76.3485 44.528C76.3485 44.8 75.8685 45.168 75.5165 45.168ZM69.1645 52.048C69.1645 53.424 70.4765 53.92 72.0605 53.92C73.6925 53.92 74.9725 53.424 74.9725 52.048C74.9725 50.64 73.6925 50.128 72.0605 50.128C70.4765 50.128 69.1645 50.64 69.1645 52.048ZM80.1148 44.272C80.1148 41.712 81.7308 40.784 83.7148 40.784C85.6988 40.784 87.3308 41.712 87.3308 44.272C87.3308 46.8 85.6988 47.728 83.7148 47.728C81.7308 47.728 80.1148 46.8 80.1148 44.272ZM81.2668 44.288C81.2668 46.192 82.3708 46.864 83.7148 46.864C85.0588 46.864 86.1948 46.192 86.1948 44.288C86.1948 42.32 85.0588 41.648 83.7148 41.648C82.3708 41.648 81.2668 42.32 81.2668 44.288ZM90.9788 40.88V44.144H92.6588C92.9628 44.144 93.0748 44.08 93.2188 44.08C93.3468 44.08 93.4908 44.24 93.4908 44.384C93.4908 44.64 93.0108 45.024 92.6588 45.024H90.9788V49.344C90.9788 49.968 90.7708 50.56 90.2748 50.56C90.0348 50.56 89.8748 50.32 89.8748 49.744V41.184C89.8748 40.432 89.5548 40.224 88.7388 40.016C88.4348 39.936 88.5948 39.376 88.9308 39.424L90.7388 39.68C91.0748 39.728 91.0428 39.92 91.0428 40.032C91.0428 40.16 90.9788 40.432 90.9788 40.88ZM83.3468 53.296V51.216C83.3468 50.512 83.1228 50.384 82.3068 50.176C82.0028 50.096 82.0988 49.536 82.4828 49.584L84.2108 49.776C84.5308 49.824 84.4988 50.016 84.4988 50.128C84.4988 50.272 84.4508 50.48 84.4508 50.912V53.152C84.4508 53.392 84.5628 53.52 84.8028 53.52H90.8188C91.1228 53.52 91.3148 53.44 91.4588 53.44C91.5868 53.44 91.7308 53.6 91.7308 53.744C91.7308 54.016 91.2028 54.4 90.8188 54.4H84.4188C83.7148 54.4 83.3468 53.936 83.3468 53.296ZM101.309 53.472V50.752C101.309 50.192 101.245 50.048 100.621 49.936C100.269 49.888 100.413 49.312 100.669 49.312H104.733V46.464H100.637C100.141 46.464 99.8054 46.544 99.5494 46.544C99.2774 46.544 98.9254 46.368 98.5574 45.968C98.3174 45.712 98.5734 45.312 98.8614 45.456C99.1334 45.584 99.7894 45.584 100.637 45.584H102.317C102.765 44.16 103.069 42.656 103.277 41.136H101.933C101.437 41.136 101.101 41.216 100.845 41.216C100.573 41.216 100.221 41.04 99.8534 40.64C99.6134 40.384 99.8694 39.984 100.157 40.128C100.429 40.256 101.085 40.256 101.933 40.256H102.813C103.485 40.256 103.725 40.16 103.949 40.16C104.221 40.16 104.573 40.448 104.573 40.656C104.573 40.8 104.557 40.976 104.541 41.28C104.253 42.816 103.773 44.256 103.069 45.584H108.525C108.861 44.16 109.085 42.656 109.181 41.136H107.133C106.637 41.136 106.301 41.216 106.045 41.216C105.773 41.216 105.421 41.04 105.053 40.64C104.813 40.384 105.069 39.984 105.357 40.128C105.629 40.256 106.285 40.256 107.133 40.256H108.717C109.389 40.256 109.629 40.16 109.853 40.16C110.125 40.16 110.477 40.448 110.477 40.656C110.477 40.8 110.461 40.96 110.445 41.28C110.285 42.768 109.869 44.208 109.261 45.584H111.357C111.645 45.584 111.773 45.52 111.917 45.52C112.109 45.52 112.189 45.632 112.189 45.824C112.189 46.144 111.821 46.464 111.357 46.464H105.837V49.312H107.693C108.381 49.312 108.573 49.216 108.813 49.216C109.085 49.216 109.453 49.504 109.453 49.712C109.453 49.856 109.405 50.064 109.405 50.496V53.904V53.936C109.405 54.208 109.101 54.576 108.733 54.576H102.381C101.677 54.576 101.309 54.112 101.309 53.472ZM102.765 53.696H108.301V50.192H102.413V53.328C102.413 53.568 102.525 53.696 102.765 53.696ZM115.492 42.272C115.492 40.304 117.364 39.584 119.7 39.584C122.052 39.584 123.94 40.304 123.94 42.272C123.94 44.24 122.052 44.944 119.7 44.944C117.364 44.944 115.492 44.24 115.492 42.272ZM123.364 48.448C123.636 48.448 124.004 48.736 124.004 48.944C124.004 49.088 123.956 49.296 123.956 49.728V51.296V51.328C123.956 51.584 123.732 51.952 123.364 51.952H116.82V53.328C116.82 53.568 116.932 53.696 117.172 53.696H123.7C124.004 53.696 124.196 53.616 124.34 53.616C124.468 53.616 124.612 53.776 124.612 53.92C124.612 54.176 124.084 54.56 123.7 54.56H116.788C116.084 54.56 115.716 54.096 115.716 53.456V52.432C115.716 51.936 115.668 51.776 115.028 51.696C114.676 51.648 114.804 51.088 115.076 51.088H122.852V49.408H117.268C116.772 49.408 116.436 49.488 116.18 49.488C115.908 49.488 115.556 49.312 115.188 48.912C114.932 48.656 115.204 48.288 115.492 48.416C115.764 48.544 116.42 48.544 117.268 48.544H122.244C122.932 48.544 123.124 48.448 123.364 48.448ZM116.628 42.288C116.628 43.616 118.036 44.08 119.7 44.08C121.412 44.08 122.82 43.616 122.82 42.288C122.82 40.928 121.412 40.448 119.7 40.448C118.036 40.448 116.628 40.928 116.628 42.288ZM112.964 46.496C112.724 46.24 112.98 45.84 113.268 45.984C113.54 46.112 114.196 46.112 115.044 46.112H125.764C126.052 46.112 126.18 46.048 126.324 46.048C126.516 46.048 126.596 46.16 126.596 46.352C126.596 46.672 126.228 46.992 125.764 46.992H115.044C114.548 46.992 114.212 47.072 113.956 47.072C113.684 47.072 113.332 46.896 112.964 46.496ZM143.086 42.304C142.862 45.136 142.334 47.76 141.534 50.224H144.654C144.942 50.224 145.07 50.16 145.214 50.16C145.406 50.16 145.486 50.272 145.486 50.464C145.486 50.784 145.118 51.104 144.654 51.104H133.934C133.438 51.104 133.102 51.184 132.846 51.184C132.574 51.184 132.222 51.008 131.854 50.608C131.614 50.352 131.87 49.952 132.158 50.096C132.43 50.224 133.086 50.224 133.934 50.224H140.83C141.342 47.6 141.646 44.848 141.79 42H135.742C135.246 42 134.91 42.08 134.654 42.08C134.382 42.08 134.03 41.904 133.662 41.504C133.422 41.248 133.678 40.848 133.966 40.992C134.238 41.12 134.894 41.12 135.742 41.12H141.326C141.998 41.12 142.27 41.024 142.494 41.024C142.766 41.024 143.134 41.312 143.134 41.52C143.134 41.664 143.102 41.872 143.086 42.304ZM153.125 46.144H149.013V49.04C149.013 49.28 149.125 49.408 149.365 49.408C152.085 49.408 154.581 49.152 157.269 48.464V41.184C157.269 40.432 156.949 40.224 156.133 40.016C155.829 39.936 155.989 39.376 156.325 39.424L158.133 39.68C158.469 39.728 158.437 39.92 158.437 40.032C158.437 40.16 158.373 40.432 158.373 40.88V52.832C158.373 53.456 158.165 54.048 157.669 54.048C157.429 54.048 157.269 53.808 157.269 53.232V49.136C154.533 49.952 151.893 50.32 148.981 50.368C148.277 50.384 147.909 49.904 147.909 49.264V46.704C147.909 46.16 147.749 45.984 147.061 45.888C146.709 45.84 146.853 45.264 147.109 45.264H152.693V42.224H149.509C149.013 42.224 148.677 42.304 148.421 42.304C148.149 42.304 147.797 42.128 147.429 41.728C147.189 41.472 147.445 41.072 147.733 41.216C148.005 41.344 148.661 41.344 149.509 41.344H152.085C152.757 41.344 152.981 41.248 153.205 41.248C153.477 41.248 153.845 41.536 153.845 41.744C153.845 41.888 153.797 42.096 153.797 42.528V45.472V45.504C153.797 45.776 153.477 46.144 153.125 46.144ZM170.971 45.488H164.411C163.707 45.488 163.339 45.024 163.339 44.384V41.92C163.339 41.28 163.163 41.136 162.347 40.928C162.043 40.848 162.139 40.288 162.523 40.336L164.203 40.512C164.523 40.544 164.491 40.752 164.491 40.864C164.491 41.008 164.443 41.216 164.443 41.648V44.24C164.443 44.48 164.555 44.608 164.795 44.608H170.971C171.259 44.608 171.387 44.544 171.531 44.544C171.659 44.544 171.803 44.704 171.803 44.848C171.803 45.12 171.323 45.488 170.971 45.488ZM160.667 47.952C160.427 47.696 160.683 47.296 160.971 47.44C161.243 47.568 161.899 47.568 162.747 47.568H173.467C173.755 47.568 173.883 47.504 174.027 47.504C174.219 47.504 174.299 47.616 174.299 47.808C174.299 48.128 173.931 48.448 173.467 48.448H162.747C162.251 48.448 161.915 48.528 161.659 48.528C161.387 48.528 161.035 48.352 160.667 47.952ZM163.691 53.296V51.6C163.691 50.896 163.467 50.768 162.651 50.56C162.347 50.48 162.443 49.92 162.827 49.968L164.555 50.16C164.875 50.208 164.843 50.4 164.843 50.512C164.843 50.656 164.795 50.864 164.795 51.296V53.152C164.795 53.392 164.907 53.52 165.147 53.52H171.323C171.627 53.52 171.819 53.44 171.963 53.44C172.091 53.44 172.235 53.6 172.235 53.744C172.235 54.016 171.707 54.4 171.323 54.4H164.763C164.059 54.4 163.691 53.936 163.691 53.296ZM192.549 45.952H190.869V52.832C190.869 53.456 190.661 54.048 190.165 54.048C189.925 54.048 189.765 53.808 189.765 53.232V41.184C189.765 40.432 189.445 40.224 188.629 40.016C188.325 39.936 188.485 39.376 188.821 39.424L190.629 39.68C190.965 39.728 190.933 39.92 190.933 40.032C190.933 40.16 190.869 40.432 190.869 40.88V45.072H192.549C192.853 45.072 192.965 45.008 193.109 45.008C193.237 45.008 193.381 45.168 193.381 45.312C193.381 45.568 192.901 45.952 192.549 45.952ZM187.653 49.28C187.605 49.52 187.301 49.728 187.061 49.472C186.053 48.288 184.693 47.008 183.397 45.904C182.565 47.456 181.461 48.8 180.069 49.872C179.813 50.096 179.397 49.712 179.605 49.456C181.589 47.408 182.981 44.944 183.605 42.256C183.605 41.76 183.285 41.536 182.581 41.28C182.293 41.152 182.421 40.624 182.805 40.704L184.661 41.136C184.981 41.2 184.933 41.472 184.917 41.584C184.661 42.832 184.293 44.016 183.797 45.088C184.901 46.128 186.181 47.248 187.349 48.16C187.525 48.352 187.701 48.896 187.653 49.28ZM204.508 54.56H198.396C197.692 54.56 197.324 54.096 197.324 53.456V50.944C197.324 50.384 197.26 50.24 196.636 50.128C196.284 50.08 196.428 49.504 196.684 49.504H203.66C204.188 49.488 204.364 49.408 204.588 49.408C204.86 49.408 205.228 49.696 205.228 49.904C205.228 50.048 205.18 50.256 205.18 50.688V53.92C205.18 54.192 204.876 54.56 204.508 54.56ZM205.276 40.88V43.888H206.956C207.26 43.888 207.372 43.824 207.516 43.824C207.644 43.824 207.788 43.984 207.788 44.128C207.788 44.384 207.308 44.768 206.956 44.768H205.276V47.472C205.276 48.096 205.068 48.688 204.572 48.688C204.332 48.688 204.172 48.448 204.172 47.872V46.56C201.164 47.424 198.556 47.856 196.124 47.888C195.42 47.904 195.052 47.424 195.052 46.784V45.184C195.052 44.64 194.892 44.464 194.204 44.368C193.852 44.32 193.996 43.744 194.252 43.744H200.188V41.664H196.652C196.156 41.664 195.82 41.744 195.564 41.744C195.292 41.744 194.94 41.568 194.572 41.168C194.332 40.912 194.588 40.512 194.876 40.656C195.148 40.784 195.804 40.784 196.652 40.784H199.58C200.252 40.784 200.476 40.688 200.7 40.688C200.972 40.688 201.34 40.976 201.34 41.184C201.34 41.328 201.292 41.536 201.292 41.968V43.984C201.292 44.256 200.972 44.624 200.62 44.624H196.156V46.56C196.156 46.8 196.268 46.928 196.508 46.928C198.748 46.976 201.148 46.64 204.172 45.888V41.184C204.172 40.432 203.852 40.224 203.036 40.016C202.732 39.936 202.892 39.376 203.228 39.424L205.036 39.68C205.372 39.728 205.34 39.92 205.34 40.032C205.34 40.16 205.276 40.432 205.276 40.88ZM198.428 53.312C198.428 53.552 198.54 53.68 198.78 53.68H204.076V50.384H198.428V53.312ZM210.898 42.992C210.898 40.8 212.77 40 215.106 40C217.458 40 219.346 40.8 219.346 42.992C219.346 45.168 217.458 45.952 215.106 45.952C212.77 45.952 210.898 45.168 210.898 42.992ZM212.034 43.008C212.034 44.544 213.442 45.088 215.106 45.088C216.818 45.088 218.226 44.544 218.226 43.008C218.226 41.424 216.818 40.864 215.106 40.864C213.442 40.864 212.034 41.424 212.034 43.008ZM208.37 47.984C208.13 47.728 208.386 47.328 208.674 47.472C208.946 47.6 209.602 47.6 210.45 47.6H221.17C221.458 47.6 221.586 47.536 221.73 47.536C221.922 47.536 222.002 47.648 222.002 47.84C222.002 48.16 221.634 48.48 221.17 48.48H210.45C209.954 48.48 209.618 48.56 209.362 48.56C209.09 48.56 208.738 48.384 208.37 47.984ZM211.394 53.296V51.536C211.394 50.832 211.17 50.704 210.354 50.496C210.05 50.416 210.146 49.856 210.53 49.904L212.258 50.096C212.578 50.144 212.546 50.336 212.546 50.448C212.546 50.592 212.498 50.8 212.498 51.232V53.152C212.498 53.392 212.61 53.52 212.85 53.52H219.026C219.33 53.52 219.522 53.44 219.666 53.44C219.794 53.44 219.938 53.6 219.938 53.744C219.938 54.016 219.41 54.4 219.026 54.4H212.466C211.762 54.4 211.394 53.936 211.394 53.296ZM234.045 49.504H229.133C228.429 49.504 228.061 49.04 228.061 48.4V43.104C228.061 42.544 227.997 42.4 227.373 42.288C227.021 42.24 227.165 41.664 227.421 41.664H233.197C233.725 41.648 233.901 41.568 234.125 41.568C234.397 41.568 234.765 41.856 234.765 42.064C234.765 42.208 234.717 42.416 234.717 42.848V48.864C234.717 49.136 234.413 49.504 234.045 49.504ZM229.164 48.256C229.164 48.496 229.277 48.624 229.517 48.624H233.613V42.544H229.164V48.256ZM240.253 46.112H238.573V52.832C238.573 53.456 238.365 54.048 237.869 54.048C237.629 54.048 237.469 53.808 237.469 53.232V41.184C237.469 40.432 237.149 40.224 236.333 40.016C236.029 39.936 236.189 39.376 236.525 39.424L238.333 39.68C238.669 39.728 238.637 39.92 238.637 40.032C238.637 40.16 238.573 40.432 238.573 40.88V45.232H240.253C240.557 45.232 240.669 45.168 240.813 45.168C240.941 45.168 241.085 45.328 241.085 45.472C241.085 45.728 240.605 46.112 240.253 46.112ZM253.011 54.56H246.739C246.035 54.56 245.667 54.096 245.667 53.456V50.944C245.667 50.384 245.603 50.24 244.979 50.128C244.627 50.08 244.771 49.504 245.027 49.504H251.971C252.659 49.504 252.851 49.408 253.091 49.408C253.363 49.408 253.731 49.696 253.731 49.904C253.731 50.048 253.683 50.256 253.683 50.688V53.888V53.92C253.683 54.192 253.379 54.56 253.011 54.56ZM246.771 53.312C246.771 53.552 246.883 53.68 247.123 53.68H252.579V50.384H246.771V53.312ZM250.595 47.92C250.563 48.144 250.259 48.352 250.003 48.112C249.235 47.424 248.195 46.656 246.915 45.776C245.763 46.752 244.339 47.568 242.675 48.224C242.371 48.352 242.019 47.872 242.307 47.728C244.883 46.464 246.787 44.864 247.987 42.88H244.899C244.403 42.88 244.067 42.96 243.811 42.96C243.539 42.96 243.187 42.784 242.819 42.384C242.579 42.128 242.835 41.728 243.123 41.872C243.395 42 244.051 42 244.899 42H247.635C248.307 42 248.563 41.904 248.787 41.904C249.059 41.904 249.427 42.224 249.427 42.4C249.427 42.576 249.283 42.88 249.123 43.168C248.691 43.904 248.179 44.576 247.555 45.2C248.515 45.872 249.427 46.448 250.307 46.928C250.483 47.12 250.627 47.552 250.595 47.92ZM253.779 40.88V47.472C253.779 48.096 253.571 48.688 253.075 48.688C252.835 48.688 252.675 48.448 252.675 47.872V41.184C252.675 40.432 252.355 40.224 251.539 40.016C251.235 39.936 251.395 39.376 251.731 39.424L253.539 39.68C253.875 39.728 253.843 39.92 253.843 40.032C253.843 40.16 253.779 40.432 253.779 40.88ZM246.275 40.944C245.491 40.944 244.899 40.96 244.227 40.336C243.971 40.096 244.227 39.664 244.531 39.792C244.803 39.92 245.203 40 246.275 40H247.971C248.099 40 248.227 40.192 248.227 40.368C248.227 40.64 247.603 40.944 246.275 40.944ZM265.097 41.216V45.056H267.481V41.184C267.481 40.432 267.161 40.224 266.345 40.016C266.041 39.936 266.201 39.376 266.537 39.424L268.313 39.68C268.649 39.728 268.617 39.92 268.617 40.032C268.617 40.16 268.553 40.432 268.553 40.88V52.848C268.553 53.472 268.329 54.032 267.865 54.032C267.657 54.032 267.481 53.792 267.481 53.232V45.92H265.097V52.224C265.097 52.848 264.873 53.408 264.425 53.408C264.217 53.408 264.041 53.168 264.041 52.608V48.832C262.121 49.472 260.297 49.76 258.185 49.76C257.481 49.76 257.113 49.296 257.113 48.656V43.232C257.113 42.704 257.097 42.464 256.281 42.256C255.993 42.176 256.073 41.632 256.457 41.68L257.961 41.84C258.281 41.888 258.249 42.08 258.249 42.192C258.249 42.336 258.201 42.544 258.201 42.976V48.432C258.201 48.672 258.313 48.8 258.553 48.8C260.537 48.8 262.201 48.656 264.041 48.16V41.504C264.041 40.784 263.753 40.576 262.969 40.368C262.681 40.288 262.825 39.744 263.161 39.792L264.857 40.016C265.193 40.064 265.161 40.256 265.161 40.368C265.161 40.496 265.097 40.768 265.097 41.216ZM286.196 42.304C285.972 45.136 285.444 47.76 284.644 50.224H287.764C288.052 50.224 288.18 50.16 288.324 50.16C288.516 50.16 288.596 50.272 288.596 50.464C288.596 50.784 288.228 51.104 287.764 51.104H277.044C276.548 51.104 276.212 51.184 275.956 51.184C275.684 51.184 275.332 51.008 274.964 50.608C274.724 50.352 274.98 49.952 275.268 50.096C275.54 50.224 276.196 50.224 277.044 50.224H283.94C284.452 47.6 284.756 44.848 284.9 42H278.852C278.356 42 278.02 42.08 277.764 42.08C277.492 42.08 277.14 41.904 276.772 41.504C276.532 41.248 276.788 40.848 277.076 40.992C277.348 41.12 278.004 41.12 278.852 41.12H284.436C285.108 41.12 285.38 41.024 285.604 41.024C285.876 41.024 286.244 41.312 286.244 41.52C286.244 41.664 286.212 41.872 286.196 42.304ZM296.606 53.472V50.752C296.606 50.192 296.542 50.048 295.918 49.936C295.566 49.888 295.71 49.312 295.966 49.312H300.03V46.464H295.934C295.438 46.464 295.102 46.544 294.846 46.544C294.574 46.544 294.222 46.368 293.854 45.968C293.614 45.712 293.87 45.312 294.158 45.456C294.43 45.584 295.086 45.584 295.934 45.584H297.614C298.062 44.16 298.366 42.656 298.574 41.136H297.23C296.734 41.136 296.398 41.216 296.142 41.216C295.87 41.216 295.518 41.04 295.15 40.64C294.91 40.384 295.166 39.984 295.454 40.128C295.726 40.256 296.382 40.256 297.23 40.256H298.11C298.782 40.256 299.022 40.16 299.246 40.16C299.518 40.16 299.87 40.448 299.87 40.656C299.87 40.8 299.854 40.976 299.838 41.28C299.55 42.816 299.07 44.256 298.366 45.584H303.822C304.158 44.16 304.382 42.656 304.478 41.136H302.43C301.934 41.136 301.598 41.216 301.342 41.216C301.07 41.216 300.718 41.04 300.35 40.64C300.11 40.384 300.366 39.984 300.654 40.128C300.926 40.256 301.582 40.256 302.43 40.256H304.014C304.686 40.256 304.926 40.16 305.15 40.16C305.422 40.16 305.774 40.448 305.774 40.656C305.774 40.8 305.758 40.96 305.742 41.28C305.582 42.768 305.166 44.208 304.558 45.584H306.654C306.942 45.584 307.07 45.52 307.214 45.52C307.406 45.52 307.486 45.632 307.486 45.824C307.486 46.144 307.118 46.464 306.654 46.464H301.134V49.312H302.99C303.678 49.312 303.87 49.216 304.11 49.216C304.382 49.216 304.75 49.504 304.75 49.712C304.75 49.856 304.702 50.064 304.702 50.496V53.904V53.936C304.702 54.208 304.398 54.576 304.03 54.576H297.678C296.974 54.576 296.606 54.112 296.606 53.472ZM298.062 53.696H303.598V50.192H297.71V53.328C297.71 53.568 297.822 53.696 298.062 53.696ZM310.789 42.272C310.789 40.304 312.661 39.584 314.997 39.584C317.349 39.584 319.237 40.304 319.237 42.272C319.237 44.24 317.349 44.944 314.997 44.944C312.661 44.944 310.789 44.24 310.789 42.272ZM318.661 48.448C318.933 48.448 319.301 48.736 319.301 48.944C319.301 49.088 319.253 49.296 319.253 49.728V51.296V51.328C319.253 51.584 319.029 51.952 318.661 51.952H312.117V53.328C312.117 53.568 312.229 53.696 312.469 53.696H318.997C319.301 53.696 319.493 53.616 319.637 53.616C319.765 53.616 319.909 53.776 319.909 53.92C319.909 54.176 319.381 54.56 318.997 54.56H312.085C311.381 54.56 311.013 54.096 311.013 53.456V52.432C311.013 51.936 310.965 51.776 310.325 51.696C309.973 51.648 310.101 51.088 310.373 51.088H318.149V49.408H312.565C312.069 49.408 311.733 49.488 311.477 49.488C311.205 49.488 310.853 49.312 310.485 48.912C310.229 48.656 310.501 48.288 310.789 48.416C311.061 48.544 311.717 48.544 312.565 48.544H317.541C318.229 48.544 318.421 48.448 318.661 48.448ZM311.924 42.288C311.924 43.616 313.333 44.08 314.997 44.08C316.709 44.08 318.117 43.616 318.117 42.288C318.117 40.928 316.709 40.448 314.997 40.448C313.333 40.448 311.924 40.928 311.924 42.288ZM308.261 46.496C308.021 46.24 308.277 45.84 308.565 45.984C308.837 46.112 309.493 46.112 310.341 46.112H321.061C321.349 46.112 321.477 46.048 321.621 46.048C321.813 46.048 321.893 46.16 321.893 46.352C321.893 46.672 321.525 46.992 321.061 46.992H310.341C309.845 46.992 309.509 47.072 309.253 47.072C308.981 47.072 308.629 46.896 308.261 46.496ZM338.463 40.88V43.328H340.143C340.447 43.328 340.559 43.264 340.703 43.264C340.831 43.264 340.975 43.424 340.975 43.568C340.975 43.824 340.495 44.208 340.143 44.208H338.463V46.416C338.463 47.04 338.255 47.632 337.759 47.632C337.519 47.632 337.359 47.392 337.359 46.816V45.28C334.351 46.144 331.615 46.576 329.183 46.608C328.479 46.624 328.111 46.144 328.111 45.504V42.192C328.111 41.632 327.951 41.488 327.263 41.376C326.911 41.328 327.055 40.752 327.311 40.752H333.871C334.175 40.752 334.287 40.688 334.431 40.688C334.559 40.688 334.703 40.848 334.703 40.992C334.703 41.248 334.223 41.632 333.871 41.632H329.215V45.28C329.215 45.52 329.327 45.648 329.567 45.648C331.807 45.696 334.335 45.36 337.359 44.608V41.184C337.359 40.432 337.039 40.224 336.223 40.016C335.919 39.936 336.079 39.376 336.415 39.424L338.223 39.68C338.559 39.728 338.527 39.92 338.527 40.032C338.527 40.16 338.463 40.432 338.463 40.88ZM337.791 54.56H335.279C334.575 54.56 334.207 54.096 334.207 53.456V49.6C334.207 49.088 334.111 48.944 333.679 48.864C333.327 48.816 333.455 48.32 333.727 48.32H336.767C337.455 48.32 337.631 48.224 337.871 48.224C338.143 48.224 338.511 48.512 338.511 48.72C338.511 48.864 338.463 49.072 338.463 49.504V53.92C338.463 54.192 338.159 54.56 337.791 54.56ZM332.495 48.224C332.767 48.224 333.135 48.512 333.135 48.72C333.135 48.864 333.087 49.072 333.087 49.504V51.216C333.087 51.488 332.863 51.84 332.495 51.84H330.351V53.328C330.351 53.568 330.463 53.696 330.703 53.696C331.519 53.696 332.351 53.664 333.103 53.584C333.407 53.536 333.471 53.488 333.615 53.472C333.743 53.472 333.903 53.616 333.903 53.76C333.919 54.032 333.535 54.304 333.167 54.368C332.431 54.496 331.487 54.56 330.351 54.56C329.647 54.56 329.279 54.096 329.279 53.456V52.272C329.279 51.808 329.247 51.616 328.671 51.536C328.319 51.488 328.447 50.976 328.719 50.976H332.015V49.184H330.831C330.335 49.184 329.999 49.248 329.743 49.248C329.471 49.248 329.119 49.088 328.751 48.688C328.495 48.432 328.767 48.064 329.055 48.192C329.327 48.32 329.983 48.32 330.831 48.32H331.599C332.127 48.304 332.271 48.224 332.495 48.224ZM335.279 53.312C335.279 53.552 335.391 53.68 335.631 53.68H337.391V49.2H335.279V53.312ZM342.005 45.536C342.005 42.512 343.653 41.376 345.669 41.376C347.669 41.376 349.333 42.512 349.333 45.536C349.333 48.56 347.669 49.664 345.669 49.664C343.653 49.664 342.005 48.56 342.005 45.536ZM343.157 45.552C343.157 47.952 344.309 48.8 345.669 48.8C347.061 48.8 348.181 47.952 348.181 45.552C348.181 43.12 347.061 42.24 345.669 42.24C344.309 42.24 343.157 43.12 343.157 45.552ZM354.549 46.112H352.869V52.832C352.869 53.456 352.661 54.048 352.165 54.048C351.925 54.048 351.765 53.808 351.765 53.232V41.184C351.765 40.432 351.445 40.224 350.629 40.016C350.325 39.936 350.485 39.376 350.821 39.424L352.629 39.68C352.965 39.728 352.933 39.92 352.933 40.032C352.933 40.16 352.869 40.432 352.869 40.88V45.232H354.549C354.853 45.232 354.965 45.168 355.109 45.168C355.237 45.168 355.381 45.328 355.381 45.472C355.381 45.728 354.901 46.112 354.549 46.112ZM36.592 74.176C39.632 72.736 41.648 70.64 42.64 67.872H39.424C38.928 67.872 38.592 67.952 38.336 67.952C38.064 67.952 37.712 67.776 37.344 67.376C37.104 67.12 37.36 66.72 37.648 66.864C37.92 66.992 38.576 66.992 39.424 66.992H42.208C42.88 66.992 43.168 66.896 43.392 66.896C43.664 66.896 44.032 67.184 44.032 67.392C44.032 67.568 43.904 67.824 43.792 68.16C42.736 71.168 40.464 73.408 36.928 74.704C36.608 74.816 36.288 74.32 36.592 74.176ZM47.76 66.88V70.464H49.44C49.728 70.464 49.856 70.4 50 70.4C50.128 70.4 50.272 70.56 50.272 70.704C50.272 70.976 49.792 71.344 49.44 71.344H47.76V75.184C47.76 75.808 47.536 76.4 47.056 76.4C46.832 76.4 46.656 76.16 46.656 75.584V67.184C46.656 66.448 46.32 66.224 45.52 66.016C45.216 65.936 45.36 65.376 45.712 65.424L47.52 65.68C47.856 65.728 47.824 65.92 47.824 66.032C47.824 66.16 47.76 66.432 47.76 66.88ZM40.128 79.296V77.056C40.128 76.368 39.904 76.224 39.088 76.016C38.784 75.936 38.88 75.376 39.264 75.424L40.992 75.616C41.312 75.648 41.28 75.856 41.28 75.968C41.28 76.112 41.232 76.32 41.232 76.752V79.152C41.232 79.392 41.344 79.52 41.584 79.52H47.6C47.904 79.52 48.096 79.44 48.24 79.44C48.368 79.44 48.512 79.6 48.512 79.744C48.512 80.016 47.968 80.4 47.6 80.4H41.2C40.496 80.4 40.128 79.936 40.128 79.296ZM52.9183 74.336C52.9183 74.576 53.0303 74.704 53.2703 74.704C55.5103 74.752 58.0383 74.416 61.0623 73.664V67.184C61.0623 66.432 60.7423 66.224 59.9263 66.016C59.6223 65.936 59.7823 65.376 60.1183 65.424L61.9263 65.68C62.2623 65.728 62.2303 65.92 62.2303 66.032C62.2303 66.16 62.1663 66.432 62.1663 66.88V71.232H63.8463C64.1503 71.232 64.2623 71.168 64.4063 71.168C64.5343 71.168 64.6783 71.328 64.6783 71.472C64.6783 71.728 64.1983 72.112 63.8463 72.112H62.1663V78.832C62.1663 79.456 61.9583 80.048 61.4623 80.048C61.2223 80.048 61.0623 79.808 61.0623 79.232V74.336C58.0543 75.2 55.3183 75.632 52.8863 75.664C52.1823 75.68 51.8143 75.2 51.8143 74.56V69.104C51.8143 68.544 51.6543 68.4 50.9663 68.288C50.6143 68.24 50.7583 67.664 51.0143 67.664H57.5743C57.8783 67.664 57.9903 67.6 58.1343 67.6C58.2623 67.6 58.4062 67.76 58.4062 67.904C58.4062 68.16 57.9263 68.544 57.5743 68.544H52.9183V74.336ZM66.7645 78.736C66.2525 78.736 65.8525 78.336 65.8525 77.856C65.8525 77.344 66.2685 76.96 66.7645 76.96C67.2605 76.96 67.6925 77.328 67.6925 77.856C67.6925 78.352 67.2925 78.736 66.7645 78.736Z" fill="#373737"/>
<path d="M277.045 119.36H272.917C272.693 119.36 272.581 119.248 272.581 119.024V118.736C272.581 118.512 272.693 118.4 272.917 118.4H277.045C277.269 118.4 277.381 118.512 277.381 118.736V119.024C277.381 119.248 277.269 119.36 277.045 119.36ZM287.153 123.824C287.153 121.648 288.945 120.848 291.137 120.848C293.312 120.848 295.121 121.648 295.121 123.824C295.121 126 293.312 126.784 291.137 126.784C288.945 126.784 287.153 126 287.153 123.824ZM284.209 116.032C284.209 113.664 285.825 112.784 287.809 112.784C289.793 112.784 291.425 113.664 291.425 116.032C291.425 118.384 289.793 119.232 287.809 119.232C285.825 119.232 284.209 118.384 284.209 116.032ZM288.305 123.84C288.305 125.36 289.601 125.92 291.137 125.92C292.72 125.92 293.985 125.36 293.985 123.84C293.985 122.288 292.72 121.712 291.137 121.712C289.601 121.712 288.305 122.288 288.305 123.84ZM285.361 116.048C285.361 117.776 286.465 118.368 287.809 118.368C289.153 118.368 290.289 117.776 290.289 116.048C290.289 114.256 289.153 113.648 287.809 113.648C286.465 113.648 285.361 114.256 285.361 116.048ZM295.073 112.88V115.728H296.753C297.057 115.728 297.169 115.664 297.313 115.664C297.441 115.664 297.585 115.824 297.585 115.968C297.585 116.224 297.105 116.608 296.753 116.608H295.073V119.536C295.073 120.16 294.865 120.752 294.369 120.752C294.129 120.752 293.969 120.512 293.969 119.936V113.184C293.969 112.432 293.649 112.224 292.833 112.016C292.529 111.936 292.689 111.376 293.025 111.424L294.833 111.68C295.169 111.728 295.137 111.92 295.137 112.032C295.137 112.16 295.073 112.432 295.073 112.88ZM300.823 118.272V114.272C300.823 113.728 300.663 113.552 299.975 113.456C299.623 113.408 299.767 112.832 300.023 112.832H308.295C308.583 112.832 308.711 112.768 308.855 112.768C308.983 112.768 309.127 112.928 309.127 113.072C309.127 113.344 308.647 113.712 308.295 113.712H301.927V118.128C301.927 118.368 302.039 118.496 302.279 118.496H308.503C308.791 118.496 308.919 118.432 309.063 118.432C309.191 118.432 309.335 118.592 309.335 118.736C309.335 119.008 308.855 119.376 308.503 119.376H301.895C301.191 119.376 300.823 118.912 300.823 118.272ZM298.167 122.928C297.927 122.672 298.183 122.272 298.471 122.416C298.743 122.544 299.399 122.544 300.247 122.544H310.967C311.255 122.544 311.383 122.48 311.527 122.48C311.719 122.48 311.799 122.592 311.799 122.784C311.799 123.104 311.431 123.424 310.967 123.424H300.247C299.751 123.424 299.415 123.504 299.159 123.504C298.887 123.504 298.535 123.328 298.167 122.928ZM317.869 113.584C318.141 113.584 318.509 113.872 318.509 114.08C318.509 114.224 318.461 114.432 318.461 114.864V117.68V117.712C318.461 117.984 318.141 118.352 317.789 118.352H314.765V121.264C314.765 121.504 314.877 121.632 315.117 121.632C316.477 121.632 317.853 121.568 319.213 121.36C319.517 121.312 319.581 121.264 319.725 121.248C319.853 121.248 320.013 121.392 320.013 121.536C320.029 121.808 319.645 122.064 319.277 122.144C317.901 122.416 316.397 122.56 314.733 122.592C314.029 122.608 313.677 122.128 313.677 121.488V118.912C313.677 118.368 313.517 118.192 312.829 118.096C312.477 118.048 312.621 117.472 312.877 117.472H317.373V114.56H315.277C314.781 114.56 314.445 114.64 314.189 114.64C313.917 114.64 313.565 114.464 313.197 114.064C312.957 113.808 313.213 113.408 313.501 113.552C313.773 113.68 314.429 113.68 315.277 113.68H316.957C317.485 113.664 317.661 113.584 317.869 113.584ZM318.925 117.6C318.669 117.344 318.941 116.976 319.229 117.104C319.469 117.216 319.837 117.232 320.733 117.232H321.021V113.504C321.021 112.784 320.733 112.576 319.949 112.368C319.661 112.288 319.805 111.744 320.141 111.792L321.837 112.016C322.173 112.064 322.141 112.256 322.141 112.368C322.141 112.496 322.077 112.768 322.077 113.216V124.224C322.077 124.848 321.853 125.408 321.405 125.408C321.197 125.408 321.021 125.168 321.021 124.608V118.096H320.733C320.237 118.096 320.141 118.176 319.901 118.176C319.693 118.176 319.293 117.968 318.925 117.6ZM325.053 112.88V124.848C325.053 125.472 324.829 126.032 324.365 126.032C324.157 126.032 323.981 125.792 323.981 125.232V113.184C323.981 112.432 323.661 112.224 322.845 112.016C322.541 111.936 322.701 111.376 323.037 111.424L324.813 111.68C325.149 111.728 325.117 111.92 325.117 112.032C325.117 112.16 325.053 112.432 325.053 112.88ZM338.248 118.448H333.336C332.632 118.448 332.264 117.984 332.264 117.344V114.192C332.264 113.632 332.2 113.488 331.576 113.376C331.224 113.328 331.368 112.752 331.624 112.752H337.4C337.928 112.736 338.104 112.656 338.328 112.656C338.6 112.656 338.968 112.944 338.968 113.152C338.968 113.296 338.92 113.504 338.92 113.936V117.808C338.92 118.08 338.616 118.448 338.248 118.448ZM342.088 120.16C342.36 120.16 342.728 120.448 342.728 120.656C342.728 120.8 342.68 121.008 342.68 121.44V123.184C342.68 123.44 342.456 123.808 342.088 123.808H335.864V125.328C335.864 125.568 335.976 125.696 336.216 125.696H342.456C342.76 125.696 342.952 125.616 343.096 125.616C343.224 125.616 343.368 125.776 343.368 125.92C343.368 126.176 342.84 126.56 342.456 126.56H335.832C335.128 126.56 334.76 126.096 334.76 125.456V124.288C334.76 123.792 334.712 123.632 334.072 123.552C333.72 123.504 333.848 122.944 334.12 122.944H341.576V121.12H336.232C335.736 121.12 335.4 121.2 335.144 121.2C334.872 121.2 334.52 121.024 334.152 120.624C333.896 120.368 334.168 120 334.456 120.128C334.728 120.256 335.384 120.256 336.232 120.256H341.16C341.688 120.24 341.864 120.16 342.088 120.16ZM333.368 117.2C333.368 117.44 333.48 117.568 333.72 117.568H337.816V113.632H333.368V117.2ZM342.776 112.88V115.328H344.456C344.76 115.328 344.872 115.264 345.016 115.264C345.144 115.264 345.288 115.424 345.288 115.568C345.288 115.824 344.808 116.208 344.456 116.208H342.776V118.352C342.776 118.976 342.568 119.568 342.072 119.568C341.832 119.568 341.672 119.328 341.672 118.752V113.184C341.672 112.432 341.352 112.224 340.536 112.016C340.232 111.936 340.392 111.376 340.728 111.424L342.536 111.68C342.872 111.728 342.84 111.92 342.84 112.032C342.84 112.16 342.776 112.432 342.776 112.88ZM356.158 112.56C356.43 112.56 356.798 112.848 356.798 113.056C356.798 113.2 356.75 113.408 356.75 113.84V116.08V116.112C356.75 116.384 356.43 116.752 356.078 116.752H349.582V118.736C349.582 118.976 349.694 119.104 349.934 119.104H356.494C356.782 119.104 356.91 119.04 357.054 119.04C357.182 119.04 357.326 119.216 357.326 119.36C357.326 119.632 356.846 119.984 356.494 119.984H349.55C348.846 119.984 348.478 119.52 348.478 118.88V117.232C348.478 116.736 348.43 116.576 347.79 116.496C347.438 116.448 347.582 115.872 347.838 115.872H355.646V113.536H350.11C349.614 113.536 349.278 113.616 349.022 113.616C348.75 113.616 348.398 113.44 348.03 113.04C347.79 112.784 348.046 112.384 348.334 112.528C348.606 112.656 349.262 112.656 350.11 112.656H355.23C355.758 112.64 355.95 112.56 356.158 112.56ZM345.87 123.248C345.63 122.992 345.886 122.592 346.174 122.736C346.446 122.864 347.102 122.864 347.95 122.864H352.206V122.016C352.206 121.376 352.046 121.216 351.262 121.024C350.958 120.944 351.054 120.384 351.438 120.432L353.07 120.608C353.39 120.64 353.358 120.848 353.358 120.96C353.358 121.104 353.31 121.312 353.31 121.744V122.864H358.67C358.958 122.864 359.086 122.8 359.23 122.8C359.422 122.8 359.502 122.912 359.502 123.104C359.502 123.424 359.134 123.744 358.67 123.744H347.95C347.454 123.744 347.118 123.824 346.862 123.824C346.59 123.824 346.238 123.648 345.87 123.248ZM370.217 119.36H366.089C365.865 119.36 365.753 119.248 365.753 119.024V118.736C365.753 118.512 365.865 118.4 366.089 118.4H370.217C370.441 118.4 370.553 118.512 370.553 118.736V119.024C370.553 119.248 370.441 119.36 370.217 119.36Z" fill="#ABB8CE"/>
</g>
<rect x="12.5" y="9.5" width="383" height="145" rx="15.5" stroke="#F2F2F2"/>
</g>
<path d="M169.48 178.88H167.928L167.208 181.664C167.144 181.888 167 182 166.776 182H166.392C166.168 182 166.088 181.888 166.152 181.664L166.872 178.88H164.632L163.912 181.664C163.848 181.888 163.704 182 163.48 182H163.096C162.872 182 162.792 181.888 162.856 181.664L163.576 178.88H162.28C162.056 178.88 161.928 178.768 161.992 178.56L162.088 178.24C162.152 178.048 162.232 178 162.456 178H163.8L164.408 175.616H162.904C162.68 175.616 162.552 175.504 162.616 175.296L162.712 174.976C162.776 174.784 162.856 174.736 163.08 174.736H164.632L165.368 171.936C165.432 171.712 165.576 171.6 165.8 171.6H166.184C166.408 171.6 166.488 171.712 166.424 171.936L165.688 174.736H167.928L168.664 171.936C168.728 171.712 168.872 171.6 169.096 171.6H169.48C169.704 171.6 169.784 171.712 169.72 171.936L168.984 174.736H170.28C170.504 174.736 170.632 174.848 170.568 175.056L170.472 175.376C170.408 175.568 170.328 175.616 170.104 175.616H168.76L168.152 178H169.656C169.88 178 170.008 178.112 169.944 178.32L169.848 178.64C169.784 178.832 169.704 178.88 169.48 178.88ZM165.464 175.616L164.856 178H167.096L167.704 175.616H165.464ZM173.131 173.056C173.131 172.416 172.955 172.272 172.139 172.064C171.835 171.984 171.931 171.424 172.315 171.472L173.995 171.648C174.315 171.696 174.283 171.888 174.283 172C174.283 172.144 174.235 172.352 174.235 172.784V178.304C174.235 178.544 174.347 178.672 174.587 178.672C176.827 178.72 179.195 178.384 182.219 177.632V171.184C182.219 170.432 181.899 170.224 181.083 170.016C180.779 169.936 180.939 169.376 181.275 169.424L183.083 169.68C183.419 169.728 183.387 169.92 183.387 170.032C183.387 170.16 183.323 170.432 183.323 170.88V174.912H185.003C185.307 174.912 185.419 174.848 185.563 174.848C185.691 174.848 185.835 175.008 185.835 175.152C185.835 175.408 185.355 175.792 185.003 175.792H183.323V182.832C183.323 183.456 183.115 184.048 182.619 184.048C182.379 184.048 182.219 183.808 182.219 183.232V178.304C179.195 179.184 176.683 179.584 174.203 179.632C173.499 179.648 173.131 179.168 173.131 178.528V173.056ZM186.865 175.536C186.865 172.512 188.513 171.376 190.529 171.376C192.529 171.376 194.193 172.512 194.193 175.536C194.193 178.56 192.529 179.664 190.529 179.664C188.513 179.664 186.865 178.56 186.865 175.536ZM188.017 175.552C188.017 177.952 189.169 178.8 190.529 178.8C191.921 178.8 193.041 177.952 193.041 175.552C193.041 173.12 191.921 172.24 190.529 172.24C189.169 172.24 188.017 173.12 188.017 175.552ZM199.409 176.112H197.729V182.832C197.729 183.456 197.521 184.048 197.025 184.048C196.785 184.048 196.625 183.808 196.625 183.232V171.184C196.625 170.432 196.305 170.224 195.489 170.016C195.185 169.936 195.345 169.376 195.681 169.424L197.489 169.68C197.825 169.728 197.793 169.92 197.793 170.032C197.793 170.16 197.729 170.432 197.729 170.88V175.232H199.409C199.713 175.232 199.825 175.168 199.969 175.168C200.097 175.168 200.241 175.328 200.241 175.472C200.241 175.728 199.761 176.112 199.409 176.112ZM213.815 176.592H212.135V182.832C212.135 183.456 211.927 184.048 211.431 184.048C211.191 184.048 211.031 183.808 211.031 183.232V171.184C211.031 170.432 210.711 170.224 209.895 170.016C209.591 169.936 209.751 169.376 210.087 169.424L211.895 169.68C212.231 169.728 212.199 169.92 212.199 170.032C212.199 170.16 212.135 170.432 212.135 170.88V175.712H213.815C214.119 175.712 214.231 175.648 214.375 175.648C214.503 175.648 214.647 175.808 214.647 175.952C214.647 176.208 214.167 176.592 213.815 176.592ZM200.839 179.968C204.007 178.24 206.087 175.648 207.191 172.464H203.463C202.967 172.464 202.631 172.544 202.375 172.544C202.103 172.544 201.751 172.368 201.383 171.968C201.143 171.712 201.399 171.312 201.687 171.456C201.959 171.584 202.615 171.584 203.463 171.584H206.759C207.431 171.584 207.687 171.488 207.911 171.488C208.183 171.488 208.551 171.776 208.551 171.984C208.551 172.16 208.423 172.416 208.343 172.752C207.207 176.256 204.791 178.832 201.175 180.496C200.855 180.64 200.535 180.128 200.839 179.968ZM215.677 175.536C215.677 172.512 217.325 171.376 219.341 171.376C221.341 171.376 223.005 172.512 223.005 175.536C223.005 178.56 221.341 179.664 219.341 179.664C217.325 179.664 215.677 178.56 215.677 175.536ZM216.829 175.552C216.829 177.952 217.981 178.8 219.341 178.8C220.733 178.8 221.853 177.952 221.853 175.552C221.853 173.12 220.733 172.24 219.341 172.24C217.981 172.24 216.829 173.12 216.829 175.552ZM228.221 178.496H226.541V182.832C226.541 183.456 226.333 184.048 225.837 184.048C225.597 184.048 225.437 183.808 225.437 183.232V171.184C225.437 170.432 225.117 170.224 224.301 170.016C223.997 169.936 224.157 169.376 224.493 169.424L226.301 169.68C226.637 169.728 226.605 169.92 226.605 170.032C226.605 170.16 226.541 170.432 226.541 170.88V173.616H228.221C228.525 173.616 228.637 173.552 228.781 173.552C228.909 173.552 229.053 173.712 229.053 173.856C229.053 174.112 228.573 174.496 228.221 174.496H226.541V177.616H228.221C228.525 177.616 228.637 177.552 228.781 177.552C228.909 177.552 229.053 177.712 229.053 177.856C229.053 178.112 228.573 178.496 228.221 178.496ZM230.708 175.376C230.708 173.664 232.212 173.008 234.068 173.008C235.94 173.008 237.46 173.664 237.46 175.376C237.46 177.088 235.94 177.728 234.068 177.728C232.212 177.728 230.708 177.088 230.708 175.376ZM240.26 178.736C240.532 178.736 240.9 179.024 240.9 179.232C240.9 179.376 240.852 179.584 240.852 180.016V181.472C240.852 181.728 240.628 182.096 240.26 182.096H234.036V183.328C234.036 183.568 234.148 183.696 234.388 183.696H240.628C240.932 183.696 241.124 183.616 241.268 183.616C241.396 183.616 241.54 183.776 241.54 183.92C241.54 184.176 241.012 184.56 240.628 184.56H234.004C233.299 184.56 232.932 184.096 232.932 183.456V182.576C232.932 182.08 232.884 181.92 232.244 181.84C231.892 181.792 232.02 181.232 232.292 181.232H239.748V179.696H234.404C233.908 179.696 233.572 179.776 233.316 179.776C233.044 179.776 232.692 179.6 232.324 179.2C232.068 178.944 232.34 178.576 232.628 178.704C232.9 178.832 233.556 178.832 234.404 178.832H239.332C239.86 178.816 240.036 178.736 240.26 178.736ZM240.948 170.88V173.904H242.628C242.932 173.904 243.044 173.84 243.188 173.84C243.316 173.84 243.46 174 243.46 174.144C243.46 174.4 242.98 174.784 242.628 174.784H240.948V176.928C240.948 177.552 240.74 178.144 240.244 178.144C240.004 178.144 239.844 177.904 239.844 177.328V171.184C239.844 170.432 239.524 170.224 238.708 170.016C238.404 169.936 238.564 169.376 238.9 169.424L240.708 169.68C241.044 169.728 241.012 169.92 241.012 170.032C241.012 170.16 240.948 170.432 240.948 170.88ZM231.844 175.392C231.844 176.496 232.868 176.864 234.068 176.864C235.316 176.864 236.34 176.496 236.34 175.392C236.34 174.256 235.316 173.888 234.068 173.888C232.868 173.888 231.844 174.256 231.844 175.392ZM237.46 172.368H231.844C231.348 172.368 231.012 172.448 230.756 172.448C230.484 172.448 230.132 172.256 229.764 171.856C229.524 171.6 229.78 171.232 230.068 171.376C230.34 171.504 230.996 171.504 231.844 171.504H237.46C237.748 171.504 237.876 171.44 238.02 171.44C238.148 171.44 238.292 171.584 238.292 171.728C238.292 172 237.812 172.368 237.46 172.368ZM234.004 170.688C233.22 170.688 232.436 170.704 231.764 170.08C231.508 169.84 231.764 169.408 232.068 169.536C232.34 169.664 232.932 169.744 234.004 169.744H235.892C236.02 169.744 236.148 169.936 236.148 170.112C236.148 170.384 235.332 170.688 234.004 170.688ZM253.642 171.2V175.376H255.626V171.168C255.626 170.416 255.498 170.224 254.682 170.016C254.378 169.936 254.538 169.376 254.874 169.424L256.442 169.664C256.778 169.712 256.746 169.904 256.746 170.016C256.746 170.144 256.682 170.416 256.682 170.864V182.848C256.682 183.472 256.474 184.032 256.01 184.032C255.802 184.032 255.626 183.792 255.626 183.232V176.24H253.642V182.224C253.642 182.848 253.434 183.408 252.986 183.408C252.778 183.408 252.602 183.168 252.602 182.608V178.912C251.706 179.36 250.714 179.68 249.61 179.84C249.082 179.92 248.746 179.616 248.602 179.2C247.866 179.568 247.002 179.776 246.01 179.84C245.306 179.888 244.938 179.376 244.938 178.736V173.28C244.938 172.72 244.89 172.544 244.346 172.464C243.994 172.416 244.138 171.84 244.394 171.84H246.778C247.082 171.84 247.194 171.776 247.338 171.776C247.466 171.776 247.61 171.936 247.61 172.08C247.61 172.336 247.13 172.72 246.778 172.72H245.994V178.512C245.994 178.752 246.106 178.88 246.346 178.88C247.002 178.88 247.786 178.768 248.538 178.544V173.28C248.538 172.72 248.506 172.544 248.058 172.464C247.706 172.4 247.85 171.84 248.106 171.84H250.874C251.178 171.84 251.29 171.776 251.434 171.776C251.562 171.776 251.706 171.936 251.706 172.08C251.706 172.336 251.226 172.72 250.874 172.72H249.594V178.512C249.594 178.752 249.706 178.896 249.946 178.88C250.794 178.8 251.658 178.576 252.602 178.24V171.488C252.602 170.768 252.506 170.576 251.722 170.368C251.434 170.288 251.578 169.744 251.914 169.792L253.402 170C253.738 170.048 253.706 170.24 253.706 170.352C253.706 170.48 253.642 170.752 253.642 171.2Z" fill="#ABB8CE"/>
<path d="M278.668 178.88H277.116L276.396 181.664C276.332 181.888 276.188 182 275.964 182H275.58C275.356 182 275.276 181.888 275.34 181.664L276.06 178.88H273.82L273.1 181.664C273.036 181.888 272.892 182 272.668 182H272.284C272.06 182 271.98 181.888 272.044 181.664L272.764 178.88H271.468C271.243 178.88 271.116 178.768 271.18 178.56L271.276 178.24C271.34 178.048 271.42 178 271.644 178H272.988L273.596 175.616H272.092C271.868 175.616 271.74 175.504 271.804 175.296L271.9 174.976C271.964 174.784 272.044 174.736 272.268 174.736H273.82L274.556 171.936C274.62 171.712 274.764 171.6 274.988 171.6H275.372C275.596 171.6 275.676 171.712 275.612 171.936L274.876 174.736H277.116L277.852 171.936C277.916 171.712 278.06 171.6 278.284 171.6H278.668C278.892 171.6 278.972 171.712 278.908 171.936L278.172 174.736H279.468C279.692 174.736 279.82 174.848 279.756 175.056L279.66 175.376C279.595 175.568 279.516 175.616 279.292 175.616H277.948L277.34 178H278.844C279.068 178 279.196 178.112 279.132 178.32L279.036 178.64C278.972 178.832 278.892 178.88 278.668 178.88ZM274.652 175.616L274.044 178H276.284L276.892 175.616H274.652ZM283.95 183.472V180.752C283.95 180.192 283.886 180.048 283.262 179.936C282.91 179.888 283.054 179.312 283.31 179.312H287.374V176.464H283.278C282.782 176.464 282.446 176.544 282.19 176.544C281.918 176.544 281.566 176.368 281.198 175.968C280.958 175.712 281.214 175.312 281.502 175.456C281.774 175.584 282.43 175.584 283.278 175.584H284.958C285.406 174.16 285.71 172.656 285.918 171.136H284.574C284.078 171.136 283.742 171.216 283.486 171.216C283.214 171.216 282.862 171.04 282.494 170.64C282.254 170.384 282.51 169.984 282.798 170.128C283.07 170.256 283.726 170.256 284.574 170.256H285.454C286.126 170.256 286.366 170.16 286.59 170.16C286.862 170.16 287.214 170.448 287.214 170.656C287.214 170.8 287.198 170.976 287.182 171.28C286.894 172.816 286.414 174.256 285.71 175.584H291.166C291.502 174.16 291.726 172.656 291.822 171.136H289.774C289.278 171.136 288.942 171.216 288.686 171.216C288.414 171.216 288.062 171.04 287.694 170.64C287.454 170.384 287.71 169.984 287.998 170.128C288.27 170.256 288.926 170.256 289.774 170.256H291.358C292.03 170.256 292.27 170.16 292.494 170.16C292.766 170.16 293.118 170.448 293.118 170.656C293.118 170.8 293.102 170.96 293.086 171.28C292.926 172.768 292.51 174.208 291.902 175.584H293.998C294.286 175.584 294.414 175.52 294.558 175.52C294.75 175.52 294.83 175.632 294.83 175.824C294.83 176.144 294.462 176.464 293.998 176.464H288.478V179.312H290.334C291.022 179.312 291.214 179.216 291.454 179.216C291.726 179.216 292.094 179.504 292.094 179.712C292.094 179.856 292.046 180.064 292.046 180.496V183.904V183.936C292.046 184.208 291.742 184.576 291.374 184.576H285.022C284.318 184.576 283.95 184.112 283.95 183.472ZM285.406 183.696H290.942V180.192H285.054V183.328C285.054 183.568 285.166 183.696 285.406 183.696ZM298.132 172.272C298.132 170.304 300.004 169.584 302.34 169.584C304.692 169.584 306.58 170.304 306.58 172.272C306.58 174.24 304.692 174.944 302.34 174.944C300.004 174.944 298.132 174.24 298.132 172.272ZM306.004 178.448C306.276 178.448 306.644 178.736 306.644 178.944C306.644 179.088 306.596 179.296 306.596 179.728V181.296V181.328C306.596 181.584 306.372 181.952 306.004 181.952H299.46V183.328C299.46 183.568 299.572 183.696 299.812 183.696H306.34C306.644 183.696 306.836 183.616 306.98 183.616C307.108 183.616 307.252 183.776 307.252 183.92C307.252 184.176 306.724 184.56 306.34 184.56H299.428C298.724 184.56 298.356 184.096 298.356 183.456V182.432C298.356 181.936 298.308 181.776 297.668 181.696C297.316 181.648 297.444 181.088 297.716 181.088H305.492V179.408H299.908C299.412 179.408 299.076 179.488 298.82 179.488C298.548 179.488 298.196 179.312 297.828 178.912C297.572 178.656 297.844 178.288 298.132 178.416C298.404 178.544 299.06 178.544 299.908 178.544H304.884C305.572 178.544 305.764 178.448 306.004 178.448ZM299.268 172.288C299.268 173.616 300.676 174.08 302.34 174.08C304.052 174.08 305.46 173.616 305.46 172.288C305.46 170.928 304.052 170.448 302.34 170.448C300.676 170.448 299.268 170.928 299.268 172.288ZM295.604 176.496C295.364 176.24 295.62 175.84 295.908 175.984C296.18 176.112 296.836 176.112 297.684 176.112H308.404C308.692 176.112 308.82 176.048 308.964 176.048C309.156 176.048 309.236 176.16 309.236 176.352C309.236 176.672 308.868 176.992 308.404 176.992H297.684C297.188 176.992 296.852 177.072 296.596 177.072C296.324 177.072 295.972 176.896 295.604 176.496ZM322.123 170.88V182.832C322.123 183.456 321.915 184.048 321.419 184.048C321.179 184.048 321.019 183.808 321.019 183.232V171.184C321.019 170.432 320.699 170.224 319.883 170.016C319.579 169.936 319.739 169.376 320.075 169.424L321.883 169.68C322.219 169.728 322.187 169.92 322.187 170.032C322.187 170.16 322.123 170.432 322.123 170.88ZM310.939 175.536C310.939 172.512 312.571 171.376 314.555 171.376C316.539 171.376 318.187 172.512 318.187 175.536C318.187 178.56 316.539 179.664 314.555 179.664C312.571 179.664 310.939 178.56 310.939 175.536ZM312.091 175.552C312.091 177.952 313.227 178.8 314.555 178.8C315.899 178.8 317.035 177.952 317.035 175.552C317.035 173.12 315.899 172.24 314.555 172.24C313.227 172.24 312.091 173.12 312.091 175.552ZM334.673 170.016C334.945 170.016 335.313 170.304 335.313 170.512C335.313 170.656 335.265 170.864 335.265 171.296V173.296C335.265 173.552 335.041 173.92 334.673 173.92H328.161V175.6C328.161 175.84 328.273 175.968 328.513 175.968H334.913C335.217 175.968 335.409 175.888 335.553 175.888C335.681 175.888 335.825 176.048 335.825 176.192C335.825 176.448 335.297 176.832 334.913 176.832H328.129C327.425 176.832 327.057 176.368 327.057 175.728V174.4C327.057 173.904 327.009 173.744 326.369 173.664C326.017 173.616 326.145 173.056 326.417 173.056H334.161V170.976H328.689C328.193 170.976 327.857 171.056 327.601 171.056C327.329 171.056 326.977 170.88 326.609 170.48C326.353 170.224 326.625 169.856 326.913 169.984C327.185 170.112 327.841 170.112 328.689 170.112H333.553C334.241 170.112 334.433 170.016 334.673 170.016ZM324.417 179.008C324.177 178.752 324.433 178.352 324.721 178.496C324.993 178.624 325.649 178.624 326.497 178.624H337.217C337.505 178.624 337.633 178.56 337.777 178.56C337.969 178.56 338.049 178.672 338.049 178.864C338.049 179.184 337.681 179.504 337.217 179.504H331.713V183.152C331.713 183.776 331.489 184.368 330.977 184.368C330.657 184.368 330.609 183.92 330.609 183.552V179.504H326.497C326.001 179.504 325.665 179.584 325.409 179.584C325.137 179.584 324.785 179.408 324.417 179.008ZM338.823 180.768C338.583 180.512 338.839 180.112 339.127 180.256C339.399 180.384 340.055 180.384 340.903 180.384H344.039V176.912C344.039 176.272 343.879 176.112 343.095 175.92C342.791 175.84 342.887 175.28 343.271 175.328L344.903 175.504C345.223 175.536 345.191 175.744 345.191 175.856C345.191 176 345.143 176.208 345.143 176.64V180.384H351.623C351.911 180.384 352.039 180.32 352.183 180.32C352.375 180.32 352.455 180.432 352.455 180.624C352.455 180.944 352.087 181.264 351.623 181.264H340.903C340.407 181.264 340.071 181.344 339.815 181.344C339.543 181.344 339.191 181.168 338.823 180.768ZM350.055 172.144C350.007 173.728 349.415 176.464 348.567 178.624C348.439 178.96 347.863 178.8 347.927 178.496C348.407 176.288 348.695 174.08 348.759 171.84H342.711C342.215 171.84 341.879 171.92 341.623 171.92C341.351 171.92 340.999 171.744 340.631 171.344C340.391 171.088 340.647 170.688 340.935 170.832C341.207 170.96 341.863 170.96 342.711 170.96H348.295C348.967 170.96 349.239 170.864 349.463 170.864C349.735 170.864 350.103 171.152 350.103 171.36C350.103 171.504 350.071 171.712 350.055 172.144ZM365.261 184.56H357.869C357.373 184.56 357.037 184.64 356.781 184.64C356.509 184.64 356.157 184.464 355.789 184.064C355.549 183.808 355.805 183.408 356.093 183.552C356.365 183.68 357.021 183.68 357.869 183.68H358.525V182.176C358.525 181.536 358.509 181.376 357.853 181.216C357.549 181.136 357.645 180.608 358.029 180.656L359.357 180.8C359.677 180.832 359.645 181.04 359.645 181.152C359.645 181.296 359.597 181.504 359.597 181.936V183.68H362.941V182.08C362.941 181.44 362.925 181.264 362.269 181.104C361.965 181.024 362.061 180.496 362.445 180.544L363.773 180.704C364.093 180.736 364.061 180.944 364.061 181.056C364.061 181.2 364.013 181.408 364.013 181.84V183.68H365.261C365.597 183.68 365.837 183.616 365.981 183.616C366.109 183.616 366.253 183.776 366.253 183.92C366.253 184.192 365.661 184.56 365.261 184.56ZM358.925 170.928C358.701 171.872 358.381 172.736 357.949 173.536C359.069 174.4 360.269 175.2 361.389 175.824C361.581 176 361.805 176.512 361.805 176.896C361.805 177.136 361.501 177.392 361.245 177.152C360.285 176.288 358.989 175.296 357.517 174.288C356.717 175.52 355.613 176.56 354.189 177.392C353.885 177.568 353.469 177.184 353.725 176.976C355.613 175.52 356.941 173.744 357.613 171.616C357.613 171.12 357.293 170.896 356.589 170.64C356.301 170.512 356.429 169.984 356.813 170.064L358.669 170.48C358.989 170.544 358.941 170.816 358.925 170.928ZM365.341 170.88V177.088C365.341 177.712 365.117 178.304 364.637 178.304C364.413 178.304 364.237 178.064 364.237 177.488V171.184C364.237 170.448 363.901 170.224 363.101 170.016C362.797 169.936 362.941 169.376 363.293 169.424L365.101 169.68C365.437 169.728 365.405 169.92 365.405 170.032C365.405 170.16 365.341 170.432 365.341 170.88ZM364.781 180.016H358.349C357.853 180.016 357.517 180.096 357.261 180.096C356.989 180.096 356.637 179.92 356.269 179.52C356.029 179.264 356.285 178.864 356.573 179.008C356.845 179.136 357.501 179.136 358.349 179.136H364.781C365.117 179.136 365.357 179.072 365.501 179.072C365.629 179.072 365.773 179.232 365.773 179.376C365.773 179.648 365.181 180.016 364.781 180.016ZM370.164 172.272C370.164 170.304 372.036 169.584 374.372 169.584C376.724 169.584 378.612 170.304 378.612 172.272C378.612 174.24 376.724 174.944 374.372 174.944C372.036 174.944 370.164 174.24 370.164 172.272ZM378.036 178.448C378.308 178.448 378.676 178.736 378.676 178.944C378.676 179.088 378.628 179.296 378.628 179.728V181.296V181.328C378.628 181.584 378.404 181.952 378.036 181.952H371.492V183.328C371.492 183.568 371.604 183.696 371.844 183.696H378.372C378.676 183.696 378.868 183.616 379.012 183.616C379.14 183.616 379.284 183.776 379.284 183.92C379.284 184.176 378.756 184.56 378.372 184.56H371.46C370.756 184.56 370.388 184.096 370.388 183.456V182.432C370.388 181.936 370.34 181.776 369.7 181.696C369.348 181.648 369.476 181.088 369.748 181.088H377.524V179.408H371.94C371.444 179.408 371.108 179.488 370.852 179.488C370.58 179.488 370.228 179.312 369.86 178.912C369.604 178.656 369.876 178.288 370.164 178.416C370.436 178.544 371.092 178.544 371.94 178.544H376.916C377.604 178.544 377.796 178.448 378.036 178.448ZM371.299 172.288C371.299 173.616 372.708 174.08 374.372 174.08C376.084 174.08 377.492 173.616 377.492 172.288C377.492 170.928 376.084 170.448 374.372 170.448C372.708 170.448 371.299 170.928 371.299 172.288ZM367.636 176.496C367.396 176.24 367.652 175.84 367.94 175.984C368.212 176.112 368.868 176.112 369.716 176.112H380.436C380.724 176.112 380.852 176.048 380.996 176.048C381.188 176.048 381.268 176.16 381.268 176.352C381.268 176.672 380.9 176.992 380.436 176.992H369.716C369.22 176.992 368.884 177.072 368.628 177.072C368.356 177.072 368.004 176.896 367.636 176.496ZM391.642 171.2V175.376H393.626V171.168C393.626 170.416 393.498 170.224 392.682 170.016C392.378 169.936 392.538 169.376 392.874 169.424L394.442 169.664C394.778 169.712 394.746 169.904 394.746 170.016C394.746 170.144 394.682 170.416 394.682 170.864V182.848C394.682 183.472 394.474 184.032 394.01 184.032C393.802 184.032 393.626 183.792 393.626 183.232V176.24H391.642V182.224C391.642 182.848 391.434 183.408 390.986 183.408C390.778 183.408 390.602 183.168 390.602 182.608V178.912C389.706 179.36 388.714 179.68 387.61 179.84C387.082 179.92 386.746 179.616 386.602 179.2C385.866 179.568 385.002 179.776 384.01 179.84C383.306 179.888 382.938 179.376 382.938 178.736V173.28C382.938 172.72 382.89 172.544 382.346 172.464C381.994 172.416 382.138 171.84 382.394 171.84H384.778C385.082 171.84 385.194 171.776 385.338 171.776C385.466 171.776 385.61 171.936 385.61 172.08C385.61 172.336 385.13 172.72 384.778 172.72H383.994V178.512C383.994 178.752 384.106 178.88 384.346 178.88C385.002 178.88 385.786 178.768 386.538 178.544V173.28C386.538 172.72 386.506 172.544 386.058 172.464C385.706 172.4 385.85 171.84 386.106 171.84H388.874C389.178 171.84 389.29 171.776 389.434 171.776C389.562 171.776 389.706 171.936 389.706 172.08C389.706 172.336 389.226 172.72 388.874 172.72H387.594V178.512C387.594 178.752 387.706 178.896 387.946 178.88C388.794 178.8 389.658 178.576 390.602 178.24V171.488C390.602 170.768 390.506 170.576 389.722 170.368C389.434 170.288 389.578 169.744 389.914 169.792L391.402 170C391.738 170.048 391.706 170.24 391.706 170.352C391.706 170.48 391.642 170.752 391.642 171.2Z" fill="#ABB8CE"/>
<defs>
<filter id="filter0_d_1142_9739" x="0" y="0" width="408" height="170" filterUnits="userSpaceOnUse" color-interpolation-filters="sRGB">
<feFlood flood-opacity="0" result="BackgroundImageFix"/>
<feColorMatrix in="SourceAlpha" type="matrix" values="0 0 0 0 0 0 0 0 0 0 0 0 0 0 0 0 0 0 127 0" result="hardAlpha"/>
<feOffset dy="3"/>
<feGaussianBlur stdDeviation="6"/>
<feComposite in2="hardAlpha" operator="out"/>
<feColorMatrix type="matrix" values="0 0 0 0 0 0 0 0 0 0 0 0 0 0 0 0 0 0 0.04 0"/>
<feBlend mode="normal" in2="BackgroundImageFix" result="effect1_dropShadow_1142_9739"/>
<feBlend mode="normal" in="SourceGraphic" in2="effect1_dropShadow_1142_9739" result="shape"/>
</filter>
<clipPath id="clip0_1142_9739">
<rect x="12" y="9" width="384" height="146" rx="16" fill="white"/>
</clipPath>
</defs>
</svg>
