<svg xmlns="http://www.w3.org/2000/svg" xmlns:xlink="http://www.w3.org/1999/xlink" width="1080" zoomAndPan="magnify" viewBox="0 0 810 809.999993" height="1080" preserveAspectRatio="xMidYMid meet" version="1.0"><defs><clipPath id="0227d7f3ad"><path d="M 102 208 L 698 208 L 698 658 L 102 658 Z M 102 208 " clip-rule="nonzero"/></clipPath><clipPath id="12f2ae0f93"><path d="M 191.484375 84.355469 L 796.078125 317.527344 L 637.394531 728.988281 L 32.796875 495.816406 Z M 191.484375 84.355469 " clip-rule="nonzero"/></clipPath><clipPath id="f5d11a2f1d"><path d="M 191.484375 84.355469 L 796.078125 317.527344 L 637.394531 728.988281 L 32.796875 495.816406 Z M 191.484375 84.355469 " clip-rule="nonzero"/></clipPath><clipPath id="bd85bc506f"><path d="M 262 412 L 313 412 L 313 463 L 262 463 Z M 262 412 " clip-rule="nonzero"/></clipPath><clipPath id="83cf003204"><path d="M 191.484375 84.355469 L 796.078125 317.527344 L 637.394531 728.988281 L 32.796875 495.816406 Z M 191.484375 84.355469 " clip-rule="nonzero"/></clipPath><clipPath id="8aa7e0c700"><path d="M 191.484375 84.355469 L 796.078125 317.527344 L 637.394531 728.988281 L 32.796875 495.816406 Z M 191.484375 84.355469 " clip-rule="nonzero"/></clipPath><clipPath id="c226268c1e"><path d="M 457 471 L 507 471 L 507 522 L 457 522 Z M 457 471 " clip-rule="nonzero"/></clipPath><clipPath id="824216e846"><path d="M 191.484375 84.355469 L 796.078125 317.527344 L 637.394531 728.988281 L 32.796875 495.816406 Z M 191.484375 84.355469 " clip-rule="nonzero"/></clipPath><clipPath id="933c78ac67"><path d="M 191.484375 84.355469 L 796.078125 317.527344 L 637.394531 728.988281 L 32.796875 495.816406 Z M 191.484375 84.355469 " clip-rule="nonzero"/></clipPath><clipPath id="1ebf87d26b"><path d="M 351 455 L 415 455 L 415 524 L 351 524 Z M 351 455 " clip-rule="nonzero"/></clipPath><clipPath id="9187305ccc"><path d="M 191.484375 84.355469 L 796.078125 317.527344 L 637.394531 728.988281 L 32.796875 495.816406 Z M 191.484375 84.355469 " clip-rule="nonzero"/></clipPath><clipPath id="b87b2e86bd"><path d="M 191.484375 84.355469 L 796.078125 317.527344 L 637.394531 728.988281 L 32.796875 495.816406 Z M 191.484375 84.355469 " clip-rule="nonzero"/></clipPath><clipPath id="b7406461b4"><path d="M 357 326 L 431 326 L 431 430 L 357 430 Z M 357 326 " clip-rule="nonzero"/></clipPath><clipPath id="f10478ba8f"><path d="M 191.484375 84.355469 L 796.078125 317.527344 L 637.394531 728.988281 L 32.796875 495.816406 Z M 191.484375 84.355469 " clip-rule="nonzero"/></clipPath><clipPath id="eefac9eae7"><path d="M 191.484375 84.355469 L 796.078125 317.527344 L 637.394531 728.988281 L 32.796875 495.816406 Z M 191.484375 84.355469 " clip-rule="nonzero"/></clipPath><clipPath id="9747b885f5"><path d="M 357 335 L 401 335 L 401 405 L 357 405 Z M 357 335 " clip-rule="nonzero"/></clipPath><clipPath id="8254e811c4"><path d="M 191.484375 84.355469 L 796.078125 317.527344 L 637.394531 728.988281 L 32.796875 495.816406 Z M 191.484375 84.355469 " clip-rule="nonzero"/></clipPath><clipPath id="84e9bb6f90"><path d="M 191.484375 84.355469 L 796.078125 317.527344 L 637.394531 728.988281 L 32.796875 495.816406 Z M 191.484375 84.355469 " clip-rule="nonzero"/></clipPath><clipPath id="49c111e293"><path d="M 419 350 L 492 350 L 492 454 L 419 454 Z M 419 350 " clip-rule="nonzero"/></clipPath><clipPath id="d81ac9e795"><path d="M 191.484375 84.355469 L 796.078125 317.527344 L 637.394531 728.988281 L 32.796875 495.816406 Z M 191.484375 84.355469 " clip-rule="nonzero"/></clipPath><clipPath id="c4b049c2d8"><path d="M 191.484375 84.355469 L 796.078125 317.527344 L 637.394531 728.988281 L 32.796875 495.816406 Z M 191.484375 84.355469 " clip-rule="nonzero"/></clipPath><clipPath id="9196c642e2"><path d="M 419 359 L 462 359 L 462 429 L 419 429 Z M 419 359 " clip-rule="nonzero"/></clipPath><clipPath id="89a0c59ac8"><path d="M 191.484375 84.355469 L 796.078125 317.527344 L 637.394531 728.988281 L 32.796875 495.816406 Z M 191.484375 84.355469 " clip-rule="nonzero"/></clipPath><clipPath id="39f92f96cd"><path d="M 191.484375 84.355469 L 796.078125 317.527344 L 637.394531 728.988281 L 32.796875 495.816406 Z M 191.484375 84.355469 " clip-rule="nonzero"/></clipPath></defs><g clip-path="url(#0227d7f3ad)"><g clip-path="url(#12f2ae0f93)"><g clip-path="url(#f5d11a2f1d)"><path fill="#ffeded" d="M 165.0625 523.25 C 97.300781 476.269531 81.914062 369.195312 133.714844 305.035156 C 156.507812 276.796875 188.769531 257.714844 222.03125 243.199219 C 336.519531 193.234375 477.566406 194.707031 579.847656 266.417969 C 682.128906 338.132812 730.980469 485.773438 673.457031 596.652344 C 625.367188 689.355469 523.78125 656.757812 444.375 627.90625 C 356.496094 595.984375 241.554688 576.277344 165.054688 523.246094 Z M 165.0625 523.25 " fill-opacity="1" fill-rule="nonzero"/></g></g></g><g clip-path="url(#bd85bc506f)"><g clip-path="url(#83cf003204)"><g clip-path="url(#8aa7e0c700)"><path fill="#f9a6a0" d="M 310.964844 446.261719 C 315.277344 433.390625 309.714844 418.957031 296.621094 413.910156 C 284.410156 409.199219 268.570312 415.425781 264.273438 428.253906 C 259.957031 441.121094 265.523438 455.554688 278.613281 460.601562 C 290.828125 465.3125 306.667969 459.085938 310.964844 446.261719 Z M 310.964844 446.261719 " fill-opacity="1" fill-rule="nonzero"/></g></g></g><g clip-path="url(#c226268c1e)"><g clip-path="url(#824216e846)"><g clip-path="url(#933c78ac67)"><path fill="#f9a6a0" d="M 505.414062 505.285156 C 509.730469 492.414062 504.164062 477.984375 491.074219 472.933594 C 478.859375 468.226562 463.019531 474.453125 458.722656 487.277344 C 454.410156 500.148438 459.972656 514.578125 473.066406 519.628906 C 485.277344 524.335938 501.117188 518.109375 505.414062 505.285156 Z M 505.414062 505.285156 " fill-opacity="1" fill-rule="nonzero"/></g></g></g><g clip-path="url(#1ebf87d26b)"><g clip-path="url(#9187305ccc)"><g clip-path="url(#b87b2e86bd)"><path fill="#125d32" d="M 414.433594 476.652344 C 415.886719 470.714844 406.925781 467.175781 405.453125 473.191406 C 402.851562 483.8125 398.988281 494.234375 393.425781 503.675781 C 388.785156 511.570312 381.96875 516.328125 372.757812 512.496094 C 365.148438 509.335938 361.398438 501.164062 360.910156 493.308594 C 360.21875 482.234375 365.992188 472.050781 372.390625 463.484375 C 376.105469 458.507812 368.359375 452.789062 364.65625 457.757812 C 356.609375 468.535156 350.402344 481.078125 351.410156 494.855469 C 352.203125 505.695312 358.078125 516.273438 368.140625 520.96875 C 377.457031 525.316406 388.988281 523.957031 396.164062 516.34375 C 400.804688 511.421875 403.960938 504.796875 406.78125 498.707031 C 410.074219 491.621094 412.570312 484.238281 414.433594 476.652344 Z M 414.433594 476.652344 " fill-opacity="1" fill-rule="nonzero"/></g></g></g><g clip-path="url(#b7406461b4)"><g clip-path="url(#f10478ba8f)"><g clip-path="url(#eefac9eae7)"><path fill="#ffffff" d="M 424.648438 390.171875 C 418.90625 405.058594 409.765625 416.914062 399.933594 423.652344 C 391.527344 429.40625 382.59375 431.4375 374.816406 428.441406 C 366.046875 425.054688 360.472656 415.945312 358.65625 404.09375 C 356.964844 393.15625 358.46875 379.894531 363.585938 366.632812 C 368.699219 353.367188 376.488281 342.53125 385.085938 335.5625 C 394.398438 328.003906 404.648438 324.992188 413.410156 328.371094 C 421.179688 331.367188 426.445312 338.867188 428.8125 348.773438 C 431.582031 360.375 430.390625 375.285156 424.644531 390.179688 Z M 424.648438 390.171875 " fill-opacity="1" fill-rule="nonzero"/></g></g></g><g clip-path="url(#9747b885f5)"><g clip-path="url(#8254e811c4)"><g clip-path="url(#84e9bb6f90)"><path fill="#1a1a1a" d="M 397.585938 379.734375 C 390.914062 397.027344 374.238281 407.078125 358.652344 404.082031 C 356.960938 393.144531 358.464844 379.882812 363.578125 366.621094 C 368.695312 353.355469 376.484375 342.519531 385.082031 335.550781 C 398.644531 343.792969 404.257812 362.429688 397.585938 379.734375 Z M 397.585938 379.734375 " fill-opacity="1" fill-rule="nonzero"/></g></g></g><g clip-path="url(#49c111e293)"><g clip-path="url(#d81ac9e795)"><g clip-path="url(#c4b049c2d8)"><path fill="#ffffff" d="M 485.707031 413.71875 C 479.964844 428.609375 470.824219 440.460938 460.996094 447.203125 C 452.585938 452.957031 443.65625 454.988281 435.878906 451.988281 C 427.105469 448.605469 421.53125 439.492188 419.71875 427.644531 C 418.023438 416.707031 419.53125 403.441406 424.644531 390.179688 C 429.757812 376.917969 437.550781 366.078125 446.148438 359.113281 C 455.457031 351.550781 465.707031 348.542969 474.472656 351.921875 C 482.238281 354.917969 487.503906 362.414062 489.875 372.324219 C 492.640625 383.921875 491.449219 398.832031 485.703125 413.730469 Z M 485.707031 413.71875 " fill-opacity="1" fill-rule="nonzero"/></g></g></g><g clip-path="url(#9196c642e2)"><g clip-path="url(#89a0c59ac8)"><g clip-path="url(#39f92f96cd)"><path fill="#1a1a1a" d="M 458.644531 403.28125 C 451.972656 420.578125 435.296875 430.628906 419.710938 427.628906 C 418.019531 416.691406 419.523438 403.429688 424.640625 390.167969 C 429.753906 376.90625 437.542969 366.066406 446.140625 359.097656 C 459.703125 367.339844 465.316406 385.980469 458.644531 403.28125 Z M 458.644531 403.28125 " fill-opacity="1" fill-rule="nonzero"/></g></g></g></svg>