<svg xmlns="http://www.w3.org/2000/svg" xmlns:xlink="http://www.w3.org/1999/xlink" width="1080" zoomAndPan="magnify" viewBox="0 0 810 809.999993" height="1080" preserveAspectRatio="xMidYMid meet" version="1.0"><path fill="#d9d9d9" d="M 91.726562 332.78125 C 102.257812 307.574219 120.390625 286.351562 143.738281 272.0625 C 163 260.261719 185.535156 253.945312 207.960938 254.925781 C 209.390625 210.808594 234.546875 168.765625 273.308594 146.324219 C 297.027344 132.59375 323.9375 128.101562 350.875 132.371094 C 376.179688 136.378906 400.0625 149.453125 418.597656 166.90625 C 434.195312 181.589844 445.679688 199.714844 452.160156 219.710938 C 486.84375 186.492188 540.152344 171.945312 585.898438 188.152344 C 646.042969 209.46875 688.445312 277.707031 671.417969 341.152344 C 666.859375 358.15625 658.007812 374.5 645.582031 387.042969 C 640.886719 391.792969 635.71875 395.835938 630.175781 399.152344 C 657.886719 428.839844 670.949219 471.132812 667.539062 511.871094 C 665.390625 537.621094 657.699219 563.261719 642.992188 584.722656 C 626.492188 608.792969 603.273438 626.1875 576.460938 637.289062 C 525.019531 658.578125 461.734375 652.011719 414.992188 622.128906 C 408.539062 618 402.382812 613.355469 396.507812 608.441406 C 395.832031 607.871094 395.160156 607.292969 394.476562 606.730469 C 394.359375 606.625 394.042969 606.378906 393.71875 606.132812 C 393.503906 606.113281 392.535156 605.65625 391.757812 605.21875 C 391.375 605.363281 391.023438 605.5 390.871094 605.59375 C 390.238281 605.953125 387.417969 608.007812 387.691406 607.710938 C 386.359375 608.816406 385.0625 609.960938 383.769531 611.113281 C 380.945312 613.628906 378.074219 616.082031 375.105469 618.417969 C 368.308594 623.765625 361.335938 628.820312 353.839844 633.144531 C 326.070312 649.183594 290.742188 658.195312 259.714844 646.222656 C 232.046875 635.546875 213.578125 613.25 203.800781 585.710938 C 194.898438 560.632812 193.558594 532.632812 195.65625 506.304688 C 195.75 505.117188 195.871094 503.933594 195.980469 502.75 C 147.769531 493.539062 105.929688 457.925781 89.765625 411.15625 C 81.050781 385.925781 81.402344 357.457031 91.726562 332.78125 Z M 91.726562 332.78125 " fill-opacity="1" fill-rule="nonzero"/><path fill="#f9bbbb" d="M 468.667969 477.886719 C 469.203125 465.871094 478.402344 455.714844 490.835938 455.714844 C 502.433594 455.714844 513.542969 465.914062 513.003906 477.886719 C 512.46875 489.898438 503.269531 500.054688 490.835938 500.054688 C 479.238281 500.054688 468.128906 489.855469 468.667969 477.886719 Z M 468.667969 477.886719 " fill-opacity="1" fill-rule="nonzero"/><path fill="#f9bbbb" d="M 294.394531 462.042969 C 294.929688 450.027344 304.128906 439.875 316.5625 439.875 C 328.160156 439.875 339.269531 450.070312 338.730469 462.042969 C 338.195312 474.054688 328.992188 484.210938 316.5625 484.210938 C 304.964844 484.210938 293.855469 474.015625 294.394531 462.042969 Z M 294.394531 462.042969 " fill-opacity="1" fill-rule="nonzero"/><path fill="#550f5d" d="M 380.554688 474.347656 C 388.382812 480.5625 398.679688 482.359375 408.410156 482.847656 C 418.515625 483.359375 429.316406 483.34375 438.253906 478.003906 C 442.976562 475.183594 447.265625 482.550781 442.558594 485.363281 C 431.941406 491.707031 419.078125 492.046875 407.054688 491.289062 C 395.253906 490.546875 383.929688 487.828125 374.535156 480.367188 C 370.238281 476.957031 376.308594 470.960938 380.5625 474.335938 Z M 380.554688 474.347656 " fill-opacity="1" fill-rule="nonzero"/><path fill="#ffffff" d="M 417.183594 379.34375 C 417.183594 397.640625 422.070312 414.089844 429.8125 425.351562 C 436.429688 434.980469 445.152344 440.828125 454.699219 440.828125 C 465.476562 440.828125 475.199219 433.375 482.035156 421.449219 C 488.355469 410.449219 492.21875 395.636719 492.21875 379.34375 C 492.21875 363.050781 488.355469 348.238281 482.035156 337.238281 C 475.199219 325.3125 465.476562 317.859375 454.699219 317.859375 C 445.152344 317.859375 436.429688 323.707031 429.8125 333.335938 C 422.070312 344.597656 417.183594 361.046875 417.183594 379.34375 Z M 417.183594 379.34375 " fill-opacity="1" fill-rule="nonzero"/><path fill="#1a1a1a" d="M 450.4375 379.34375 C 450.4375 400.601562 464.132812 418.226562 482.035156 421.449219 C 488.355469 410.449219 492.21875 395.636719 492.21875 379.34375 C 492.21875 363.050781 488.355469 348.238281 482.035156 337.238281 C 464.132812 340.460938 450.4375 358.085938 450.4375 379.34375 Z M 450.4375 379.34375 " fill-opacity="1" fill-rule="nonzero"/><path fill="#ffffff" d="M 342.152344 379.34375 C 342.152344 397.640625 347.035156 414.089844 354.777344 425.351562 C 361.394531 434.980469 370.117188 440.828125 379.667969 440.828125 C 390.445312 440.828125 400.164062 433.375 407.003906 421.449219 C 413.320312 410.449219 417.183594 395.636719 417.183594 379.34375 C 417.183594 363.050781 413.320312 348.238281 407.003906 337.238281 C 400.164062 325.3125 390.445312 317.859375 379.667969 317.859375 C 370.117188 317.859375 361.394531 323.707031 354.777344 333.335938 C 347.035156 344.597656 342.152344 361.046875 342.152344 379.34375 Z M 342.152344 379.34375 " fill-opacity="1" fill-rule="nonzero"/><path fill="#1a1a1a" d="M 375.402344 379.34375 C 375.402344 400.601562 389.097656 418.226562 407.003906 421.449219 C 413.320312 410.449219 417.183594 395.636719 417.183594 379.34375 C 417.183594 363.050781 413.320312 348.238281 407.003906 337.238281 C 389.097656 340.460938 375.402344 358.085938 375.402344 379.34375 Z M 375.402344 379.34375 " fill-opacity="1" fill-rule="nonzero"/></svg>